<svg width="407" height="405" viewBox="0 0 407 405" fill="none" xmlns="http://www.w3.org/2000/svg">
<g clip-path="url(#clip0_202_48)">
<rect x="2.5" width="405" height="405" rx="110" fill="white"/>
<path d="M318.599 298H270.486C266.266 298 262.383 295.633 260.695 291.576L208.53 169.19C208.192 168.007 206.842 167.331 205.66 167.669C204.985 167.838 204.309 168.514 204.14 169.19L171.559 246.78C170.883 248.133 171.559 249.823 173.078 250.33C173.416 250.499 173.753 250.499 174.091 250.499H209.88C212.075 250.499 214.101 251.852 214.945 253.88L230.645 288.872C231.996 292.084 230.476 295.972 227.269 297.324C226.425 297.662 225.58 297.831 224.736 297.831H94.4086C91.2011 297.831 88.5 295.126 88.5 291.914C88.5 291.069 88.6688 290.393 89.0065 289.548L171.896 91.9378C173.584 87.7117 177.805 84.838 182.363 85.0071H230.138C234.697 85.0071 238.917 87.7117 240.605 91.9378L324.001 289.548C325.352 292.591 323.833 296.141 320.963 297.324C320.119 297.662 319.443 297.831 318.599 298Z" fill="#FA0F00"/>
</g>
<defs>
<clipPath id="clip0_202_48">
<rect width="407" height="405" fill="white"/>
</clipPath>
</defs>
</svg>
