<svg width="119" height="32" viewBox="0 0 119 32" fill="none" xmlns="http://www.w3.org/2000/svg">
<path d="M0.12 11.8C0.12 9.60267 0.610667 7.64 1.592 5.912C2.59467 4.16267 3.94933 2.808 5.656 1.848C7.384 0.866666 9.31467 0.375999 11.448 0.375999C13.944 0.375999 16.1307 1.016 18.008 2.296C19.8853 3.576 21.1973 5.34667 21.944 7.608H16.792C16.28 6.54133 15.5547 5.74133 14.616 5.208C13.6987 4.67467 12.632 4.408 11.416 4.408C10.1147 4.408 8.952 4.71733 7.928 5.336C6.92533 5.93333 6.136 6.78667 5.56 7.896C5.00533 9.00533 4.728 10.3067 4.728 11.8C4.728 13.272 5.00533 14.5733 5.56 15.704C6.136 16.8133 6.92533 17.6773 7.928 18.296C8.952 18.8933 10.1147 19.192 11.416 19.192C12.632 19.192 13.6987 18.9253 14.616 18.392C15.5547 17.8373 16.28 17.0267 16.792 15.96H21.944C21.1973 18.2427 19.8853 20.024 18.008 21.304C16.152 22.5627 13.9653 23.192 11.448 23.192C9.31467 23.192 7.384 22.712 5.656 21.752C3.94933 20.7707 2.59467 19.416 1.592 17.688C0.610667 15.96 0.12 13.9973 0.12 11.8ZM24.6185 14.072C24.6185 12.28 24.9705 10.6907 25.6745 9.304C26.3998 7.91733 27.3705 6.85067 28.5865 6.104C29.8238 5.35733 31.1998 4.984 32.7145 4.984C34.0372 4.984 35.1892 5.25067 36.1705 5.784C37.1732 6.31733 37.9732 6.98933 38.5705 7.8V5.272H43.0825V23H38.5705V20.408C37.9945 21.24 37.1945 21.9333 36.1705 22.488C35.1678 23.0213 34.0052 23.288 32.6825 23.288C31.1892 23.288 29.8238 22.904 28.5865 22.136C27.3705 21.368 26.3998 20.2907 25.6745 18.904C24.9705 17.496 24.6185 15.8853 24.6185 14.072ZM38.5705 14.136C38.5705 13.048 38.3572 12.12 37.9305 11.352C37.5038 10.5627 36.9278 9.96533 36.2025 9.56C35.4772 9.13333 34.6985 8.92 33.8665 8.92C33.0345 8.92 32.2665 9.12267 31.5625 9.528C30.8585 9.93333 30.2825 10.5307 29.8345 11.32C29.4078 12.088 29.1945 13.0053 29.1945 14.072C29.1945 15.1387 29.4078 16.0773 29.8345 16.888C30.2825 17.6773 30.8585 18.2853 31.5625 18.712C32.2878 19.1387 33.0558 19.352 33.8665 19.352C34.6985 19.352 35.4772 19.1493 36.2025 18.744C36.9278 18.3173 37.5038 17.72 37.9305 16.952C38.3572 16.1627 38.5705 15.224 38.5705 14.136ZM46.306 14.072C46.306 12.28 46.658 10.6907 47.362 9.304C48.0873 7.91733 49.058 6.85067 50.274 6.104C51.5113 5.35733 52.8873 4.984 54.402 4.984C55.7247 4.984 56.8767 5.25067 57.858 5.784C58.8607 6.31733 59.6607 6.98933 60.258 7.8V5.272H64.77V23H60.258V20.408C59.682 21.24 58.882 21.9333 57.858 22.488C56.8553 23.0213 55.6927 23.288 54.37 23.288C52.8767 23.288 51.5113 22.904 50.274 22.136C49.058 21.368 48.0873 20.2907 47.362 18.904C46.658 17.496 46.306 15.8853 46.306 14.072ZM60.258 14.136C60.258 13.048 60.0447 12.12 59.618 11.352C59.1913 10.5627 58.6153 9.96533 57.89 9.56C57.1647 9.13333 56.386 8.92 55.554 8.92C54.722 8.92 53.954 9.12267 53.25 9.528C52.546 9.93333 51.97 10.5307 51.522 11.32C51.0953 12.088 50.882 13.0053 50.882 14.072C50.882 15.1387 51.0953 16.0773 51.522 16.888C51.97 17.6773 52.546 18.2853 53.25 18.712C53.9753 19.1387 54.7433 19.352 55.554 19.352C56.386 19.352 57.1647 19.1493 57.89 18.744C58.6153 18.3173 59.1913 17.72 59.618 16.952C60.0447 16.1627 60.258 15.224 60.258 14.136ZM73.6255 8.024C74.2015 7.08533 74.9482 6.34933 75.8655 5.816C76.8042 5.28267 77.8708 5.016 79.0655 5.016V9.72H77.8815C76.4735 9.72 75.4068 10.0507 74.6815 10.712C73.9775 11.3733 73.6255 12.5253 73.6255 14.168V23H69.1455V5.272H73.6255V8.024ZM99.043 5.272L88.067 31.384H83.299L87.139 22.552L80.035 5.272H85.059L89.635 17.656L94.275 5.272H99.043ZM100.306 14.072C100.306 12.28 100.658 10.6907 101.362 9.304C102.087 7.91733 103.058 6.85067 104.274 6.104C105.511 5.35733 106.887 4.984 108.402 4.984C109.725 4.984 110.877 5.25067 111.858 5.784C112.861 6.31733 113.661 6.98933 114.258 7.8V5.272H118.77V23H114.258V20.408C113.682 21.24 112.882 21.9333 111.858 22.488C110.855 23.0213 109.693 23.288 108.37 23.288C106.877 23.288 105.511 22.904 104.274 22.136C103.058 21.368 102.087 20.2907 101.362 18.904C100.658 17.496 100.306 15.8853 100.306 14.072ZM114.258 14.136C114.258 13.048 114.045 12.12 113.618 11.352C113.191 10.5627 112.615 9.96533 111.89 9.56C111.165 9.13333 110.386 8.92 109.554 8.92C108.722 8.92 107.954 9.12267 107.25 9.528C106.546 9.93333 105.97 10.5307 105.522 11.32C105.095 12.088 104.882 13.0053 104.882 14.072C104.882 15.1387 105.095 16.0773 105.522 16.888C105.97 17.6773 106.546 18.2853 107.25 18.712C107.975 19.1387 108.743 19.352 109.554 19.352C110.386 19.352 111.165 19.1493 111.89 18.744C112.615 18.3173 113.191 17.72 113.618 16.952C114.045 16.1627 114.258 15.224 114.258 14.136Z" fill="white"/>
</svg>
