<svg width="68" height="32" viewBox="0 0 68 32" fill="none" xmlns="http://www.w3.org/2000/svg">
<g clip-path="url(#clip0_181_88)">
<mask id="path-1-outside-1_181_88" maskUnits="userSpaceOnUse" x="0" y="0" width="24" height="33" fill="black">
<rect fill="white" width="24" height="33"/>
<path d="M10.5333 1.83068C10.5761 1.85375 10.6188 1.87681 10.6629 1.90058C11.1141 2.1561 11.5254 2.48622 11.8778 2.871C11.9099 2.90383 11.9421 2.93666 11.9752 2.97048C13.1147 4.13443 13.7038 5.63806 13.7573 7.2818C13.7571 7.35269 13.7571 7.35269 13.7569 7.42501C13.757 7.47216 13.7572 7.51931 13.7573 7.56789C13.7529 7.80602 13.7304 8.04343 13.7111 8.28067C13.7489 8.28118 13.7489 8.28118 13.7875 8.28169C14.0513 8.28529 14.315 8.28943 14.5787 8.29388C14.677 8.29547 14.7752 8.29692 14.8735 8.29823C15.0152 8.30014 15.1569 8.30255 15.2986 8.30506C15.3421 8.30554 15.3857 8.30602 15.4306 8.30651C15.8522 8.3149 16.164 8.35894 16.4815 8.65519C16.7332 8.92619 16.7849 9.19067 16.7829 9.54976C16.7832 9.58876 16.7835 9.62775 16.7837 9.66792C16.7845 9.79814 16.7844 9.92834 16.7843 10.0586C16.7846 10.1521 16.7851 10.2456 16.7855 10.3391C16.7867 10.5927 16.787 10.8463 16.7873 11.0999C16.7877 11.3651 16.7887 11.6302 16.7897 11.8953C16.7913 12.3403 16.7925 12.7852 16.7933 13.2301C16.7941 13.6883 16.7953 14.1465 16.7967 14.6047C16.7968 14.6329 16.7969 14.6612 16.797 14.6903C16.7974 14.8321 16.7979 14.9739 16.7984 15.1157C16.8021 16.2912 16.8051 17.4667 16.8074 18.6423C16.9475 18.7205 17.0876 18.7987 17.2277 18.8768C17.2667 18.8986 17.3057 18.9204 17.3459 18.9429C18.971 19.8491 20.6798 20.7807 22.4997 21.1927C22.5303 21.2024 22.561 21.2122 22.5926 21.2223C22.606 21.2497 22.6195 21.2772 22.6333 21.3055C22.5969 21.3202 22.5969 21.3202 22.5597 21.3351C21.7243 21.6741 20.8747 22.046 20.1481 22.5955C21.0281 23.2029 21.997 23.7324 23 24.0936C22.9866 24.121 22.9731 24.1485 22.9593 24.1768C22.8525 24.2083 22.7464 24.236 22.6384 24.2626C21.4324 24.5859 19.9514 25.4505 19.2111 26.5071C18.9928 26.896 18.8786 27.2768 18.9902 27.7251C19.0539 27.9334 19.1317 28.1356 19.2111 28.3381C19.2246 28.3793 19.238 28.4205 19.2519 28.4629C19.0511 28.406 18.8979 28.3115 18.7299 28.1898C17.8022 27.5425 16.5755 26.9283 15.4267 27.1402C15.0678 27.2328 14.7575 27.4176 14.5637 27.7464C14.4637 27.9268 14.3716 28.1108 14.2815 28.2965C13.9749 28.2596 13.784 28.0476 13.5812 27.8309C13.2192 27.4533 12.8272 27.1518 12.4074 26.84C12.4074 28.5428 12.4074 30.2456 12.4074 32C8.64296 32 4.87852 32 1 32C1 29.2037 1 29.2037 1.85699 28.2914C1.93497 28.218 2.01459 28.1526 2.1 28.0884C2.13246 28.0637 2.16491 28.039 2.19835 28.0136C2.59631 27.733 3.08689 27.5441 3.57349 27.5465C3.61032 27.5466 3.64714 27.5467 3.68509 27.5469C3.71323 27.5471 3.74137 27.5472 3.77037 27.5474C3.77032 27.5204 3.77028 27.4934 3.77023 27.4655C3.76749 25.8615 3.7654 24.2574 3.76413 22.6534C3.76398 22.4605 3.76382 22.2677 3.76366 22.0748C3.76362 22.0364 3.76359 21.998 3.76356 21.9585C3.76303 21.3379 3.76207 20.7173 3.76094 20.0967C3.75979 19.4593 3.75912 18.8219 3.75887 18.1845C3.7587 17.7916 3.75818 17.3987 3.75718 17.0058C3.75653 16.7359 3.75634 16.466 3.7565 16.1961C3.75658 16.0407 3.75646 15.8853 3.7558 15.7299C3.7516 14.6888 3.83336 13.7857 4.32626 12.855C4.3929 12.7304 4.3929 12.7304 4.38148 12.5668C4.2868 12.4841 4.2868 12.4841 4.1625 12.4107C2.82392 11.5414 1.83003 10.1608 1.48284 8.57131C1.14088 6.92232 1.37723 5.23895 2.27479 3.80663C2.42078 3.58026 2.57726 3.36666 2.75185 3.16229C2.78573 3.12217 2.8196 3.08205 2.8545 3.04071C3.91937 1.80279 5.41044 1.15279 6.99907 1.00883C8.26802 0.945536 9.4192 1.2229 10.5333 1.83068ZM5.4 1.95552C5.46495 2.08821 5.59939 2.12314 5.72593 2.18439C6.95441 2.79888 8.3516 3.7087 8.86296 5.07648C9.12679 5.9897 8.81504 6.90679 8.40463 7.7215C7.73608 8.94346 6.6807 9.85616 5.35616 10.2432C4.55786 10.4625 3.77522 10.4645 2.95556 10.4029C3.90636 11.7664 5.31519 12.5429 6.90741 12.8165C8.30465 13.0025 9.75639 12.6267 10.8866 11.7659C11.0168 11.6625 11.1419 11.5535 11.2667 11.4433C11.3107 11.4076 11.3549 11.3721 11.3991 11.3366C11.5464 11.2032 11.6697 11.056 11.7963 10.9023C11.824 10.8708 11.8516 10.8393 11.8802 10.8069C12.5924 9.9704 13.0613 8.81189 13.1 7.69809C13.1021 7.64762 13.1042 7.59714 13.1064 7.54513C13.1475 6.08449 12.6259 4.73114 11.7148 3.62003C11.6909 3.59048 11.667 3.56092 11.6424 3.53047C11.2053 3.00303 10.6405 2.60682 10.0444 2.28842C10.0206 2.27566 9.99668 2.26289 9.97207 2.24974C8.53679 1.4962 6.91728 1.42134 5.4 1.95552ZM3.68889 3.07907C2.84405 4.05191 2.15265 5.23113 2.21619 6.57473C2.2316 6.78693 2.25342 7.00606 2.34444 7.19874C2.63382 7.39777 2.97455 7.35447 3.30503 7.2992C3.8702 7.163 4.44924 6.89419 4.91111 6.53293C4.78019 6.3792 4.60258 6.28581 4.4332 6.18256C4.25667 6.07078 4.13654 5.9568 4.01481 5.7839C3.9919 5.65126 3.9919 5.65126 4.01481 5.53423C4.14946 5.40119 4.31741 5.35471 4.49097 5.29495C4.84314 5.16691 5.15181 4.99091 5.35926 4.66036C5.4479 4.46118 5.49094 4.25115 5.44074 4.03616C5.13413 3.53528 4.41845 3.29412 3.89259 3.12068C3.825 3.10531 3.75719 3.09072 3.68889 3.07907ZM13.5074 8.94648C13.492 8.99536 13.4766 9.04424 13.4607 9.0946C13.3468 9.45263 13.2304 9.80343 13.0694 10.1428C13.0545 10.1763 13.0396 10.2097 13.0242 10.2441C12.9484 10.4064 12.8794 10.5438 12.7568 10.6752C12.3396 11.1448 12.3852 11.6913 12.3881 12.2954C12.3884 12.4146 12.3875 12.5338 12.3866 12.653C12.3846 12.9346 12.3847 13.216 12.3861 13.4975C12.3875 13.7866 12.3854 14.0755 12.3814 14.3645C12.3782 14.6141 12.3772 14.8637 12.3779 15.1134C12.3783 15.2619 12.3779 15.4102 12.3754 15.5587C12.3368 16.2094 12.3368 16.2094 12.5737 16.7842C12.7092 16.9157 12.8568 17.0081 13.0185 17.1026C13.0777 17.1523 13.1361 17.2032 13.1921 17.2565C13.2156 17.2774 13.239 17.2983 13.2631 17.3198C13.2858 17.3399 13.3084 17.3601 13.3317 17.3809C13.5404 17.5662 13.7516 17.7474 13.9665 17.9251C14.0908 18.029 14.2129 18.1352 14.335 18.2417C14.5368 18.4174 14.7431 18.5862 14.9524 18.7525C15.212 18.9594 15.4654 19.174 15.719 19.3885C15.7582 19.4215 15.7582 19.4215 15.7981 19.4552C15.8615 19.5086 15.9244 19.5625 15.9873 19.6164C16.0669 19.6909 16.0669 19.6909 16.1556 19.6826C16.1593 18.3615 16.1622 17.0405 16.1639 15.7194C16.1641 15.5635 16.1643 15.4075 16.1645 15.2516C16.1646 15.205 16.1646 15.205 16.1646 15.1575C16.1653 14.6547 16.1666 14.152 16.1681 13.6492C16.1697 13.1334 16.1706 12.6175 16.1709 12.1017C16.1711 11.7834 16.1718 11.465 16.1731 11.1467C16.1741 10.9026 16.1742 10.6586 16.174 10.4145C16.174 10.3144 16.1744 10.2142 16.175 10.1141C16.1758 9.9775 16.1756 9.84095 16.1752 9.70435C16.1759 9.64473 16.1759 9.64473 16.1766 9.5839C16.1745 9.35089 16.1481 9.21273 15.9926 9.02971C15.853 8.93464 15.8036 8.9363 15.6396 8.93703C15.5686 8.93704 15.5686 8.93704 15.4963 8.93705C15.4452 8.93748 15.3941 8.93791 15.3415 8.93835C15.2893 8.93847 15.237 8.93859 15.1831 8.93871C15.0443 8.93903 14.9054 8.93984 14.7666 8.94076C14.6249 8.94162 14.4831 8.942 14.3414 8.94242C14.0634 8.94331 13.7854 8.94473 13.5074 8.94648ZM11.721 11.849C11.6764 11.8953 11.6764 11.8953 11.6308 11.9426C11.586 11.989 11.586 11.989 11.5402 12.0362C11.5057 12.0723 11.5057 12.0723 11.4704 12.1091C11.5262 12.2621 11.5941 12.3984 11.6766 12.5382C11.7088 12.5933 11.7088 12.5933 11.7417 12.6495C11.7597 12.6772 11.7777 12.7048 11.7963 12.7332C11.8097 12.7332 11.8232 12.7332 11.837 12.7332C11.837 12.4174 11.837 12.1016 11.837 11.7762C11.7839 11.7714 11.7839 11.7714 11.721 11.849ZM10.6887 12.6318C10.1477 12.9714 9.52783 13.1995 8.9037 13.3158C8.9037 13.3433 8.9037 13.3708 8.9037 13.3991C8.92896 13.4098 8.95423 13.4206 8.98025 13.4317C9.35746 13.6151 9.61024 13.899 9.89602 14.2032C9.99856 14.31 10.1084 14.4066 10.2201 14.5031C10.2942 14.5689 10.3627 14.6384 10.4315 14.7099C10.5487 14.8315 10.6714 14.9432 10.7981 15.0545C10.8819 15.1304 10.9637 15.2075 11.0451 15.2859C11.0715 15.3113 11.0978 15.3367 11.1249 15.3628C11.1773 15.4134 11.2296 15.4642 11.2817 15.5151C11.4572 15.6845 11.641 15.8351 11.837 15.9791C11.8523 14.8231 11.82 13.4348 10.9815 12.5252C10.8395 12.5252 10.8049 12.5535 10.6887 12.6318ZM4.99259 12.8581C4.44694 13.8981 4.36868 14.8421 4.37202 16.0093C4.37238 16.1651 4.37226 16.3209 4.3722 16.4766C4.37215 16.7458 4.37241 17.0149 4.37287 17.2841C4.37353 17.6732 4.37374 18.0624 4.37384 18.4515C4.37402 19.083 4.37456 19.7146 4.37533 20.3461C4.37608 20.9591 4.37666 21.5722 4.37701 22.1853C4.37703 22.2231 4.37705 22.261 4.37707 22.3C4.37718 22.4899 4.37728 22.6799 4.37738 22.8698C4.37822 24.4429 4.37966 26.016 4.38148 27.589C4.44653 27.6104 4.51169 27.6315 4.57691 27.6523C4.63132 27.6699 4.63132 27.6699 4.68684 27.6879C4.81881 27.7215 4.90515 27.7058 5.03333 27.6619C5.26288 27.5859 5.42635 27.5739 5.68519 27.5474C5.68519 26.0094 5.68519 24.4714 5.68519 22.8868C5.95407 22.8868 6.22296 22.8868 6.5 22.8868C6.5 24.466 6.5 26.0452 6.5 27.6723C6.71511 27.7821 6.93022 27.892 7.15185 28.0052C7.28476 28.1007 7.39995 28.1869 7.51852 28.2965C7.54336 28.3185 7.5682 28.3405 7.59379 28.3633C8.09485 28.8368 8.27543 29.463 8.41481 30.1274C9.54415 30.1274 10.6735 30.1274 11.837 30.1274C11.837 28.9053 11.837 27.6831 11.837 26.4239C11.3299 26.1558 11.3299 26.1558 10.8058 25.9505C10.775 25.9405 10.7441 25.9304 10.7124 25.9201C10.4783 25.8457 10.2479 25.7854 10.0037 25.7581C9.95497 25.7525 9.90623 25.747 9.85602 25.7413C9.32622 25.6905 8.80817 25.7489 8.29259 25.8829C8.29058 25.8503 8.28857 25.8176 8.2865 25.784C8.26388 25.4494 8.22382 25.1213 8.17164 24.7902C8.15967 24.7128 8.15967 24.7128 8.14745 24.6337C8.12587 24.4946 8.10409 24.3556 8.08216 24.2165C8.06838 24.1291 8.05467 24.0417 8.04098 23.9542C7.54903 19.7675 7.54903 19.7675 6.3286 15.7837C6.24495 15.5988 6.23172 15.4396 6.23773 15.2378C6.23833 15.2053 6.23893 15.1728 6.23954 15.1393C6.25741 14.5749 6.43522 14.0987 6.82593 13.6903C6.94481 13.6013 7.06702 13.5195 7.19259 13.4407C7.08001 13.3774 6.98723 13.3446 6.85982 13.3293C6.82712 13.325 6.79443 13.3207 6.76074 13.3163C6.72595 13.3119 6.69116 13.3074 6.65532 13.3028C6.14636 13.2312 5.66283 13.0994 5.19152 12.8872C5.10936 12.8508 5.10936 12.8508 4.99259 12.8581ZM7.10124 14.2677C6.87278 14.5498 6.76439 14.9103 6.79183 15.2773C6.84026 15.6072 6.99449 15.8786 7.15185 16.1663C7.17994 16.2186 7.20798 16.2709 7.23597 16.3233C7.31594 16.4724 7.3968 16.6211 7.47778 16.7697C7.51382 16.8364 7.54985 16.9031 7.58584 16.9698C7.64863 17.0859 7.7118 17.2018 7.77522 17.3175C7.90242 17.5498 8.0282 17.7829 8.15403 18.0161C8.19583 18.0935 8.23764 18.1709 8.27945 18.2483C8.4093 18.4888 8.53907 18.7292 8.66869 18.9698C8.72637 19.0768 8.78409 19.1838 8.8418 19.2909C8.88176 19.365 8.92167 19.4391 8.96157 19.5133C9.14271 19.8491 9.32775 20.1825 9.51481 20.5149C9.55172 20.4947 9.58863 20.4746 9.62665 20.4539C9.87129 20.3206 10.1159 20.1874 10.3606 20.0542C10.4636 19.9982 10.5666 19.9421 10.6696 19.8861C10.7216 19.8578 10.7737 19.8295 10.8257 19.8012C11.1502 19.6247 11.474 19.4471 11.7963 19.2665C11.7728 19.1132 11.7322 19.0005 11.6558 18.8668C11.6349 18.8298 11.6141 18.7929 11.5927 18.7548C11.57 18.7151 11.5472 18.6754 11.5238 18.6345C11.3239 18.2793 11.1296 17.9218 10.9407 17.5603C10.7419 17.1805 10.5377 16.8044 10.3286 16.4304C10.2056 16.2093 10.0855 15.9869 9.96837 15.7625C9.94828 15.724 9.94828 15.724 9.92779 15.6848C9.86282 15.5601 9.79816 15.4353 9.73381 15.3103C9.34614 14.4838 9.34614 14.4838 8.65671 13.966C8.04625 13.7776 7.55091 13.7778 7.10124 14.2677ZM10.5741 15.5213C10.6301 15.6713 10.6952 15.8114 10.7697 15.9527C10.7924 15.9959 10.8151 16.0391 10.8386 16.0836C10.863 16.1298 10.8875 16.176 10.9127 16.2235C10.9383 16.2718 10.9638 16.3201 10.9901 16.3699C11.1727 16.7145 11.3599 17.0564 11.5497 17.397C11.7355 17.7309 11.9178 18.0666 12.0993 18.403C12.113 18.4283 12.1266 18.4536 12.1407 18.4797C12.2055 18.5997 12.2701 18.7198 12.3347 18.84C12.3831 18.9301 12.4319 19.02 12.481 19.1097C12.5034 19.1509 12.5258 19.1921 12.5489 19.2346C12.5787 19.2891 12.5787 19.2891 12.6092 19.3448C12.6519 19.4329 12.6519 19.4329 12.6519 19.5161C12.5174 19.5848 12.383 19.6535 12.2444 19.7242C12.2822 19.917 12.3408 20.0569 12.4306 20.2263C12.4453 20.2544 12.4599 20.2825 12.475 20.3114C12.506 20.3708 12.5372 20.4302 12.5685 20.4895C12.6154 20.5784 12.662 20.6676 12.7085 20.7568C12.87 21.0656 13.0359 21.3702 13.2133 21.6699C13.263 21.7632 13.263 21.7632 13.263 21.8465C12.5355 22.2216 11.7959 22.406 10.988 22.1838C10.6264 22.0546 10.2967 21.886 10.0222 21.6087C9.96596 21.546 9.96596 21.546 9.88148 21.5552C9.87224 21.5311 9.863 21.5071 9.85347 21.4824C9.78654 21.3652 9.70241 21.3021 9.5963 21.2223C9.51563 21.2635 9.43496 21.3047 9.35185 21.3471C9.1856 21.0672 9.02492 20.7847 8.86806 20.4992C8.66209 20.1258 8.45499 19.753 8.24676 19.3809C8.23302 19.3564 8.21929 19.3318 8.20514 19.3065C7.96423 18.8761 7.7217 18.4467 7.47778 18.0181C7.42026 18.1943 7.4699 18.3412 7.50786 18.5178C7.52445 18.5979 7.54103 18.678 7.5576 18.7582C7.56656 18.801 7.57553 18.8438 7.58476 18.8879C7.97177 20.7434 8.2686 22.6154 8.54865 24.4903C8.55517 24.5339 8.56169 24.5774 8.5684 24.6223C8.60186 24.848 8.63271 25.0737 8.65926 25.3003C8.72614 25.2904 8.72614 25.2904 8.79437 25.2802C9.39774 25.2038 10.0257 25.2291 10.6148 25.3836C10.643 25.3909 10.6713 25.3983 10.7004 25.4059C11.9898 25.7605 13.1127 26.6315 14.037 27.589C14.1755 27.5419 14.1884 27.518 14.2662 27.3992C14.5658 26.9797 14.9436 26.7242 15.4426 26.6189C16.4696 26.4631 17.3981 26.8732 18.3092 27.3006C18.3867 27.3421 18.3867 27.3421 18.437 27.3394C18.4426 27.2976 18.4481 27.2558 18.4537 27.2127C18.6038 26.1949 19.2978 25.4921 20.0794 24.8998C20.5504 24.5511 21.0501 24.2668 21.5741 24.0103C21.4698 23.9276 21.3665 23.8569 21.2499 23.7937C21.2185 23.7764 21.1872 23.7592 21.1548 23.7415C21.1209 23.7229 21.087 23.7044 21.0521 23.6852C19.6186 22.8875 18.2788 21.9247 16.9704 20.931C16.9463 20.9127 16.9221 20.8944 16.8973 20.8755C16.2445 20.3795 15.6027 19.8686 14.9726 19.3429C14.7975 19.1971 14.6204 19.0542 14.4419 18.9128C14.2106 18.729 13.9887 18.5358 13.7684 18.3387C13.6183 18.2045 13.4665 18.0734 13.3113 17.9453C13.1335 17.7983 12.9639 17.6441 12.7949 17.4867C12.6928 17.3941 12.5879 17.3067 12.4812 17.2196C12.234 17.0155 12.0045 16.7934 11.7732 16.5707C11.6491 16.4513 11.5223 16.3359 11.3929 16.2226C11.3198 16.1567 11.2485 16.0897 11.1774 16.0216C11.1422 15.9881 11.1422 15.9881 11.1063 15.9538C11.0599 15.9093 11.0135 15.8646 10.9674 15.8198C10.8436 15.7014 10.7243 15.6045 10.5741 15.5213ZM16.6852 19.1832C16.596 19.7285 16.596 19.7285 16.748 20.2361C16.9174 20.4106 17.1174 20.5386 17.3231 20.664C17.4311 20.7307 17.5315 20.8042 17.6326 20.881C17.7237 20.95 17.8168 21.016 17.9097 21.0824C17.999 21.1463 18.0878 21.2107 18.1767 21.2751C18.5318 21.5319 18.8897 21.7847 19.2519 22.0311C19.2862 22.055 19.3205 22.0789 19.3559 22.1035C19.3879 22.1251 19.42 22.1466 19.453 22.1688C19.4811 22.188 19.5092 22.2071 19.5382 22.2269C19.6164 22.2696 19.6164 22.2696 19.6996 22.2546C19.7935 22.216 19.8703 22.1683 19.9542 22.1103C19.9873 22.0877 20.0205 22.0651 20.0546 22.0418C20.0897 22.0177 20.1247 21.9936 20.1609 21.9687C20.4999 21.739 20.8439 21.5333 21.2074 21.3471C21.1178 21.2556 21.0611 21.234 20.9428 21.1914C20.8855 21.1703 20.8855 21.1703 20.8271 21.1489C20.7854 21.1336 20.7437 21.1183 20.7007 21.1026C19.4475 20.6322 18.2249 20.0287 17.0604 19.3619C16.9381 19.2923 16.8176 19.231 16.6852 19.1832ZM11.2665 20.4433C11.23 20.4641 11.23 20.4641 11.1927 20.4853C11.1146 20.5298 11.0366 20.5743 10.9586 20.6189C10.9058 20.649 10.853 20.679 10.8001 20.7091C10.6704 20.783 10.5407 20.8569 10.4111 20.931C10.5568 21.2479 10.8602 21.4058 11.1705 21.5249C11.3538 21.5826 11.5231 21.6033 11.7148 21.6046C11.756 21.6052 11.7972 21.6058 11.8396 21.6064C11.9629 21.5965 12.0514 21.5665 12.163 21.5136C12.1108 21.3393 12.0463 21.1881 11.9577 21.0301C11.934 20.9878 11.9104 20.9454 11.8861 20.9017C11.8615 20.8582 11.8369 20.8146 11.8116 20.7697C11.7867 20.7252 11.7618 20.6807 11.7361 20.6348C11.6749 20.5254 11.6135 20.416 11.5519 20.3068C11.4579 20.3068 11.3439 20.3992 11.2665 20.4433ZM4.21852 28.7542C4.19342 28.7833 4.16831 28.8123 4.14245 28.8423C3.81928 29.2322 3.60741 29.6134 3.60741 30.1274C4.99219 30.1274 6.37696 30.1274 7.8037 30.1274C7.68872 29.5402 7.49132 29.1294 7.07037 28.7126C7.04695 28.6883 7.02352 28.664 6.99939 28.6389C6.63718 28.2893 6.07027 28.099 5.57713 28.1126C5.08403 28.1755 4.54975 28.3638 4.21852 28.7542ZM2.14074 28.9206C1.85956 29.297 1.70915 29.6593 1.65185 30.1274C2.08207 30.1274 2.5123 30.1274 2.95556 30.1274C2.99741 29.9778 3.03918 29.8282 3.07953 29.6781C3.24666 29.0773 3.54154 28.655 3.97407 28.2132C3.31546 27.989 2.57213 28.4424 2.14074 28.9206ZM1.73333 30.7516C1.73333 30.9851 1.73333 31.2185 1.73333 31.459C2.10978 31.459 2.48622 31.459 2.87407 31.459C2.87407 31.2256 2.87407 30.9921 2.87407 30.7516C2.49763 30.7516 2.12119 30.7516 1.73333 30.7516ZM3.56667 30.7516C3.56667 30.9851 3.56667 31.2185 3.56667 31.459C6.29589 31.459 9.02511 31.459 11.837 31.459C11.837 31.2256 11.837 30.9921 11.837 30.7516C9.10781 30.7516 6.37859 30.7516 3.56667 30.7516Z"/>
</mask>
<path d="M10.5333 1.83068C10.5761 1.85375 10.6188 1.87681 10.6629 1.90058C11.1141 2.1561 11.5254 2.48622 11.8778 2.871C11.9099 2.90383 11.9421 2.93666 11.9752 2.97048C13.1147 4.13443 13.7038 5.63806 13.7573 7.2818C13.7571 7.35269 13.7571 7.35269 13.7569 7.42501C13.757 7.47216 13.7572 7.51931 13.7573 7.56789C13.7529 7.80602 13.7304 8.04343 13.7111 8.28067C13.7489 8.28118 13.7489 8.28118 13.7875 8.28169C14.0513 8.28529 14.315 8.28943 14.5787 8.29388C14.677 8.29547 14.7752 8.29692 14.8735 8.29823C15.0152 8.30014 15.1569 8.30255 15.2986 8.30506C15.3421 8.30554 15.3857 8.30602 15.4306 8.30651C15.8522 8.3149 16.164 8.35894 16.4815 8.65519C16.7332 8.92619 16.7849 9.19067 16.7829 9.54976C16.7832 9.58876 16.7835 9.62775 16.7837 9.66792C16.7845 9.79814 16.7844 9.92834 16.7843 10.0586C16.7846 10.1521 16.7851 10.2456 16.7855 10.3391C16.7867 10.5927 16.787 10.8463 16.7873 11.0999C16.7877 11.3651 16.7887 11.6302 16.7897 11.8953C16.7913 12.3403 16.7925 12.7852 16.7933 13.2301C16.7941 13.6883 16.7953 14.1465 16.7967 14.6047C16.7968 14.6329 16.7969 14.6612 16.797 14.6903C16.7974 14.8321 16.7979 14.9739 16.7984 15.1157C16.8021 16.2912 16.8051 17.4667 16.8074 18.6423C16.9475 18.7205 17.0876 18.7987 17.2277 18.8768C17.2667 18.8986 17.3057 18.9204 17.3459 18.9429C18.971 19.8491 20.6798 20.7807 22.4997 21.1927C22.5303 21.2024 22.561 21.2122 22.5926 21.2223C22.606 21.2497 22.6195 21.2772 22.6333 21.3055C22.5969 21.3202 22.5969 21.3202 22.5597 21.3351C21.7243 21.6741 20.8747 22.046 20.1481 22.5955C21.0281 23.2029 21.997 23.7324 23 24.0936C22.9866 24.121 22.9731 24.1485 22.9593 24.1768C22.8525 24.2083 22.7464 24.236 22.6384 24.2626C21.4324 24.5859 19.9514 25.4505 19.2111 26.5071C18.9928 26.896 18.8786 27.2768 18.9902 27.7251C19.0539 27.9334 19.1317 28.1356 19.2111 28.3381C19.2246 28.3793 19.238 28.4205 19.2519 28.4629C19.0511 28.406 18.8979 28.3115 18.7299 28.1898C17.8022 27.5425 16.5755 26.9283 15.4267 27.1402C15.0678 27.2328 14.7575 27.4176 14.5637 27.7464C14.4637 27.9268 14.3716 28.1108 14.2815 28.2965C13.9749 28.2596 13.784 28.0476 13.5812 27.8309C13.2192 27.4533 12.8272 27.1518 12.4074 26.84C12.4074 28.5428 12.4074 30.2456 12.4074 32C8.64296 32 4.87852 32 1 32C1 29.2037 1 29.2037 1.85699 28.2914C1.93497 28.218 2.01459 28.1526 2.1 28.0884C2.13246 28.0637 2.16491 28.039 2.19835 28.0136C2.59631 27.733 3.08689 27.5441 3.57349 27.5465C3.61032 27.5466 3.64714 27.5467 3.68509 27.5469C3.71323 27.5471 3.74137 27.5472 3.77037 27.5474C3.77032 27.5204 3.77028 27.4934 3.77023 27.4655C3.76749 25.8615 3.7654 24.2574 3.76413 22.6534C3.76398 22.4605 3.76382 22.2677 3.76366 22.0748C3.76362 22.0364 3.76359 21.998 3.76356 21.9585C3.76303 21.3379 3.76207 20.7173 3.76094 20.0967C3.75979 19.4593 3.75912 18.8219 3.75887 18.1845C3.7587 17.7916 3.75818 17.3987 3.75718 17.0058C3.75653 16.7359 3.75634 16.466 3.7565 16.1961C3.75658 16.0407 3.75646 15.8853 3.7558 15.7299C3.7516 14.6888 3.83336 13.7857 4.32626 12.855C4.3929 12.7304 4.3929 12.7304 4.38148 12.5668C4.2868 12.4841 4.2868 12.4841 4.1625 12.4107C2.82392 11.5414 1.83003 10.1608 1.48284 8.57131C1.14088 6.92232 1.37723 5.23895 2.27479 3.80663C2.42078 3.58026 2.57726 3.36666 2.75185 3.16229C2.78573 3.12217 2.8196 3.08205 2.8545 3.04071C3.91937 1.80279 5.41044 1.15279 6.99907 1.00883C8.26802 0.945536 9.4192 1.2229 10.5333 1.83068ZM5.4 1.95552C5.46495 2.08821 5.59939 2.12314 5.72593 2.18439C6.95441 2.79888 8.3516 3.7087 8.86296 5.07648C9.12679 5.9897 8.81504 6.90679 8.40463 7.7215C7.73608 8.94346 6.6807 9.85616 5.35616 10.2432C4.55786 10.4625 3.77522 10.4645 2.95556 10.4029C3.90636 11.7664 5.31519 12.5429 6.90741 12.8165C8.30465 13.0025 9.75639 12.6267 10.8866 11.7659C11.0168 11.6625 11.1419 11.5535 11.2667 11.4433C11.3107 11.4076 11.3549 11.3721 11.3991 11.3366C11.5464 11.2032 11.6697 11.056 11.7963 10.9023C11.824 10.8708 11.8516 10.8393 11.8802 10.8069C12.5924 9.9704 13.0613 8.81189 13.1 7.69809C13.1021 7.64762 13.1042 7.59714 13.1064 7.54513C13.1475 6.08449 12.6259 4.73114 11.7148 3.62003C11.6909 3.59048 11.667 3.56092 11.6424 3.53047C11.2053 3.00303 10.6405 2.60682 10.0444 2.28842C10.0206 2.27566 9.99668 2.26289 9.97207 2.24974C8.53679 1.4962 6.91728 1.42134 5.4 1.95552ZM3.68889 3.07907C2.84405 4.05191 2.15265 5.23113 2.21619 6.57473C2.2316 6.78693 2.25342 7.00606 2.34444 7.19874C2.63382 7.39777 2.97455 7.35447 3.30503 7.2992C3.8702 7.163 4.44924 6.89419 4.91111 6.53293C4.78019 6.3792 4.60258 6.28581 4.4332 6.18256C4.25667 6.07078 4.13654 5.9568 4.01481 5.7839C3.9919 5.65126 3.9919 5.65126 4.01481 5.53423C4.14946 5.40119 4.31741 5.35471 4.49097 5.29495C4.84314 5.16691 5.15181 4.99091 5.35926 4.66036C5.4479 4.46118 5.49094 4.25115 5.44074 4.03616C5.13413 3.53528 4.41845 3.29412 3.89259 3.12068C3.825 3.10531 3.75719 3.09072 3.68889 3.07907ZM13.5074 8.94648C13.492 8.99536 13.4766 9.04424 13.4607 9.0946C13.3468 9.45263 13.2304 9.80343 13.0694 10.1428C13.0545 10.1763 13.0396 10.2097 13.0242 10.2441C12.9484 10.4064 12.8794 10.5438 12.7568 10.6752C12.3396 11.1448 12.3852 11.6913 12.3881 12.2954C12.3884 12.4146 12.3875 12.5338 12.3866 12.653C12.3846 12.9346 12.3847 13.216 12.3861 13.4975C12.3875 13.7866 12.3854 14.0755 12.3814 14.3645C12.3782 14.6141 12.3772 14.8637 12.3779 15.1134C12.3783 15.2619 12.3779 15.4102 12.3754 15.5587C12.3368 16.2094 12.3368 16.2094 12.5737 16.7842C12.7092 16.9157 12.8568 17.0081 13.0185 17.1026C13.0777 17.1523 13.1361 17.2032 13.1921 17.2565C13.2156 17.2774 13.239 17.2983 13.2631 17.3198C13.2858 17.3399 13.3084 17.3601 13.3317 17.3809C13.5404 17.5662 13.7516 17.7474 13.9665 17.9251C14.0908 18.029 14.2129 18.1352 14.335 18.2417C14.5368 18.4174 14.7431 18.5862 14.9524 18.7525C15.212 18.9594 15.4654 19.174 15.719 19.3885C15.7582 19.4215 15.7582 19.4215 15.7981 19.4552C15.8615 19.5086 15.9244 19.5625 15.9873 19.6164C16.0669 19.6909 16.0669 19.6909 16.1556 19.6826C16.1593 18.3615 16.1622 17.0405 16.1639 15.7194C16.1641 15.5635 16.1643 15.4075 16.1645 15.2516C16.1646 15.205 16.1646 15.205 16.1646 15.1575C16.1653 14.6547 16.1666 14.152 16.1681 13.6492C16.1697 13.1334 16.1706 12.6175 16.1709 12.1017C16.1711 11.7834 16.1718 11.465 16.1731 11.1467C16.1741 10.9026 16.1742 10.6586 16.174 10.4145C16.174 10.3144 16.1744 10.2142 16.175 10.1141C16.1758 9.9775 16.1756 9.84095 16.1752 9.70435C16.1759 9.64473 16.1759 9.64473 16.1766 9.5839C16.1745 9.35089 16.1481 9.21273 15.9926 9.02971C15.853 8.93464 15.8036 8.9363 15.6396 8.93703C15.5686 8.93704 15.5686 8.93704 15.4963 8.93705C15.4452 8.93748 15.3941 8.93791 15.3415 8.93835C15.2893 8.93847 15.237 8.93859 15.1831 8.93871C15.0443 8.93903 14.9054 8.93984 14.7666 8.94076C14.6249 8.94162 14.4831 8.942 14.3414 8.94242C14.0634 8.94331 13.7854 8.94473 13.5074 8.94648ZM11.721 11.849C11.6764 11.8953 11.6764 11.8953 11.6308 11.9426C11.586 11.989 11.586 11.989 11.5402 12.0362C11.5057 12.0723 11.5057 12.0723 11.4704 12.1091C11.5262 12.2621 11.5941 12.3984 11.6766 12.5382C11.7088 12.5933 11.7088 12.5933 11.7417 12.6495C11.7597 12.6772 11.7777 12.7048 11.7963 12.7332C11.8097 12.7332 11.8232 12.7332 11.837 12.7332C11.837 12.4174 11.837 12.1016 11.837 11.7762C11.7839 11.7714 11.7839 11.7714 11.721 11.849ZM10.6887 12.6318C10.1477 12.9714 9.52783 13.1995 8.9037 13.3158C8.9037 13.3433 8.9037 13.3708 8.9037 13.3991C8.92896 13.4098 8.95423 13.4206 8.98025 13.4317C9.35746 13.6151 9.61024 13.899 9.89602 14.2032C9.99856 14.31 10.1084 14.4066 10.2201 14.5031C10.2942 14.5689 10.3627 14.6384 10.4315 14.7099C10.5487 14.8315 10.6714 14.9432 10.7981 15.0545C10.8819 15.1304 10.9637 15.2075 11.0451 15.2859C11.0715 15.3113 11.0978 15.3367 11.1249 15.3628C11.1773 15.4134 11.2296 15.4642 11.2817 15.5151C11.4572 15.6845 11.641 15.8351 11.837 15.9791C11.8523 14.8231 11.82 13.4348 10.9815 12.5252C10.8395 12.5252 10.8049 12.5535 10.6887 12.6318ZM4.99259 12.8581C4.44694 13.8981 4.36868 14.8421 4.37202 16.0093C4.37238 16.1651 4.37226 16.3209 4.3722 16.4766C4.37215 16.7458 4.37241 17.0149 4.37287 17.2841C4.37353 17.6732 4.37374 18.0624 4.37384 18.4515C4.37402 19.083 4.37456 19.7146 4.37533 20.3461C4.37608 20.9591 4.37666 21.5722 4.37701 22.1853C4.37703 22.2231 4.37705 22.261 4.37707 22.3C4.37718 22.4899 4.37728 22.6799 4.37738 22.8698C4.37822 24.4429 4.37966 26.016 4.38148 27.589C4.44653 27.6104 4.51169 27.6315 4.57691 27.6523C4.63132 27.6699 4.63132 27.6699 4.68684 27.6879C4.81881 27.7215 4.90515 27.7058 5.03333 27.6619C5.26288 27.5859 5.42635 27.5739 5.68519 27.5474C5.68519 26.0094 5.68519 24.4714 5.68519 22.8868C5.95407 22.8868 6.22296 22.8868 6.5 22.8868C6.5 24.466 6.5 26.0452 6.5 27.6723C6.71511 27.7821 6.93022 27.892 7.15185 28.0052C7.28476 28.1007 7.39995 28.1869 7.51852 28.2965C7.54336 28.3185 7.5682 28.3405 7.59379 28.3633C8.09485 28.8368 8.27543 29.463 8.41481 30.1274C9.54415 30.1274 10.6735 30.1274 11.837 30.1274C11.837 28.9053 11.837 27.6831 11.837 26.4239C11.3299 26.1558 11.3299 26.1558 10.8058 25.9505C10.775 25.9405 10.7441 25.9304 10.7124 25.9201C10.4783 25.8457 10.2479 25.7854 10.0037 25.7581C9.95497 25.7525 9.90623 25.747 9.85602 25.7413C9.32622 25.6905 8.80817 25.7489 8.29259 25.8829C8.29058 25.8503 8.28857 25.8176 8.2865 25.784C8.26388 25.4494 8.22382 25.1213 8.17164 24.7902C8.15967 24.7128 8.15967 24.7128 8.14745 24.6337C8.12587 24.4946 8.10409 24.3556 8.08216 24.2165C8.06838 24.1291 8.05467 24.0417 8.04098 23.9542C7.54903 19.7675 7.54903 19.7675 6.3286 15.7837C6.24495 15.5988 6.23172 15.4396 6.23773 15.2378C6.23833 15.2053 6.23893 15.1728 6.23954 15.1393C6.25741 14.5749 6.43522 14.0987 6.82593 13.6903C6.94481 13.6013 7.06702 13.5195 7.19259 13.4407C7.08001 13.3774 6.98723 13.3446 6.85982 13.3293C6.82712 13.325 6.79443 13.3207 6.76074 13.3163C6.72595 13.3119 6.69116 13.3074 6.65532 13.3028C6.14636 13.2312 5.66283 13.0994 5.19152 12.8872C5.10936 12.8508 5.10936 12.8508 4.99259 12.8581ZM7.10124 14.2677C6.87278 14.5498 6.76439 14.9103 6.79183 15.2773C6.84026 15.6072 6.99449 15.8786 7.15185 16.1663C7.17994 16.2186 7.20798 16.2709 7.23597 16.3233C7.31594 16.4724 7.3968 16.6211 7.47778 16.7697C7.51382 16.8364 7.54985 16.9031 7.58584 16.9698C7.64863 17.0859 7.7118 17.2018 7.77522 17.3175C7.90242 17.5498 8.0282 17.7829 8.15403 18.0161C8.19583 18.0935 8.23764 18.1709 8.27945 18.2483C8.4093 18.4888 8.53907 18.7292 8.66869 18.9698C8.72637 19.0768 8.78409 19.1838 8.8418 19.2909C8.88176 19.365 8.92167 19.4391 8.96157 19.5133C9.14271 19.8491 9.32775 20.1825 9.51481 20.5149C9.55172 20.4947 9.58863 20.4746 9.62665 20.4539C9.87129 20.3206 10.1159 20.1874 10.3606 20.0542C10.4636 19.9982 10.5666 19.9421 10.6696 19.8861C10.7216 19.8578 10.7737 19.8295 10.8257 19.8012C11.1502 19.6247 11.474 19.4471 11.7963 19.2665C11.7728 19.1132 11.7322 19.0005 11.6558 18.8668C11.6349 18.8298 11.6141 18.7929 11.5927 18.7548C11.57 18.7151 11.5472 18.6754 11.5238 18.6345C11.3239 18.2793 11.1296 17.9218 10.9407 17.5603C10.7419 17.1805 10.5377 16.8044 10.3286 16.4304C10.2056 16.2093 10.0855 15.9869 9.96837 15.7625C9.94828 15.724 9.94828 15.724 9.92779 15.6848C9.86282 15.5601 9.79816 15.4353 9.73381 15.3103C9.34614 14.4838 9.34614 14.4838 8.65671 13.966C8.04625 13.7776 7.55091 13.7778 7.10124 14.2677ZM10.5741 15.5213C10.6301 15.6713 10.6952 15.8114 10.7697 15.9527C10.7924 15.9959 10.8151 16.0391 10.8386 16.0836C10.863 16.1298 10.8875 16.176 10.9127 16.2235C10.9383 16.2718 10.9638 16.3201 10.9901 16.3699C11.1727 16.7145 11.3599 17.0564 11.5497 17.397C11.7355 17.7309 11.9178 18.0666 12.0993 18.403C12.113 18.4283 12.1266 18.4536 12.1407 18.4797C12.2055 18.5997 12.2701 18.7198 12.3347 18.84C12.3831 18.9301 12.4319 19.02 12.481 19.1097C12.5034 19.1509 12.5258 19.1921 12.5489 19.2346C12.5787 19.2891 12.5787 19.2891 12.6092 19.3448C12.6519 19.4329 12.6519 19.4329 12.6519 19.5161C12.5174 19.5848 12.383 19.6535 12.2444 19.7242C12.2822 19.917 12.3408 20.0569 12.4306 20.2263C12.4453 20.2544 12.4599 20.2825 12.475 20.3114C12.506 20.3708 12.5372 20.4302 12.5685 20.4895C12.6154 20.5784 12.662 20.6676 12.7085 20.7568C12.87 21.0656 13.0359 21.3702 13.2133 21.6699C13.263 21.7632 13.263 21.7632 13.263 21.8465C12.5355 22.2216 11.7959 22.406 10.988 22.1838C10.6264 22.0546 10.2967 21.886 10.0222 21.6087C9.96596 21.546 9.96596 21.546 9.88148 21.5552C9.87224 21.5311 9.863 21.5071 9.85347 21.4824C9.78654 21.3652 9.70241 21.3021 9.5963 21.2223C9.51563 21.2635 9.43496 21.3047 9.35185 21.3471C9.1856 21.0672 9.02492 20.7847 8.86806 20.4992C8.66209 20.1258 8.45499 19.753 8.24676 19.3809C8.23302 19.3564 8.21929 19.3318 8.20514 19.3065C7.96423 18.8761 7.7217 18.4467 7.47778 18.0181C7.42026 18.1943 7.4699 18.3412 7.50786 18.5178C7.52445 18.5979 7.54103 18.678 7.5576 18.7582C7.56656 18.801 7.57553 18.8438 7.58476 18.8879C7.97177 20.7434 8.2686 22.6154 8.54865 24.4903C8.55517 24.5339 8.56169 24.5774 8.5684 24.6223C8.60186 24.848 8.63271 25.0737 8.65926 25.3003C8.72614 25.2904 8.72614 25.2904 8.79437 25.2802C9.39774 25.2038 10.0257 25.2291 10.6148 25.3836C10.643 25.3909 10.6713 25.3983 10.7004 25.4059C11.9898 25.7605 13.1127 26.6315 14.037 27.589C14.1755 27.5419 14.1884 27.518 14.2662 27.3992C14.5658 26.9797 14.9436 26.7242 15.4426 26.6189C16.4696 26.4631 17.3981 26.8732 18.3092 27.3006C18.3867 27.3421 18.3867 27.3421 18.437 27.3394C18.4426 27.2976 18.4481 27.2558 18.4537 27.2127C18.6038 26.1949 19.2978 25.4921 20.0794 24.8998C20.5504 24.5511 21.0501 24.2668 21.5741 24.0103C21.4698 23.9276 21.3665 23.8569 21.2499 23.7937C21.2185 23.7764 21.1872 23.7592 21.1548 23.7415C21.1209 23.7229 21.087 23.7044 21.0521 23.6852C19.6186 22.8875 18.2788 21.9247 16.9704 20.931C16.9463 20.9127 16.9221 20.8944 16.8973 20.8755C16.2445 20.3795 15.6027 19.8686 14.9726 19.3429C14.7975 19.1971 14.6204 19.0542 14.4419 18.9128C14.2106 18.729 13.9887 18.5358 13.7684 18.3387C13.6183 18.2045 13.4665 18.0734 13.3113 17.9453C13.1335 17.7983 12.9639 17.6441 12.7949 17.4867C12.6928 17.3941 12.5879 17.3067 12.4812 17.2196C12.234 17.0155 12.0045 16.7934 11.7732 16.5707C11.6491 16.4513 11.5223 16.3359 11.3929 16.2226C11.3198 16.1567 11.2485 16.0897 11.1774 16.0216C11.1422 15.9881 11.1422 15.9881 11.1063 15.9538C11.0599 15.9093 11.0135 15.8646 10.9674 15.8198C10.8436 15.7014 10.7243 15.6045 10.5741 15.5213ZM16.6852 19.1832C16.596 19.7285 16.596 19.7285 16.748 20.2361C16.9174 20.4106 17.1174 20.5386 17.3231 20.664C17.4311 20.7307 17.5315 20.8042 17.6326 20.881C17.7237 20.95 17.8168 21.016 17.9097 21.0824C17.999 21.1463 18.0878 21.2107 18.1767 21.2751C18.5318 21.5319 18.8897 21.7847 19.2519 22.0311C19.2862 22.055 19.3205 22.0789 19.3559 22.1035C19.3879 22.1251 19.42 22.1466 19.453 22.1688C19.4811 22.188 19.5092 22.2071 19.5382 22.2269C19.6164 22.2696 19.6164 22.2696 19.6996 22.2546C19.7935 22.216 19.8703 22.1683 19.9542 22.1103C19.9873 22.0877 20.0205 22.0651 20.0546 22.0418C20.0897 22.0177 20.1247 21.9936 20.1609 21.9687C20.4999 21.739 20.8439 21.5333 21.2074 21.3471C21.1178 21.2556 21.0611 21.234 20.9428 21.1914C20.8855 21.1703 20.8855 21.1703 20.8271 21.1489C20.7854 21.1336 20.7437 21.1183 20.7007 21.1026C19.4475 20.6322 18.2249 20.0287 17.0604 19.3619C16.9381 19.2923 16.8176 19.231 16.6852 19.1832ZM11.2665 20.4433C11.23 20.4641 11.23 20.4641 11.1927 20.4853C11.1146 20.5298 11.0366 20.5743 10.9586 20.6189C10.9058 20.649 10.853 20.679 10.8001 20.7091C10.6704 20.783 10.5407 20.8569 10.4111 20.931C10.5568 21.2479 10.8602 21.4058 11.1705 21.5249C11.3538 21.5826 11.5231 21.6033 11.7148 21.6046C11.756 21.6052 11.7972 21.6058 11.8396 21.6064C11.9629 21.5965 12.0514 21.5665 12.163 21.5136C12.1108 21.3393 12.0463 21.1881 11.9577 21.0301C11.934 20.9878 11.9104 20.9454 11.8861 20.9017C11.8615 20.8582 11.8369 20.8146 11.8116 20.7697C11.7867 20.7252 11.7618 20.6807 11.7361 20.6348C11.6749 20.5254 11.6135 20.416 11.5519 20.3068C11.4579 20.3068 11.3439 20.3992 11.2665 20.4433ZM4.21852 28.7542C4.19342 28.7833 4.16831 28.8123 4.14245 28.8423C3.81928 29.2322 3.60741 29.6134 3.60741 30.1274C4.99219 30.1274 6.37696 30.1274 7.8037 30.1274C7.68872 29.5402 7.49132 29.1294 7.07037 28.7126C7.04695 28.6883 7.02352 28.664 6.99939 28.6389C6.63718 28.2893 6.07027 28.099 5.57713 28.1126C5.08403 28.1755 4.54975 28.3638 4.21852 28.7542ZM2.14074 28.9206C1.85956 29.297 1.70915 29.6593 1.65185 30.1274C2.08207 30.1274 2.5123 30.1274 2.95556 30.1274C2.99741 29.9778 3.03918 29.8282 3.07953 29.6781C3.24666 29.0773 3.54154 28.655 3.97407 28.2132C3.31546 27.989 2.57213 28.4424 2.14074 28.9206ZM1.73333 30.7516C1.73333 30.9851 1.73333 31.2185 1.73333 31.459C2.10978 31.459 2.48622 31.459 2.87407 31.459C2.87407 31.2256 2.87407 30.9921 2.87407 30.7516C2.49763 30.7516 2.12119 30.7516 1.73333 30.7516ZM3.56667 30.7516C3.56667 30.9851 3.56667 31.2185 3.56667 31.459C6.29589 31.459 9.02511 31.459 11.837 31.459C11.837 31.2256 11.837 30.9921 11.837 30.7516C9.10781 30.7516 6.37859 30.7516 3.56667 30.7516Z" fill="white"/>
<path d="M10.5333 1.83068C10.5761 1.85375 10.6188 1.87681 10.6629 1.90058C11.1141 2.1561 11.5254 2.48622 11.8778 2.871C11.9099 2.90383 11.9421 2.93666 11.9752 2.97048C13.1147 4.13443 13.7038 5.63806 13.7573 7.2818C13.7571 7.35269 13.7571 7.35269 13.7569 7.42501C13.757 7.47216 13.7572 7.51931 13.7573 7.56789C13.7529 7.80602 13.7304 8.04343 13.7111 8.28067C13.7489 8.28118 13.7489 8.28118 13.7875 8.28169C14.0513 8.28529 14.315 8.28943 14.5787 8.29388C14.677 8.29547 14.7752 8.29692 14.8735 8.29823C15.0152 8.30014 15.1569 8.30255 15.2986 8.30506C15.3421 8.30554 15.3857 8.30602 15.4306 8.30651C15.8522 8.3149 16.164 8.35894 16.4815 8.65519C16.7332 8.92619 16.7849 9.19067 16.7829 9.54976C16.7832 9.58876 16.7835 9.62775 16.7837 9.66792C16.7845 9.79814 16.7844 9.92834 16.7843 10.0586C16.7846 10.1521 16.7851 10.2456 16.7855 10.3391C16.7867 10.5927 16.787 10.8463 16.7873 11.0999C16.7877 11.3651 16.7887 11.6302 16.7897 11.8953C16.7913 12.3403 16.7925 12.7852 16.7933 13.2301C16.7941 13.6883 16.7953 14.1465 16.7967 14.6047C16.7968 14.6329 16.7969 14.6612 16.797 14.6903C16.7974 14.8321 16.7979 14.9739 16.7984 15.1157C16.8021 16.2912 16.8051 17.4667 16.8074 18.6423C16.9475 18.7205 17.0876 18.7987 17.2277 18.8768C17.2667 18.8986 17.3057 18.9204 17.3459 18.9429C18.971 19.8491 20.6798 20.7807 22.4997 21.1927C22.5303 21.2024 22.561 21.2122 22.5926 21.2223C22.606 21.2497 22.6195 21.2772 22.6333 21.3055C22.5969 21.3202 22.5969 21.3202 22.5597 21.3351C21.7243 21.6741 20.8747 22.046 20.1481 22.5955C21.0281 23.2029 21.997 23.7324 23 24.0936C22.9866 24.121 22.9731 24.1485 22.9593 24.1768C22.8525 24.2083 22.7464 24.236 22.6384 24.2626C21.4324 24.5859 19.9514 25.4505 19.2111 26.5071C18.9928 26.896 18.8786 27.2768 18.9902 27.7251C19.0539 27.9334 19.1317 28.1356 19.2111 28.3381C19.2246 28.3793 19.238 28.4205 19.2519 28.4629C19.0511 28.406 18.8979 28.3115 18.7299 28.1898C17.8022 27.5425 16.5755 26.9283 15.4267 27.1402C15.0678 27.2328 14.7575 27.4176 14.5637 27.7464C14.4637 27.9268 14.3716 28.1108 14.2815 28.2965C13.9749 28.2596 13.784 28.0476 13.5812 27.8309C13.2192 27.4533 12.8272 27.1518 12.4074 26.84C12.4074 28.5428 12.4074 30.2456 12.4074 32C8.64296 32 4.87852 32 1 32C1 29.2037 1 29.2037 1.85699 28.2914C1.93497 28.218 2.01459 28.1526 2.1 28.0884C2.13246 28.0637 2.16491 28.039 2.19835 28.0136C2.59631 27.733 3.08689 27.5441 3.57349 27.5465C3.61032 27.5466 3.64714 27.5467 3.68509 27.5469C3.71323 27.5471 3.74137 27.5472 3.77037 27.5474C3.77032 27.5204 3.77028 27.4934 3.77023 27.4655C3.76749 25.8615 3.7654 24.2574 3.76413 22.6534C3.76398 22.4605 3.76382 22.2677 3.76366 22.0748C3.76362 22.0364 3.76359 21.998 3.76356 21.9585C3.76303 21.3379 3.76207 20.7173 3.76094 20.0967C3.75979 19.4593 3.75912 18.8219 3.75887 18.1845C3.7587 17.7916 3.75818 17.3987 3.75718 17.0058C3.75653 16.7359 3.75634 16.466 3.7565 16.1961C3.75658 16.0407 3.75646 15.8853 3.7558 15.7299C3.7516 14.6888 3.83336 13.7857 4.32626 12.855C4.3929 12.7304 4.3929 12.7304 4.38148 12.5668C4.2868 12.4841 4.2868 12.4841 4.1625 12.4107C2.82392 11.5414 1.83003 10.1608 1.48284 8.57131C1.14088 6.92232 1.37723 5.23895 2.27479 3.80663C2.42078 3.58026 2.57726 3.36666 2.75185 3.16229C2.78573 3.12217 2.8196 3.08205 2.8545 3.04071C3.91937 1.80279 5.41044 1.15279 6.99907 1.00883C8.26802 0.945536 9.4192 1.2229 10.5333 1.83068ZM5.4 1.95552C5.46495 2.08821 5.59939 2.12314 5.72593 2.18439C6.95441 2.79888 8.3516 3.7087 8.86296 5.07648C9.12679 5.9897 8.81504 6.90679 8.40463 7.7215C7.73608 8.94346 6.6807 9.85616 5.35616 10.2432C4.55786 10.4625 3.77522 10.4645 2.95556 10.4029C3.90636 11.7664 5.31519 12.5429 6.90741 12.8165C8.30465 13.0025 9.75639 12.6267 10.8866 11.7659C11.0168 11.6625 11.1419 11.5535 11.2667 11.4433C11.3107 11.4076 11.3549 11.3721 11.3991 11.3366C11.5464 11.2032 11.6697 11.056 11.7963 10.9023C11.824 10.8708 11.8516 10.8393 11.8802 10.8069C12.5924 9.9704 13.0613 8.81189 13.1 7.69809C13.1021 7.64762 13.1042 7.59714 13.1064 7.54513C13.1475 6.08449 12.6259 4.73114 11.7148 3.62003C11.6909 3.59048 11.667 3.56092 11.6424 3.53047C11.2053 3.00303 10.6405 2.60682 10.0444 2.28842C10.0206 2.27566 9.99668 2.26289 9.97207 2.24974C8.53679 1.4962 6.91728 1.42134 5.4 1.95552ZM3.68889 3.07907C2.84405 4.05191 2.15265 5.23113 2.21619 6.57473C2.2316 6.78693 2.25342 7.00606 2.34444 7.19874C2.63382 7.39777 2.97455 7.35447 3.30503 7.2992C3.8702 7.163 4.44924 6.89419 4.91111 6.53293C4.78019 6.3792 4.60258 6.28581 4.4332 6.18256C4.25667 6.07078 4.13654 5.9568 4.01481 5.7839C3.9919 5.65126 3.9919 5.65126 4.01481 5.53423C4.14946 5.40119 4.31741 5.35471 4.49097 5.29495C4.84314 5.16691 5.15181 4.99091 5.35926 4.66036C5.4479 4.46118 5.49094 4.25115 5.44074 4.03616C5.13413 3.53528 4.41845 3.29412 3.89259 3.12068C3.825 3.10531 3.75719 3.09072 3.68889 3.07907ZM13.5074 8.94648C13.492 8.99536 13.4766 9.04424 13.4607 9.0946C13.3468 9.45263 13.2304 9.80343 13.0694 10.1428C13.0545 10.1763 13.0396 10.2097 13.0242 10.2441C12.9484 10.4064 12.8794 10.5438 12.7568 10.6752C12.3396 11.1448 12.3852 11.6913 12.3881 12.2954C12.3884 12.4146 12.3875 12.5338 12.3866 12.653C12.3846 12.9346 12.3847 13.216 12.3861 13.4975C12.3875 13.7866 12.3854 14.0755 12.3814 14.3645C12.3782 14.6141 12.3772 14.8637 12.3779 15.1134C12.3783 15.2619 12.3779 15.4102 12.3754 15.5587C12.3368 16.2094 12.3368 16.2094 12.5737 16.7842C12.7092 16.9157 12.8568 17.0081 13.0185 17.1026C13.0777 17.1523 13.1361 17.2032 13.1921 17.2565C13.2156 17.2774 13.239 17.2983 13.2631 17.3198C13.2858 17.3399 13.3084 17.3601 13.3317 17.3809C13.5404 17.5662 13.7516 17.7474 13.9665 17.9251C14.0908 18.029 14.2129 18.1352 14.335 18.2417C14.5368 18.4174 14.7431 18.5862 14.9524 18.7525C15.212 18.9594 15.4654 19.174 15.719 19.3885C15.7582 19.4215 15.7582 19.4215 15.7981 19.4552C15.8615 19.5086 15.9244 19.5625 15.9873 19.6164C16.0669 19.6909 16.0669 19.6909 16.1556 19.6826C16.1593 18.3615 16.1622 17.0405 16.1639 15.7194C16.1641 15.5635 16.1643 15.4075 16.1645 15.2516C16.1646 15.205 16.1646 15.205 16.1646 15.1575C16.1653 14.6547 16.1666 14.152 16.1681 13.6492C16.1697 13.1334 16.1706 12.6175 16.1709 12.1017C16.1711 11.7834 16.1718 11.465 16.1731 11.1467C16.1741 10.9026 16.1742 10.6586 16.174 10.4145C16.174 10.3144 16.1744 10.2142 16.175 10.1141C16.1758 9.9775 16.1756 9.84095 16.1752 9.70435C16.1759 9.64473 16.1759 9.64473 16.1766 9.5839C16.1745 9.35089 16.1481 9.21273 15.9926 9.02971C15.853 8.93464 15.8036 8.9363 15.6396 8.93703C15.5686 8.93704 15.5686 8.93704 15.4963 8.93705C15.4452 8.93748 15.3941 8.93791 15.3415 8.93835C15.2893 8.93847 15.237 8.93859 15.1831 8.93871C15.0443 8.93903 14.9054 8.93984 14.7666 8.94076C14.6249 8.94162 14.4831 8.942 14.3414 8.94242C14.0634 8.94331 13.7854 8.94473 13.5074 8.94648ZM11.721 11.849C11.6764 11.8953 11.6764 11.8953 11.6308 11.9426C11.586 11.989 11.586 11.989 11.5402 12.0362C11.5057 12.0723 11.5057 12.0723 11.4704 12.1091C11.5262 12.2621 11.5941 12.3984 11.6766 12.5382C11.7088 12.5933 11.7088 12.5933 11.7417 12.6495C11.7597 12.6772 11.7777 12.7048 11.7963 12.7332C11.8097 12.7332 11.8232 12.7332 11.837 12.7332C11.837 12.4174 11.837 12.1016 11.837 11.7762C11.7839 11.7714 11.7839 11.7714 11.721 11.849ZM10.6887 12.6318C10.1477 12.9714 9.52783 13.1995 8.9037 13.3158C8.9037 13.3433 8.9037 13.3708 8.9037 13.3991C8.92896 13.4098 8.95423 13.4206 8.98025 13.4317C9.35746 13.6151 9.61024 13.899 9.89602 14.2032C9.99856 14.31 10.1084 14.4066 10.2201 14.5031C10.2942 14.5689 10.3627 14.6384 10.4315 14.7099C10.5487 14.8315 10.6714 14.9432 10.7981 15.0545C10.8819 15.1304 10.9637 15.2075 11.0451 15.2859C11.0715 15.3113 11.0978 15.3367 11.1249 15.3628C11.1773 15.4134 11.2296 15.4642 11.2817 15.5151C11.4572 15.6845 11.641 15.8351 11.837 15.9791C11.8523 14.8231 11.82 13.4348 10.9815 12.5252C10.8395 12.5252 10.8049 12.5535 10.6887 12.6318ZM4.99259 12.8581C4.44694 13.8981 4.36868 14.8421 4.37202 16.0093C4.37238 16.1651 4.37226 16.3209 4.3722 16.4766C4.37215 16.7458 4.37241 17.0149 4.37287 17.2841C4.37353 17.6732 4.37374 18.0624 4.37384 18.4515C4.37402 19.083 4.37456 19.7146 4.37533 20.3461C4.37608 20.9591 4.37666 21.5722 4.37701 22.1853C4.37703 22.2231 4.37705 22.261 4.37707 22.3C4.37718 22.4899 4.37728 22.6799 4.37738 22.8698C4.37822 24.4429 4.37966 26.016 4.38148 27.589C4.44653 27.6104 4.51169 27.6315 4.57691 27.6523C4.63132 27.6699 4.63132 27.6699 4.68684 27.6879C4.81881 27.7215 4.90515 27.7058 5.03333 27.6619C5.26288 27.5859 5.42635 27.5739 5.68519 27.5474C5.68519 26.0094 5.68519 24.4714 5.68519 22.8868C5.95407 22.8868 6.22296 22.8868 6.5 22.8868C6.5 24.466 6.5 26.0452 6.5 27.6723C6.71511 27.7821 6.93022 27.892 7.15185 28.0052C7.28476 28.1007 7.39995 28.1869 7.51852 28.2965C7.54336 28.3185 7.5682 28.3405 7.59379 28.3633C8.09485 28.8368 8.27543 29.463 8.41481 30.1274C9.54415 30.1274 10.6735 30.1274 11.837 30.1274C11.837 28.9053 11.837 27.6831 11.837 26.4239C11.3299 26.1558 11.3299 26.1558 10.8058 25.9505C10.775 25.9405 10.7441 25.9304 10.7124 25.9201C10.4783 25.8457 10.2479 25.7854 10.0037 25.7581C9.95497 25.7525 9.90623 25.747 9.85602 25.7413C9.32622 25.6905 8.80817 25.7489 8.29259 25.8829C8.29058 25.8503 8.28857 25.8176 8.2865 25.784C8.26388 25.4494 8.22382 25.1213 8.17164 24.7902C8.15967 24.7128 8.15967 24.7128 8.14745 24.6337C8.12587 24.4946 8.10409 24.3556 8.08216 24.2165C8.06838 24.1291 8.05467 24.0417 8.04098 23.9542C7.54903 19.7675 7.54903 19.7675 6.3286 15.7837C6.24495 15.5988 6.23172 15.4396 6.23773 15.2378C6.23833 15.2053 6.23893 15.1728 6.23954 15.1393C6.25741 14.5749 6.43522 14.0987 6.82593 13.6903C6.94481 13.6013 7.06702 13.5195 7.19259 13.4407C7.08001 13.3774 6.98723 13.3446 6.85982 13.3293C6.82712 13.325 6.79443 13.3207 6.76074 13.3163C6.72595 13.3119 6.69116 13.3074 6.65532 13.3028C6.14636 13.2312 5.66283 13.0994 5.19152 12.8872C5.10936 12.8508 5.10936 12.8508 4.99259 12.8581ZM7.10124 14.2677C6.87278 14.5498 6.76439 14.9103 6.79183 15.2773C6.84026 15.6072 6.99449 15.8786 7.15185 16.1663C7.17994 16.2186 7.20798 16.2709 7.23597 16.3233C7.31594 16.4724 7.3968 16.6211 7.47778 16.7697C7.51382 16.8364 7.54985 16.9031 7.58584 16.9698C7.64863 17.0859 7.7118 17.2018 7.77522 17.3175C7.90242 17.5498 8.0282 17.7829 8.15403 18.0161C8.19583 18.0935 8.23764 18.1709 8.27945 18.2483C8.4093 18.4888 8.53907 18.7292 8.66869 18.9698C8.72637 19.0768 8.78409 19.1838 8.8418 19.2909C8.88176 19.365 8.92167 19.4391 8.96157 19.5133C9.14271 19.8491 9.32775 20.1825 9.51481 20.5149C9.55172 20.4947 9.58863 20.4746 9.62665 20.4539C9.87129 20.3206 10.1159 20.1874 10.3606 20.0542C10.4636 19.9982 10.5666 19.9421 10.6696 19.8861C10.7216 19.8578 10.7737 19.8295 10.8257 19.8012C11.1502 19.6247 11.474 19.4471 11.7963 19.2665C11.7728 19.1132 11.7322 19.0005 11.6558 18.8668C11.6349 18.8298 11.6141 18.7929 11.5927 18.7548C11.57 18.7151 11.5472 18.6754 11.5238 18.6345C11.3239 18.2793 11.1296 17.9218 10.9407 17.5603C10.7419 17.1805 10.5377 16.8044 10.3286 16.4304C10.2056 16.2093 10.0855 15.9869 9.96837 15.7625C9.94828 15.724 9.94828 15.724 9.92779 15.6848C9.86282 15.5601 9.79816 15.4353 9.73381 15.3103C9.34614 14.4838 9.34614 14.4838 8.65671 13.966C8.04625 13.7776 7.55091 13.7778 7.10124 14.2677ZM10.5741 15.5213C10.6301 15.6713 10.6952 15.8114 10.7697 15.9527C10.7924 15.9959 10.8151 16.0391 10.8386 16.0836C10.863 16.1298 10.8875 16.176 10.9127 16.2235C10.9383 16.2718 10.9638 16.3201 10.9901 16.3699C11.1727 16.7145 11.3599 17.0564 11.5497 17.397C11.7355 17.7309 11.9178 18.0666 12.0993 18.403C12.113 18.4283 12.1266 18.4536 12.1407 18.4797C12.2055 18.5997 12.2701 18.7198 12.3347 18.84C12.3831 18.9301 12.4319 19.02 12.481 19.1097C12.5034 19.1509 12.5258 19.1921 12.5489 19.2346C12.5787 19.2891 12.5787 19.2891 12.6092 19.3448C12.6519 19.4329 12.6519 19.4329 12.6519 19.5161C12.5174 19.5848 12.383 19.6535 12.2444 19.7242C12.2822 19.917 12.3408 20.0569 12.4306 20.2263C12.4453 20.2544 12.4599 20.2825 12.475 20.3114C12.506 20.3708 12.5372 20.4302 12.5685 20.4895C12.6154 20.5784 12.662 20.6676 12.7085 20.7568C12.87 21.0656 13.0359 21.3702 13.2133 21.6699C13.263 21.7632 13.263 21.7632 13.263 21.8465C12.5355 22.2216 11.7959 22.406 10.988 22.1838C10.6264 22.0546 10.2967 21.886 10.0222 21.6087C9.96596 21.546 9.96596 21.546 9.88148 21.5552C9.87224 21.5311 9.863 21.5071 9.85347 21.4824C9.78654 21.3652 9.70241 21.3021 9.5963 21.2223C9.51563 21.2635 9.43496 21.3047 9.35185 21.3471C9.1856 21.0672 9.02492 20.7847 8.86806 20.4992C8.66209 20.1258 8.45499 19.753 8.24676 19.3809C8.23302 19.3564 8.21929 19.3318 8.20514 19.3065C7.96423 18.8761 7.7217 18.4467 7.47778 18.0181C7.42026 18.1943 7.4699 18.3412 7.50786 18.5178C7.52445 18.5979 7.54103 18.678 7.5576 18.7582C7.56656 18.801 7.57553 18.8438 7.58476 18.8879C7.97177 20.7434 8.2686 22.6154 8.54865 24.4903C8.55517 24.5339 8.56169 24.5774 8.5684 24.6223C8.60186 24.848 8.63271 25.0737 8.65926 25.3003C8.72614 25.2904 8.72614 25.2904 8.79437 25.2802C9.39774 25.2038 10.0257 25.2291 10.6148 25.3836C10.643 25.3909 10.6713 25.3983 10.7004 25.4059C11.9898 25.7605 13.1127 26.6315 14.037 27.589C14.1755 27.5419 14.1884 27.518 14.2662 27.3992C14.5658 26.9797 14.9436 26.7242 15.4426 26.6189C16.4696 26.4631 17.3981 26.8732 18.3092 27.3006C18.3867 27.3421 18.3867 27.3421 18.437 27.3394C18.4426 27.2976 18.4481 27.2558 18.4537 27.2127C18.6038 26.1949 19.2978 25.4921 20.0794 24.8998C20.5504 24.5511 21.0501 24.2668 21.5741 24.0103C21.4698 23.9276 21.3665 23.8569 21.2499 23.7937C21.2185 23.7764 21.1872 23.7592 21.1548 23.7415C21.1209 23.7229 21.087 23.7044 21.0521 23.6852C19.6186 22.8875 18.2788 21.9247 16.9704 20.931C16.9463 20.9127 16.9221 20.8944 16.8973 20.8755C16.2445 20.3795 15.6027 19.8686 14.9726 19.3429C14.7975 19.1971 14.6204 19.0542 14.4419 18.9128C14.2106 18.729 13.9887 18.5358 13.7684 18.3387C13.6183 18.2045 13.4665 18.0734 13.3113 17.9453C13.1335 17.7983 12.9639 17.6441 12.7949 17.4867C12.6928 17.3941 12.5879 17.3067 12.4812 17.2196C12.234 17.0155 12.0045 16.7934 11.7732 16.5707C11.6491 16.4513 11.5223 16.3359 11.3929 16.2226C11.3198 16.1567 11.2485 16.0897 11.1774 16.0216C11.1422 15.9881 11.1422 15.9881 11.1063 15.9538C11.0599 15.9093 11.0135 15.8646 10.9674 15.8198C10.8436 15.7014 10.7243 15.6045 10.5741 15.5213ZM16.6852 19.1832C16.596 19.7285 16.596 19.7285 16.748 20.2361C16.9174 20.4106 17.1174 20.5386 17.3231 20.664C17.4311 20.7307 17.5315 20.8042 17.6326 20.881C17.7237 20.95 17.8168 21.016 17.9097 21.0824C17.999 21.1463 18.0878 21.2107 18.1767 21.2751C18.5318 21.5319 18.8897 21.7847 19.2519 22.0311C19.2862 22.055 19.3205 22.0789 19.3559 22.1035C19.3879 22.1251 19.42 22.1466 19.453 22.1688C19.4811 22.188 19.5092 22.2071 19.5382 22.2269C19.6164 22.2696 19.6164 22.2696 19.6996 22.2546C19.7935 22.216 19.8703 22.1683 19.9542 22.1103C19.9873 22.0877 20.0205 22.0651 20.0546 22.0418C20.0897 22.0177 20.1247 21.9936 20.1609 21.9687C20.4999 21.739 20.8439 21.5333 21.2074 21.3471C21.1178 21.2556 21.0611 21.234 20.9428 21.1914C20.8855 21.1703 20.8855 21.1703 20.8271 21.1489C20.7854 21.1336 20.7437 21.1183 20.7007 21.1026C19.4475 20.6322 18.2249 20.0287 17.0604 19.3619C16.9381 19.2923 16.8176 19.231 16.6852 19.1832ZM11.2665 20.4433C11.23 20.4641 11.23 20.4641 11.1927 20.4853C11.1146 20.5298 11.0366 20.5743 10.9586 20.6189C10.9058 20.649 10.853 20.679 10.8001 20.7091C10.6704 20.783 10.5407 20.8569 10.4111 20.931C10.5568 21.2479 10.8602 21.4058 11.1705 21.5249C11.3538 21.5826 11.5231 21.6033 11.7148 21.6046C11.756 21.6052 11.7972 21.6058 11.8396 21.6064C11.9629 21.5965 12.0514 21.5665 12.163 21.5136C12.1108 21.3393 12.0463 21.1881 11.9577 21.0301C11.934 20.9878 11.9104 20.9454 11.8861 20.9017C11.8615 20.8582 11.8369 20.8146 11.8116 20.7697C11.7867 20.7252 11.7618 20.6807 11.7361 20.6348C11.6749 20.5254 11.6135 20.416 11.5519 20.3068C11.4579 20.3068 11.3439 20.3992 11.2665 20.4433ZM4.21852 28.7542C4.19342 28.7833 4.16831 28.8123 4.14245 28.8423C3.81928 29.2322 3.60741 29.6134 3.60741 30.1274C4.99219 30.1274 6.37696 30.1274 7.8037 30.1274C7.68872 29.5402 7.49132 29.1294 7.07037 28.7126C7.04695 28.6883 7.02352 28.664 6.99939 28.6389C6.63718 28.2893 6.07027 28.099 5.57713 28.1126C5.08403 28.1755 4.54975 28.3638 4.21852 28.7542ZM2.14074 28.9206C1.85956 29.297 1.70915 29.6593 1.65185 30.1274C2.08207 30.1274 2.5123 30.1274 2.95556 30.1274C2.99741 29.9778 3.03918 29.8282 3.07953 29.6781C3.24666 29.0773 3.54154 28.655 3.97407 28.2132C3.31546 27.989 2.57213 28.4424 2.14074 28.9206ZM1.73333 30.7516C1.73333 30.9851 1.73333 31.2185 1.73333 31.459C2.10978 31.459 2.48622 31.459 2.87407 31.459C2.87407 31.2256 2.87407 30.9921 2.87407 30.7516C2.49763 30.7516 2.12119 30.7516 1.73333 30.7516ZM3.56667 30.7516C3.56667 30.9851 3.56667 31.2185 3.56667 31.459C6.29589 31.459 9.02511 31.459 11.837 31.459C11.837 31.2256 11.837 30.9921 11.837 30.7516C9.10781 30.7516 6.37859 30.7516 3.56667 30.7516Z" stroke="white" stroke-width="0.4" mask="url(#path-1-outside-1_181_88)"/>
<path d="M30.6279 3.90137C31.2278 3.91276 31.8083 3.98847 32.3896 4.22363L32.4824 4.25977L32.4834 4.26074L32.6836 4.35156C33.6024 4.79869 34.2926 5.58145 34.7314 6.52734L34.8213 6.73242L34.8232 6.73535L34.9102 6.98828C34.937 7.07301 34.9622 7.15864 34.9844 7.24609L35.0039 7.32617L35.0049 7.32812L35.0449 7.5332C35.0768 7.73791 35.0865 7.94056 35.0928 8.14551L35.0977 8.28516L35.0996 8.53125C35.0893 9.74721 34.7422 10.773 33.9424 11.7168L33.9404 11.7197C33.783 11.8943 33.6121 12.0419 33.4326 12.1787L33.25 12.3125C33.2149 12.3374 33.1798 12.363 33.1436 12.3887L33.1416 12.3906C32.9033 12.5483 32.6571 12.6647 32.3994 12.7686L32.4004 12.7695C32.373 12.7808 32.3456 12.7921 32.3174 12.8037L32.3145 12.8047C31.6237 13.0699 30.9475 13.1047 30.2363 13.0986V13.0996L30.2354 13.0986H29.959L29.3828 13.0967L28.6426 13.0938L27.9355 13.0918L27.7998 13.0908L27.4199 13.0889H27.3057L27.2021 13.0879C27.18 13.0878 27.1685 13.088 27.1572 13.0879C27.1461 13.0878 27.1347 13.087 27.1123 13.0869H27.1045C27.0786 13.0848 27.0404 13.0827 27.0078 13.0684C26.9719 13.0525 26.947 13.024 26.9326 13.0088L26.9072 12.9814L26.9053 12.9434L26.9004 12.5977V4.29785L26.9043 4.12598C26.9078 4.08392 26.9151 4.03355 26.9443 3.99219C26.9788 3.9437 27.0286 3.92669 27.0703 3.91992C27.1081 3.91379 27.1552 3.91337 27.2021 3.91309L27.3057 3.91211H27.4199C27.4595 3.91184 27.4993 3.91142 27.54 3.91113L27.9355 3.90918H28.0723L28.791 3.90723L29.5283 3.90332L30.0986 3.90137L30.3701 3.90039L30.6279 3.90137ZM30.3799 4.91016C29.9998 4.89218 29.6108 4.90285 29.2119 4.91797C28.8463 4.93182 28.4713 4.94838 28.0908 4.95117V12.0938C29.4591 12.1604 30.1392 12.1898 30.7588 12.0508C31.389 11.9094 31.959 11.5925 33.1279 10.9424C33.767 10.1832 33.9851 9.30718 33.9668 8.29102L33.9375 7.95703C33.8399 7.18918 33.542 6.50181 33.0225 5.93066L33.0205 5.92871C32.9977 5.90215 32.983 5.88571 32.9717 5.87402C32.9682 5.87047 32.9657 5.86791 32.9639 5.86621L32.9268 5.86914L32.8164 5.88086V5.73633L32.6172 5.59277C32.5923 5.57616 32.5677 5.5591 32.542 5.54199V5.54297C31.8582 5.09577 31.1387 4.94605 30.3799 4.91016Z" fill="white" stroke="white" stroke-width="0.2"/>
<path d="M45.8623 5.90039L45.915 5.9043C45.933 5.9063 45.9514 5.9091 45.9678 5.91504C45.9875 5.92224 46.004 5.93267 46.0176 5.94336L46.0498 5.97266L46.0781 6L46.0801 6.03906C46.0846 6.12191 46.0856 6.20473 46.0859 6.28613L46.0869 6.44531V6.44629L46.0879 6.62207L46.0889 6.80664L46.0898 7.41602L46.0908 7.62598L46.0928 8.61523L46.0957 9.75195L46.0977 10.6338L46.0996 11.1582V11.5703C46.0896 12.531 45.9848 13.4816 45.2285 14.2646L45.2236 14.2686C44.4292 14.9888 43.3526 15.1221 42.3379 15.0967H42.3359C41.3035 15.0554 40.2097 14.7858 39.4111 14.1016L39.3701 14.0664L39.3779 14.0117C39.3983 13.867 39.4427 13.7584 39.5068 13.6504L39.5771 13.541C39.6024 13.5033 39.6283 13.4656 39.6543 13.4268L39.6562 13.4229C39.7214 13.3345 39.7865 13.2597 39.8721 13.1846L39.9336 13.1309L39.999 13.1807C40.0451 13.2161 40.0457 13.2165 40.0918 13.252L40.2939 13.3965C40.4956 13.532 40.6992 13.6416 40.9385 13.7305L41.0557 13.7754H41.0566C41.9791 14.1098 43.003 14.1487 43.9189 13.793C44.3172 13.6102 44.5553 13.3315 44.7236 12.9365C44.8861 12.4634 44.8945 11.9447 44.9082 11.4258H44.8633V11.4443L44.8379 11.4727C44.3603 11.9999 43.5386 12.311 42.8418 12.3613H42.8379C41.7186 12.4004 40.7778 12.218 39.9229 11.458L39.9219 11.457C39.3473 10.9318 39.019 10.2813 38.9258 9.54297L38.9004 9.2207V9.21875C38.8913 8.41648 39.1182 7.70102 39.6523 7.06836C39.6755 7.03966 39.6988 7.01101 39.7227 6.98145L39.7236 6.97949L39.8232 6.86914C40.3423 6.33308 41.1634 6.00039 41.8906 5.91797L41.8955 5.91699L42.2578 5.90137C43.0429 5.89101 43.8197 6.0455 44.4619 6.52051L44.6084 6.63574L44.6104 6.6377L44.8398 6.84473C44.8733 6.87541 44.9001 6.9027 44.9238 6.92578C44.926 6.86139 44.9285 6.7968 44.9307 6.73242L44.9385 6.49023L44.9443 6.33691L44.9482 6.19434V6.19043L45.0488 6.19824L44.9492 6.19043C44.9532 6.13817 44.9557 6.0985 44.9648 6.06348C44.9746 6.02635 44.9915 5.99503 45.0107 5.95801L45.0381 5.90527L45.0986 5.9043L45.5156 5.90234L45.6357 5.90137L45.75 5.90039H45.8623ZM42.3877 6.93652C41.7023 6.93647 41.0653 7.19723 40.6016 7.68164L40.4678 7.85547C40.1796 8.27093 40.0547 8.765 40.0898 9.27051L40.1143 9.4375C40.1769 9.80392 40.2994 10.1336 40.498 10.459H40.5898L40.6162 10.5176C40.626 10.5388 40.6355 10.5603 40.6455 10.582L40.7314 10.7041C40.8308 10.821 40.9681 10.9232 41.125 11.0107C41.3308 11.1255 41.5621 11.21 41.7637 11.2676L42.0596 11.3213C42.7425 11.4145 43.3861 11.2954 43.9922 10.9414C44.3244 10.7273 44.5258 10.4903 44.7178 10.1475H44.7188L44.7842 10.0322C45.0269 9.5151 45.0151 8.87864 44.8359 8.33301H44.835C44.6103 7.8192 44.2267 7.38512 43.7031 7.15723L43.7012 7.15625C43.676 7.14464 43.6509 7.13304 43.625 7.12109L43.4922 7.06738C43.1841 6.95719 42.8779 6.93746 42.5244 6.93848H42.5225C42.4558 6.9375 42.4557 6.93752 42.3877 6.93652Z" fill="white" stroke="white" stroke-width="0.2"/>
<path d="M34.0967 22.5303L34.0977 24.1426L34.0986 25.5479V26.292L34.0996 26.9922V27.7051C34.0993 27.8163 34.0999 27.8858 34.0928 27.9307C34.0885 27.9571 34.0808 27.982 34.0664 28.0059L34.0283 28.0527L34.002 28.0811L33.9639 28.085C33.8221 28.0971 33.6792 28.094 33.5449 28.0947L33.5459 28.0957C33.4882 28.097 33.4878 28.0963 33.4287 28.0977L33.4277 28.0986V28.0977C33.3908 28.0979 33.3535 28.0974 33.3154 28.0977L33.3164 28.0986C33.2824 28.099 33.2479 28.0992 33.2129 28.0996L33.2031 28.1006L33.1943 28.0986C33.1665 28.0937 33.1381 28.0881 33.1094 28.083L33.0664 28.0752L33.042 28.0381C32.9203 27.8421 32.9373 27.6672 32.9385 27.4834V27.3682L32.9395 26.9873V26.7246L32.9404 26.1719L32.9414 25.4619V24.918L32.9424 24.6562V24.1807L32.9502 23.9385H28.1016V28.002L28.0488 28.0303C27.9886 28.0626 27.9364 28.0781 27.8867 28.085L27.7363 28.0908H27.624C27.5857 28.0907 27.5473 28.09 27.5078 28.0898L27.3916 28.0908H27.1709V28.0898C27.1333 28.0874 27.0996 28.0859 27.0664 28.0762C27.0338 28.0666 27.0034 28.0494 26.9678 28.0303L26.915 28.0029V27.9424L26.9092 24.4883C26.9086 23.9536 26.9076 23.4184 26.9062 22.8838L26.9043 21.4863L26.9023 20.7461V20.0498L26.9014 19.7939C26.9008 19.678 26.901 19.562 26.9014 19.4463L26.9004 19.3428V19.3408C26.9011 19.2427 26.9013 19.2389 26.916 19.0889L26.9199 19.0439L26.957 19.0176C27.0176 18.9742 27.0669 18.9412 27.123 18.9229C27.1795 18.9045 27.2364 18.9035 27.3047 18.9033L27.4043 18.9023H27.4053L27.5078 18.9033C27.5585 18.9028 27.5592 18.9028 27.6113 18.9023H27.6123L27.7119 18.9033H27.8164L27.8027 19L27.8164 18.9043C27.8538 18.9094 27.8895 18.9138 27.9307 18.9336L28.0596 19.0176L28.0967 19.0439L28.1006 19.0898C28.1122 19.2198 28.1157 19.3407 28.1143 19.4697V19.5879L28.1123 19.9688C28.1121 20.0465 28.1124 20.1243 28.1123 20.2021L28.1084 21.0723L28.1016 22.9336C28.9006 22.9269 29.6998 22.9198 30.5049 22.9131C31.3113 22.9063 32.1236 22.8985 32.9473 22.8916C32.943 21.7299 32.9433 21.6963 32.9375 20.4697V20.1113L32.9355 19.8721C32.9347 19.7515 32.9355 19.631 32.9355 19.5107L32.9336 19.4023V19.4004L32.9355 19.2559C32.937 19.2164 32.9397 19.1842 32.9453 19.1572C32.9593 19.0908 32.9906 19.0512 33.0234 19.0078L33.0303 19L33.0381 18.9932C33.0878 18.9506 33.135 18.9232 33.1904 18.9102C33.2404 18.8984 33.2925 18.8998 33.3408 18.9004L33.3398 18.9014H33.4424L33.5469 18.9033L33.5459 18.9043C33.58 18.9045 33.6143 18.9041 33.6494 18.9043L33.8984 18.9141C33.9604 18.9234 33.9964 18.9443 34.042 18.9688L34.0947 18.9971V19.0566C34.0956 20.2145 34.0963 21.3724 34.0967 22.5303Z" fill="white" stroke="white" stroke-width="0.2"/>
<path d="M59.3994 5.90137L59.6934 5.90332C60.3252 5.92659 60.9244 6.09205 61.4336 6.57324L61.5488 6.69043L61.5547 6.69629L61.6348 6.80469C62.0147 7.35477 62.1016 8.01744 62.0996 8.68457V9.58594L62.0986 10.4082L62.0977 11.248L62.0957 12.8936V12.9932H61.0889L61.085 12.8975C61.0772 12.7175 61.0694 12.5376 61.0615 12.3555H61.0273V12.3828L60.9961 12.4131C60.4704 12.9174 59.8699 13.1101 59.1963 13.0986V13.0996C59.1479 13.0991 59.0996 13.0982 59.0498 13.0977H59.0479C58.417 13.0824 57.881 12.9084 57.3916 12.4111L57.3633 12.3818V12.3555H57.3389L57.3086 12.3145C57.2558 12.2424 57.254 12.2387 57.1973 12.1406V12.1416C57.1792 12.1111 57.1612 12.0802 57.1426 12.0488L57.1377 12.042V12.041C56.9702 11.6923 56.8949 11.3857 56.9004 10.9844C56.9007 10.9438 56.9011 10.9032 56.9014 10.8613V10.8594L56.916 10.6182C56.9412 10.387 56.9997 10.1823 57.1162 9.95703C57.1299 9.92893 57.1441 9.90102 57.1582 9.87207L57.1592 9.86914L57.2051 9.78711C57.2193 9.76443 57.2366 9.73894 57.2705 9.69043L57.3008 9.64746H57.3262V9.5625H57.4004V9.5332L57.4326 9.50391C58.1659 8.83427 59.0383 8.90189 59.8682 8.91309L60.3018 8.91699L61.042 8.92285C61.0342 8.7953 61.0259 8.66774 61.0176 8.54004V8.53906C61.0149 8.4933 61.0125 8.44752 61.0098 8.40039L60.9961 8.24609C60.9581 7.90101 60.8685 7.64561 60.6396 7.39453C60.1618 6.96719 59.554 6.97424 58.9336 7.05176C58.4666 7.1374 58.0284 7.40755 57.6387 7.74023L57.5674 7.80078L57.502 7.73438C57.3217 7.55086 57.1635 7.32423 57.0732 7.05859L57.0645 7.03125L57.0713 7.00391C57.1059 6.85989 57.1887 6.75512 57.2803 6.67383C57.3686 6.59542 57.4749 6.53041 57.5537 6.47656L57.5596 6.47363L57.7754 6.35254C58.2854 6.08474 58.8312 5.92257 59.3984 5.90137H59.3994ZM59.96 9.87988C59.4218 9.85107 59.1739 9.83958 58.9463 9.89746C58.7229 9.95433 58.5146 10.0782 58.0752 10.3496C57.9409 10.6136 57.9019 10.9273 57.9453 11.2383C58.0341 11.5731 58.1823 11.779 58.4424 11.9443C58.8668 12.1646 59.3845 12.1921 59.8477 12.0645L60.043 12C60.4595 11.8089 60.7993 11.487 61.0176 11.0273C61.0338 10.969 61.0424 10.9179 61.0469 10.8643L61.0518 10.6748C61.0516 10.6237 61.0519 10.5722 61.0518 10.5195L61.0508 10.3564L61.0498 10.1924C61.0495 10.0912 61.0484 9.98983 61.0479 9.88867C60.8122 9.88622 60.5765 9.88499 60.3408 9.88379H60.3398C60.2149 9.88313 60.0899 9.88232 59.9648 9.88086L59.96 9.87988Z" fill="white" stroke="white" stroke-width="0.2"/>
<path d="M37.2021 21.7021C38.4036 20.709 40.3019 20.6273 41.5957 21.5156L41.7236 21.6084L41.7256 21.6104L41.9326 21.7891C42.3971 22.2175 42.736 22.7244 42.9238 23.3359L42.9697 23.4766L42.9717 23.4814L43.0322 23.7637C43.048 23.8567 43.0606 23.9496 43.0713 24.0439L43.084 24.1445V24.1455L43.0977 24.3027C43.1055 24.4568 43.0961 24.6043 43.0615 24.7666L43.0547 24.7969L43.0322 24.8184C43.014 24.8359 42.9868 24.8644 42.9443 24.8789C42.9102 24.8905 42.8681 24.8923 42.8271 24.8945H42.54L42.374 24.8936H41.7275L41.2334 24.8926L40.2979 24.8916L39.2334 24.8906C38.5449 24.8902 37.8564 24.8896 37.168 24.8887L37.2207 25.1133V25.1143L37.2432 25.2109L37.3057 25.4268C37.476 25.9178 37.812 26.3252 38.2734 26.6182C38.9884 27.0049 39.8355 27.0838 40.627 26.8789C41.0522 26.7586 41.4644 26.5581 41.7451 26.2402L41.751 26.2334L41.7578 26.2275C41.78 26.2101 41.8024 26.1928 41.8252 26.1748L41.8574 26.1494L41.8984 26.1543C41.9814 26.1642 42.0454 26.1773 42.1045 26.2139C42.1317 26.2307 42.1562 26.2523 42.1807 26.2764L42.2559 26.3555L42.2607 26.3613L42.3809 26.5176L42.4434 26.5986L42.5947 26.7959L42.6426 26.8594L42.5918 26.9199C42.0768 27.5413 41.3079 27.9483 40.4932 28.0635H40.4893C39.3109 28.1852 38.2395 28.0157 37.2676 27.3203L37.2637 27.3184L37.3252 27.2393L37.2637 27.3174C36.4923 26.7076 36.021 25.8399 35.9121 24.8867L35.9111 24.8818L35.9121 24.8809C35.8437 23.9221 36.0736 22.8903 36.7383 22.1279L36.7441 22.1211L36.9785 21.9121C37.0123 21.878 37.0462 21.8438 37.0811 21.8086L37.085 21.8047L37.2021 21.7021ZM39.3965 21.9893L39.3975 21.9902C39.1095 21.9954 38.8632 22.0238 38.6045 22.125L38.6016 22.126C38.5593 22.1412 38.5172 22.1571 38.4736 22.1729C37.9024 22.4106 37.5267 22.8349 37.2812 23.3818C37.2131 23.5682 37.1637 23.734 37.1494 23.9141H41.8594C41.7657 23.3249 41.5509 22.8641 41.0654 22.4658H41.0645C40.5911 22.1357 40.1004 21.9855 39.5156 21.9893H39.3965Z" fill="white" stroke="white" stroke-width="0.2"/>
<path d="M58.3105 20.9756C59.0891 20.8076 59.9048 20.9105 60.6025 21.3662L60.75 21.4697L60.7578 21.4746L60.6904 21.5498L60.7578 21.4756C60.8965 21.6006 61.0238 21.7343 61.1484 21.8701H61.1475L61.2236 21.9434L61.2256 21.9453L61.3232 22.0508C61.7947 22.5951 61.9997 23.3767 62.0732 24.0889L62.084 24.1914V24.1934L62.0928 24.292L62.0996 24.3779L62.1006 24.3906L62 24.3867L62.0996 24.3906C62.0972 24.4413 62.0957 24.4725 62.084 24.5303C62.0732 24.5834 62.0536 24.6621 62.0156 24.8115L61.9961 24.8867H57.0186C57.1979 25.6397 57.3711 26.1958 57.9434 26.6016L58.1807 26.7354C58.6615 26.9746 59.1728 27.0468 59.6904 26.9473L59.9502 26.8828C60.3112 26.7634 60.6386 26.5671 60.8916 26.2588L60.8975 26.251L60.8984 26.252C60.9206 26.2297 60.942 26.2065 60.9648 26.1836L60.999 26.1504L61.0469 26.1553C61.1294 26.1644 61.1955 26.1886 61.2539 26.2324C61.3084 26.2734 61.3515 26.3283 61.3936 26.3857H61.3945L61.4551 26.4668L61.46 26.4746L61.4883 26.5225C61.4972 26.539 61.5056 26.5559 61.5107 26.5742C61.5118 26.578 61.5119 26.5821 61.5127 26.5859H61.5674L61.667 26.8682L61.6865 26.9219L61.6504 26.9658C61.0753 27.6616 60.3374 28.0536 59.4873 28.0977H59.4854C58.468 28.1274 57.6349 27.8763 56.8525 27.1055L56.8496 27.1025C56.2515 26.4629 55.9521 25.5871 55.9014 24.6836V24.4766C55.9213 23.4679 56.2532 22.5741 56.8779 21.8281L56.8809 21.8252L57.0039 21.6973C57.2982 21.412 57.6388 21.207 58.0078 21.0674L58.1348 21.0195L58.1445 21.0156L58.3105 20.9756ZM58.9043 21.9834C58.3392 21.9857 57.9147 22.2348 57.5039 22.6953L57.501 22.6982C57.4536 22.747 57.4525 22.7483 57.4062 22.7959C57.3113 22.9131 57.2503 23.0352 57.1885 23.1875L57.1875 23.1895C57.1765 23.2143 57.1646 23.2391 57.1533 23.2646L57.1543 23.2656C57.0629 23.4863 57.0431 23.6564 57.0078 23.9102H60.999C60.9213 23.2948 60.7119 22.8126 60.2734 22.4131L60.125 22.3057C59.7779 22.075 59.4227 21.9801 59.0039 21.9844H59.001C58.9691 21.984 58.9372 21.9837 58.9043 21.9834Z" fill="white" stroke="white" stroke-width="0.2"/>
<path d="M50.707 20.9316C51.3535 20.8169 52.0398 21.0216 52.5986 21.3896L52.8291 21.5566L52.832 21.5596L53.0459 21.751H53.0469C53.0511 21.7547 53.0495 21.7532 53.0537 21.7568L53.0586 21.7617C53.062 21.7647 53.0574 21.76 53.0605 21.7627L53.0674 21.7695H53.0684V21.7705H53.0693L53.0742 21.7754C53.078 21.7787 53.0771 21.7778 53.0811 21.7812C53.086 21.7855 53.08 21.7799 53.085 21.7842C53.0859 21.785 53.0871 21.7864 53.0879 21.7871C53.0944 21.7927 53.0853 21.7844 53.0918 21.79L53.0967 21.7949H53.0977L53.1016 21.7988L53.1055 21.8018C53.1065 21.8026 53.1064 21.8029 53.1074 21.8037C53.1116 21.8073 53.1048 21.8007 53.1094 21.8047V21.8057H53.1104V21.8066L53.1113 21.8076H53.1123C53.1144 21.8094 53.1141 21.8097 53.1162 21.8115C53.1226 21.8171 53.1161 21.8114 53.123 21.8174L53.124 21.8184H53.125V21.8193H53.126V21.8203L53.1279 21.8213L53.1318 21.8252L53.1338 21.8262V21.8271C53.1347 21.828 53.1339 21.8273 53.1348 21.8281C53.137 21.8301 53.1341 21.8267 53.1357 21.8281L53.1387 21.8311C53.1431 21.8349 53.136 21.828 53.1406 21.832L53.1455 21.8369H53.1465V21.8379C53.1473 21.8386 53.1466 21.8381 53.1475 21.8389C53.1494 21.8405 53.1492 21.8399 53.1514 21.8418H53.1523V21.8428L53.1543 21.8447C53.1555 21.8457 53.1553 21.8449 53.1562 21.8457L53.1582 21.8477L53.1631 21.8516L53.3105 22.0117C53.6424 22.4042 53.8802 22.9236 54.0068 23.4316H54.0059L54.0264 23.5088V23.5117L54.0693 23.7568C54.1003 24.0013 54.0997 24.2454 54.0996 24.4854V24.5752L54.0908 24.9258C54.0723 25.2694 54.0206 25.597 53.8916 25.9365C53.8768 25.9765 53.8767 25.9771 53.8613 26.0186L53.8604 26.0195C53.5286 26.8891 52.8886 27.5267 52.1318 27.8779L52.1299 27.8789C51.3796 28.2012 50.4657 28.1665 49.7363 27.8008L49.7344 27.7998C49.425 27.6355 49.1518 27.4392 48.8984 27.1699V27.1689C48.8678 27.1374 48.8363 27.1058 48.8047 27.0732L48.8037 27.0723C48.2982 26.5247 48.0061 25.81 47.9238 25.04L47.9014 24.707V24.4199C47.9068 24.1352 47.929 23.8543 47.9814 23.5674L48.001 23.46L48.002 23.4561L48.0391 23.3037C48.246 22.5456 48.7307 21.8686 49.3135 21.459L49.3164 21.4561L49.627 21.2686C49.6521 21.2529 49.6772 21.2369 49.7031 21.2207L49.7061 21.2188L49.8135 21.1621C50.0671 21.0424 50.337 21.0045 50.585 20.958V20.957C50.6242 20.949 50.6636 20.9409 50.7041 20.9326L50.7061 20.9316L50.7217 21.0186L50.707 20.9316ZM52.3613 22.5166C51.5172 21.8047 50.2721 21.7762 49.5234 22.6738C49.0475 23.3266 48.9325 24.0151 48.96 24.8633L48.9912 25.1084C49.0907 25.6738 49.3628 26.185 49.7441 26.5557C49.9013 26.6846 50.0595 26.7816 50.2324 26.8545L50.4121 26.9199L50.416 26.9209L50.3818 27.0156L50.416 26.9219C50.4401 26.9305 50.4645 26.9384 50.4893 26.9473C51.0112 27.1119 51.596 27.0032 52.0762 26.708C52.5636 26.3528 52.879 25.8286 53.0156 25.1748C53.0972 24.6037 53.0958 23.9219 52.8887 23.4082L52.8877 23.4062C52.8656 23.3482 52.8652 23.3481 52.8428 23.2891V23.2881C52.7624 23.0903 52.6703 22.9112 52.5566 22.7412H52.4355V22.6553H52.3613V22.5166Z" fill="white" stroke="white" stroke-width="0.2"/>
<path d="M65.0947 20.9385C65.9274 20.8259 66.8953 20.9494 67.6357 21.4453L67.79 21.5576L67.7979 21.5625L67.7969 21.5635L67.8564 21.6182L67.9014 21.6602L67.8848 21.7188C67.8581 21.8135 67.8293 21.9051 67.7969 21.9951L67.6895 22.2617C67.67 22.3068 67.6509 22.352 67.6309 22.3984L67.627 22.4072C67.6011 22.4543 67.5767 22.5007 67.5381 22.5342C67.4993 22.5677 67.4491 22.5847 67.3984 22.6035L67.3545 22.6201L67.3145 22.5967C67.2138 22.5393 67.2106 22.5368 67.0957 22.4551V22.4561C66.6329 22.1438 66.1722 22.0342 65.6289 22.0361L65.627 22.0371V22.0361C65.5884 22.0354 65.5495 22.0349 65.5098 22.0342C65.0988 22.034 64.6964 22.1332 64.3926 22.4248C64.3033 22.543 64.2583 22.6407 64.2334 22.7432C64.2077 22.8493 64.2028 22.9677 64.2061 23.1328L64.2305 23.2676C64.2416 23.3057 64.2555 23.3384 64.2725 23.3682C64.3066 23.4281 64.3552 23.4826 64.4277 23.5527L64.5586 23.6494C64.875 23.8537 65.2576 23.9193 65.6445 23.9912L66.4834 24.1543C66.6963 24.2002 66.8524 24.2413 66.9785 24.29C67.2406 24.3914 67.3783 24.5253 67.625 24.7627L67.6992 24.8311L67.7021 24.834L67.7949 24.9365C67.9666 25.1424 68.0516 25.3609 68.084 25.6348L68.0967 25.7764V26.1641C68.0805 26.5312 68.0024 26.8501 67.748 27.1875L67.7441 27.1924C67.2318 27.7861 66.5377 28.0712 65.8086 28.0996H65.5049C65.4657 28.0994 65.4655 28.0989 65.4258 28.0986H65.4248C64.5671 28.0911 63.6223 27.8839 62.9316 27.2354L62.8955 27.2012L62.9004 27.1523C62.9165 26.9862 62.9518 26.8625 63.0137 26.7344L63.085 26.6025C63.1204 26.5413 63.1208 26.5413 63.1572 26.4785L63.1602 26.4736L63.2402 26.3662C63.2698 26.3368 63.3028 26.3194 63.3379 26.2998L63.3857 26.2725L63.4346 26.2988C63.5405 26.3568 63.642 26.4176 63.7441 26.4814L63.8975 26.5693C64.6677 26.9882 65.5192 27.1064 66.3643 26.8926C66.5127 26.8388 66.6246 26.7635 66.7607 26.6533L66.7881 26.6318H66.835C66.8373 26.6266 66.8401 26.6212 66.8428 26.6152C66.8842 26.5229 66.8891 26.5142 66.9238 26.4531C66.9694 26.327 66.9695 26.2033 66.9697 26.0449V26.042L66.9727 25.9502C66.973 25.8763 66.969 25.824 66.959 25.7764C66.9496 25.7318 66.9334 25.6877 66.9033 25.6328C66.7159 25.4345 66.472 25.3185 66.2031 25.2383C66.0647 25.197 65.924 25.1663 65.7832 25.1387L65.3623 25.0566C64.6289 24.9027 64.2423 24.8226 63.9863 24.6992C63.7184 24.57 63.5912 24.3927 63.3662 24.085L63.3604 24.0771C63.0888 23.6224 63.0413 23.146 63.0938 22.6289L63.0947 22.6211L63.1445 22.418C63.2839 21.9597 63.5862 21.6161 63.9443 21.3525L63.9521 21.3477L64.1504 21.2334C64.352 21.1243 64.5648 21.0343 64.7959 20.9912V20.9902C64.8358 20.9824 64.8758 20.9749 64.917 20.9668L64.9189 20.9658L65.0947 20.9385Z" fill="white" stroke="white" stroke-width="0.2"/>
<path d="M53.4766 10.8887L53.4922 11.168C53.5213 11.4285 53.6019 11.6454 53.8193 11.8428C54.1151 12.01 54.442 12.0582 54.7891 12.0186L54.9404 11.9961C55.0993 11.9559 55.226 11.9135 55.3604 11.8389L55.3633 11.8379L55.4268 11.8066C55.4466 11.7977 55.4661 11.7898 55.4863 11.7852C55.5272 11.7758 55.5696 11.7782 55.6191 11.7793H55.6338L55.6475 11.7842L55.7148 11.8096C55.7761 11.8374 55.8229 11.8725 55.8613 11.918C55.9067 11.9716 55.9387 12.0395 55.9717 12.1016L56.043 12.2305L56.0498 12.2422L55.9561 12.2793L56.0488 12.2432C56.0706 12.2989 56.0873 12.3384 56.0947 12.375C56.103 12.4158 56.0998 12.4521 56.0977 12.4932L56.0967 12.5156L56.085 12.5361C56.0096 12.6711 55.8749 12.7651 55.7402 12.833C55.672 12.8674 55.6 12.8967 55.5303 12.9229L55.334 12.9912L55.3262 12.9941C54.6455 13.1647 53.8295 13.1403 53.1943 12.8398L53.1895 12.8379C52.68 12.5634 52.4377 12.1967 52.2617 11.71L52.2168 11.5898L52.2119 11.5762L52.2109 11.5615L52.2051 11.375V11.0137L52.2061 10.5928V10.3008L52.207 9.5332L52.208 8.75L52.209 7.31152C52.2051 7.31155 52.2009 7.31247 52.1963 7.3125H52.1953L51.7744 7.31348L51.5918 7.31445L51.3301 7.31543C51.2513 7.31575 51.2512 7.31608 51.1709 7.31641H51.167C51.1134 7.31438 51.0679 7.31302 51.0332 7.30371C50.9861 7.291 50.9575 7.26395 50.9375 7.24609L50.9072 7.21875L50.9043 7.17871L50.9004 7.00879V6.90918L50.9023 6.70215L50.9043 6.44629L50.9053 6.38281L50.9639 6.35645C51.1127 6.29002 51.2405 6.30314 51.3691 6.30371H51.5186L51.709 6.30469H51.708C51.874 6.30538 52.0405 6.30593 52.21 6.30664V4.90039H53.4463V6.30664C53.5647 6.30628 53.6839 6.30604 53.8057 6.30566H54.2451L54.5508 6.30469L54.9902 6.30371L55.1289 6.30273H55.376L55.4863 6.31445L55.5928 6.35645L55.6514 6.38281L55.6523 6.44629C55.6536 6.56599 55.6546 6.68603 55.6553 6.80566L55.6562 6.90918V6.91016L55.6572 7.00879V7.10742C55.6553 7.13424 55.6541 7.17481 55.6387 7.20898C55.6218 7.24636 55.5906 7.27149 55.5742 7.28613L55.5479 7.30957L55.5127 7.31152L55.3037 7.31641H55.1719L55.0293 7.31543H54.8848L54.4238 7.31445L54.1123 7.31348C53.8904 7.31309 53.6682 7.31222 53.4463 7.31152C53.4499 7.79005 53.4544 8.26856 53.459 8.74707L53.4648 9.46094L53.4707 10.1494L53.4727 10.4121L53.4766 10.7803V10.8887Z" fill="white" stroke="white" stroke-width="0.2"/>
<path d="M65.0967 6.83398V7.36914L65.0977 8.80957L65.0986 10.2871V11.1162L65.0996 11.8975V12.6914L65.0918 12.9404C65.0873 12.9687 65.0801 12.9953 65.0645 13.0205L65.0225 13.0703L64.9932 13.0996H63.9004V2.98828L63.9551 2.96094C64.0112 2.93239 64.059 2.91636 64.1104 2.9082C64.1589 2.90053 64.2086 2.90047 64.2607 2.90039H64.7871L64.8926 2.91309C64.9254 2.92071 64.9641 2.93394 65.0264 2.95508L65.0947 2.97852V3.0498C65.0957 4.31102 65.0962 5.57276 65.0967 6.83398Z" fill="white" stroke="white" stroke-width="0.2"/>
<path d="M47.0986 21.7441C47.097 21.7804 47.0942 21.8155 47.0879 21.8496C47.0748 21.9205 47.0486 21.9858 47.0049 22.0635L46.9805 22.1064L46.9316 22.1133C46.8359 22.1263 46.7469 22.1305 46.6523 22.1318L46.6533 22.1328C46.1887 22.1545 45.7734 22.3101 45.4404 22.6973C45.1221 23.138 44.9818 23.679 44.9814 24.2627V24.3848C44.9805 24.5155 44.98 24.6463 44.9795 24.7773V24.7783L44.9775 25.0527L44.9727 25.7715L44.9658 26.9258C44.965 27.0602 44.9644 27.1946 44.9639 27.3291L44.9629 27.5752C44.9627 27.631 44.9621 27.6313 44.9619 27.6885V27.6895C44.961 27.8133 44.9606 27.887 44.9541 27.9336C44.9504 27.96 44.9444 27.9847 44.9316 28.0088L44.8955 28.0586L44.8691 28.0908L44.8271 28.0938L44.6484 28.0996H44.1133C44.0958 28.0983 44.078 28.0967 44.0635 28.0947C44.0486 28.0927 44.03 28.0895 44.0107 28.0811C43.9711 28.0635 43.9458 28.0302 43.9326 28.0146L43.9111 27.9883L43.9092 27.9551C43.9054 27.865 43.9044 27.7745 43.9043 27.6855V27.3184L43.9033 27.1162V26.1064L43.9023 25.0244L43.9014 23.9062V22.9473L43.9004 22.375V21.207L43.9082 21.1367C43.9191 21.0674 43.9414 21.0042 43.9941 20.9609C44.029 20.9324 44.0689 20.9201 44.1045 20.9131C44.139 20.9063 44.1788 20.9032 44.2178 20.9004L44.2246 20.8994V20.9004C44.2822 20.9006 44.34 20.9013 44.3975 20.9023H44.4844L44.6992 20.9111C44.7281 20.9161 44.7513 20.9248 44.7725 20.9346L44.834 20.9678L44.8809 20.9961L44.8828 21.0508C44.8968 21.5304 44.8991 21.643 44.9082 21.9561L44.9092 21.9551C44.9097 21.9542 44.9107 21.953 44.9111 21.9521C44.9125 21.9496 44.9165 21.9431 44.918 21.9404C44.9189 21.9387 44.9209 21.9353 44.9219 21.9336C44.9228 21.932 44.9228 21.9325 44.9238 21.9307C44.9255 21.9276 44.9231 21.9308 44.9248 21.9277C44.9316 21.9157 44.9327 21.9144 44.9395 21.9023C44.9415 21.8986 44.938 21.9037 44.9404 21.8994L44.9424 21.8975V21.8965L44.9463 21.8906C44.9474 21.8887 44.9481 21.8857 44.9492 21.8838L44.9531 21.8779L44.9814 21.8271H45.0439C45.0453 21.8233 45.0465 21.8193 45.0479 21.8154L45.0508 21.8057L45.0967 21.8271L45.0518 21.8057C45.139 21.6216 45.287 21.4759 45.4443 21.3613C45.6021 21.2464 45.7751 21.159 45.9199 21.0938L45.9297 21.0889C46.1305 21.0241 46.3344 20.9892 46.5322 20.9561V20.9551C46.5681 20.9488 46.6047 20.943 46.6416 20.9365L46.6436 20.9355L46.7686 20.918C46.8041 20.9137 46.8338 20.9115 46.8594 20.9131C46.8915 20.9152 46.918 20.9225 46.9414 20.9326L47.0059 20.9678L47.04 20.9883L47.0508 21.0264L47.0791 21.1572C47.0994 21.2856 47.0986 21.4087 47.0986 21.5322L47.0996 21.6279V21.6299L47.0986 21.7441Z" fill="white" stroke="white" stroke-width="0.2"/>
<path d="M49.3857 5.90039L49.5 5.90137C49.5376 5.90103 49.5756 5.90073 49.6143 5.90039H49.8389L49.8252 6L49.8389 5.90137C49.8742 5.90614 49.9175 5.91082 49.959 5.93555C49.9769 5.9462 49.9938 5.96029 50.0107 5.97656L50.0625 6.03027L50.0859 6.05566L50.0889 6.08984C50.0993 6.21078 50.0997 6.21409 50.0996 6.36816V7.49023C50.0993 7.68158 50.0986 7.87294 50.0986 8.06445L50.0977 9.03027L50.0967 10.1484V11.6797L50.0957 12.2188V12.416L50.0947 12.6865V12.8438C50.0924 12.8925 50.0912 12.9366 50.0811 12.9707C50.0674 13.0166 50.039 13.0439 50.0215 13.0625L49.9941 13.0908L49.9551 13.0938L49.75 13.0996H49.1309C49.1104 13.0983 49.0909 13.0965 49.0752 13.0947C49.0592 13.0929 49.0398 13.0905 49.0205 13.083C48.9793 13.067 48.9531 13.0362 48.9375 13.0195L48.9121 12.9922L48.9102 12.9551L48.9053 12.6865C48.9052 12.6586 48.9044 12.6304 48.9043 12.6016V12.1162L48.9033 11.5654V10.0244L48.9014 8.90723C48.9008 8.58773 48.9013 8.26772 48.9014 7.94824L48.9004 7.37598V6.20801L48.9121 6.12695C48.9289 6.05091 48.9631 5.98767 49.0273 5.94727C49.0666 5.92264 49.1095 5.9116 49.1494 5.90625C49.189 5.90095 49.2327 5.90052 49.2754 5.90039H49.3857Z" fill="white" stroke="white" stroke-width="0.2"/>
<path d="M37.3857 5.90039L37.5 5.90137C37.5376 5.90103 37.5756 5.90073 37.6143 5.90039H37.8389L37.8252 6L37.8389 5.90137C37.8742 5.90614 37.9175 5.91082 37.959 5.93555C37.9769 5.9462 37.9938 5.96029 38.0107 5.97656L38.0625 6.03027L38.0859 6.05566L38.0889 6.08984C38.0993 6.21078 38.0997 6.21409 38.0996 6.36816V7.49023C38.0993 7.68158 38.0986 7.87294 38.0986 8.06445L38.0977 9.03027L38.0967 10.1484V11.6797L38.0957 12.2188V12.416L38.0947 12.6865V12.8438C38.0924 12.8925 38.0912 12.9366 38.0811 12.9707C38.0674 13.0166 38.039 13.0439 38.0215 13.0625L37.9941 13.0908L37.9551 13.0938L37.75 13.0996H37.1309C37.1104 13.0983 37.0909 13.0965 37.0752 13.0947C37.0592 13.0929 37.0398 13.0905 37.0205 13.083C36.9793 13.067 36.9531 13.0362 36.9375 13.0195L36.9121 12.9922L36.9102 12.9551L36.9053 12.6865C36.9052 12.6586 36.9044 12.6304 36.9043 12.6016V12.1162L36.9033 11.5654V10.0244L36.9014 8.90723C36.9008 8.58773 36.9013 8.26772 36.9014 7.94824L36.9004 7.37598V6.20801L36.9121 6.12695C36.9289 6.05091 36.9631 5.98767 37.0273 5.94727C37.0666 5.92264 37.1095 5.9116 37.1494 5.90625C37.189 5.90095 37.2327 5.90052 37.2754 5.90039H37.3857Z" fill="white" stroke="white" stroke-width="0.2"/>
<path d="M16 11.9004V12.0996H13V11.9004H16Z" fill="white" stroke="white" stroke-width="0.2"/>
<path d="M13.6367 11.9004L13.7988 11.9014C13.8816 11.901 13.8819 11.9008 13.9668 11.9004L14.3203 11.9023L14.7695 11.9014H15.2002C15.2808 11.9006 15.2812 11.9012 15.3633 11.9004H15.3662L15.5186 11.9023L15.5176 11.9033H15.6631L15.6748 11.9062C15.7657 11.9299 15.8375 11.9672 15.9014 12.0234C15.9318 12.0502 15.9601 12.0805 15.9873 12.1143L16.0684 12.2266L16.083 12.2471L16.0859 12.2725C16.1089 12.5036 16.1121 12.664 16.0303 12.8877L16.0264 12.8994L16.0186 12.9111C15.9558 12.9998 15.8931 13.0548 15.8125 13.0801C15.742 13.1022 15.6622 13.0964 15.5957 13.0967L15.5967 13.0977C15.5429 13.0984 15.489 13.0988 15.4336 13.0996H15.4316C15.3727 13.0992 15.3129 13.0992 15.2539 13.0986C15.1943 13.0988 15.1348 13.0993 15.0752 13.0996H15.0742L14.6943 13.0977L14.209 13.0986H13.834L13.6562 13.0996C13.5715 13.1002 13.4867 13.0989 13.4033 13.0977V13.0967H13.2471L13.2344 13.0938C13.1827 13.0799 13.1319 13.0675 13.0889 13.0361C13.0478 13.0061 13.0168 12.9611 12.9814 12.9111L12.9736 12.8994L12.9697 12.8877C12.8879 12.664 12.8911 12.5036 12.9141 12.2725L12.917 12.2471L12.9316 12.2266L13.0488 12.0771C13.0884 12.0351 13.1295 12.0004 13.1748 11.9736C13.2674 11.9191 13.3663 11.904 13.4814 11.9033V11.9023C13.5316 11.9016 13.5822 11.9012 13.6338 11.9004H13.6367Z" fill="white" stroke="white" stroke-width="0.2"/>
<path d="M15.3574 12.9004L15.6084 12.9062C15.6722 12.9101 15.7269 12.9177 15.7744 12.9336C15.8268 12.9511 15.8657 12.9782 15.8994 13.0117L15.9922 13.126L15.999 13.1348L16.0039 13.1455C16.05 13.249 16.08 13.3342 16.0928 13.4268C16.1055 13.519 16.1 13.6125 16.084 13.7324L16.082 13.751L16.0732 13.7666C16.0279 13.8506 15.9858 13.9227 15.9316 13.9775C15.8735 14.0363 15.8061 14.0708 15.7188 14.0938L15.707 14.0967H15.5557L15.5566 14.0977C15.5048 14.0984 15.4529 14.0988 15.3994 14.0996H15.3965C15.3407 14.0991 15.285 14.0991 15.2275 14.0986L15.0537 14.0996L14.6875 14.0977L14.2207 14.0986H13.8594C13.7747 14.0984 13.6899 14.0988 13.6045 14.0996H13.6016C13.524 14.0985 13.5237 14.0988 13.4443 14.0977V14.0967H13.2939L13.2822 14.0938C13.1953 14.0709 13.1277 14.0372 13.0693 13.9785C13.0422 13.9512 13.0179 13.9192 12.9951 13.8838L12.9277 13.7656L12.9189 13.749L12.917 13.7295C12.9064 13.6237 12.9004 13.5638 12.9004 13.5039C12.9004 13.444 12.9064 13.384 12.917 13.2783L12.9189 13.2578L12.9277 13.2412L12.9775 13.1543C13.0277 13.0742 13.0807 13.0141 13.1465 12.9736C13.2352 12.9191 13.333 12.9101 13.4395 12.9092V12.9082C13.4904 12.9072 13.5413 12.9063 13.5938 12.9053H13.5967L13.7617 12.9062C13.8463 12.9057 13.8464 12.9059 13.9326 12.9053H14.293L14.75 12.9033H15.1885V12.9023C15.2432 12.9015 15.2981 12.9012 15.3545 12.9004H15.3574Z" fill="white" stroke="white" stroke-width="0.2"/>
<path d="M36.9521 2.90527C37.1203 2.88895 37.2897 2.91194 37.4639 2.96875L37.6406 3.03613L37.6543 3.04297L37.665 3.05273L37.8203 3.20117C37.867 3.25173 37.9083 3.30427 37.9443 3.36133C37.9989 3.44778 38.0391 3.54213 38.0674 3.65234L38.0918 3.76758L38.0938 3.77832L38.0996 4.03125C38.0972 4.11153 38.0886 4.18845 38.0723 4.26367C38.0391 4.41666 37.9722 4.55791 37.8545 4.70605L37.8477 4.71387C37.7217 4.84157 37.6095 4.93126 37.4805 4.99219C37.3515 5.05302 37.2122 5.08189 37.0381 5.09961L37.0254 5.10059V5.09961C36.6577 5.08935 36.421 4.90479 36.1699 4.68359L36.1631 4.67773L36.1572 4.66992C36.0309 4.50753 35.9652 4.36259 35.9287 4.18652L35.9004 3.99805L35.8994 3.98828L35.9004 3.97852L35.917 3.85547C35.9378 3.73781 35.9722 3.63581 36.0215 3.54004C36.0867 3.41336 36.176 3.30278 36.2891 3.18652L36.2949 3.18066L36.3018 3.17578C36.5142 3.01806 36.7276 2.92711 36.9521 2.90527Z" fill="white" stroke="white" stroke-width="0.2"/>
<path d="M49.0117 2.90137C49.2403 2.9088 49.4737 2.9461 49.6816 3.08008L49.8027 3.17188L49.8105 3.17871L49.8174 3.1875C49.931 3.34408 50.0066 3.48788 50.0508 3.64453C50.0948 3.80076 50.1058 3.96456 50.0977 4.1582L50.0967 4.16992C50.044 4.50434 49.8627 4.69127 49.6514 4.88965L49.6426 4.89844L49.6416 4.89746C49.3628 5.09822 49.0833 5.12594 48.7686 5.08203L48.7559 5.08008L48.7451 5.0752C48.4144 4.94132 48.133 4.72095 47.9629 4.38477L47.958 4.37598L47.9551 4.36621C47.8768 4.08117 47.8796 3.86794 47.9756 3.58594L47.9795 3.5752L47.9854 3.56543C48.1625 3.2802 48.3849 3.04242 48.707 2.91016L48.7236 2.90332L48.7422 2.90234L49.0117 2.90137Z" fill="white" stroke="white" stroke-width="0.2"/>
</g>
<defs>
<clipPath id="clip0_181_88">
<rect width="68" height="32" fill="white"/>
</clipPath>
</defs>
</svg>
