<svg width="61" height="32" viewBox="0 0 61 32" fill="none" xmlns="http://www.w3.org/2000/svg">
<path d="M57.417 4.82386C57.3261 4.01705 56.9511 3.39205 56.292 2.94886C55.6329 2.5 54.8034 2.27557 53.8034 2.27557C53.0875 2.27557 52.4682 2.3892 51.9454 2.61648C51.4227 2.83807 51.0164 3.14489 50.7267 3.53693C50.4426 3.9233 50.3005 4.36364 50.3005 4.85796C50.3005 5.27273 50.3971 5.63068 50.5903 5.93182C50.7892 6.23295 51.0477 6.4858 51.3659 6.69034C51.6897 6.8892 52.0363 7.05682 52.4057 7.19318C52.775 7.32386 53.1301 7.43182 53.471 7.51705L55.1755 7.96023C55.7324 8.09659 56.3034 8.28125 56.8886 8.5142C57.4738 8.74716 58.0164 9.05398 58.5164 9.43466C59.0164 9.81534 59.4199 10.2869 59.7267 10.8494C60.0392 11.4119 60.1954 12.0852 60.1954 12.8693C60.1954 13.858 59.9397 14.7358 59.4284 15.5028C58.9227 16.2699 58.1869 16.875 57.221 17.3182C56.2608 17.7614 55.0988 17.983 53.7352 17.983C52.4284 17.983 51.2977 17.7756 50.3432 17.3608C49.3886 16.946 48.6414 16.358 48.1017 15.5966C47.5619 14.8295 47.2636 13.9205 47.2068 12.8693H49.8488C49.9 13.5 50.1045 14.0256 50.4625 14.446C50.8261 14.8608 51.2892 15.1705 51.8517 15.375C52.4199 15.5739 53.042 15.6733 53.7182 15.6733C54.4625 15.6733 55.1244 15.5568 55.7039 15.3239C56.2892 15.0852 56.7494 14.7557 57.0846 14.3352C57.4199 13.9091 57.5875 13.4119 57.5875 12.8438C57.5875 12.3267 57.4397 11.9034 57.1443 11.5739C56.8545 11.2443 56.4596 10.9716 55.9596 10.7557C55.4653 10.5398 54.9057 10.3494 54.2807 10.1847L52.2182 9.62216C50.8204 9.24148 49.7125 8.68182 48.8943 7.94318C48.0818 7.20455 47.6755 6.22727 47.6755 5.01136C47.6755 4.00568 47.9483 3.12784 48.4937 2.37784C49.0392 1.62784 49.7778 1.04545 50.7096 0.630682C51.6414 0.210227 52.6926 0 53.863 0C55.0449 0 56.0875 0.207386 56.9909 0.622159C57.9 1.03693 58.6159 1.60795 59.1386 2.33523C59.6613 3.05682 59.9341 3.88636 59.9568 4.82386H57.417Z" fill="white"/>
<path d="M31.4036 2.50557V0.238525H44.9121V2.50557H39.4661V17.6931H36.8411V2.50557H31.4036Z" fill="white"/>
<path d="M20.991 17.6931V0.238525H23.6245V15.426H31.5336V17.6931H20.991Z" fill="white"/>
<path d="M6.53003 17.6931V0.238525H17.4732V2.50557H9.16355V7.82375H16.9022V10.0823H9.16355V15.426H17.5755V17.6931H6.53003Z" fill="white"/>
<path d="M2.6948 0.238525V17.6931H0.0612793V0.238525H2.6948Z" fill="white"/>
<path d="M56.5678 29.213C56.4598 29.5028 56.3348 29.7116 56.1928 29.8395V30.4318C56.5871 30.5764 56.6436 30.6931 57.1436 30.6931C57.3367 30.4573 57.6232 29.9076 57.7482 29.5667L60.4456 22.1477H59.0777L57.4201 27.2273H57.3519L55.6942 22.1477H54.3306L56.7255 28.7784L56.5678 29.213Z" fill="white"/>
<path d="M51.0348 28.8253C50.4013 28.8253 49.8558 28.6818 49.3984 28.3949C48.9439 28.1051 48.5944 27.706 48.3501 27.1974C48.1058 26.6889 47.9836 26.1065 47.9836 25.4503C47.9836 24.7855 48.1086 24.1989 48.3586 23.6903C48.6086 23.179 48.9609 22.7798 49.4155 22.4929C49.87 22.206 50.4055 22.0625 51.022 22.0625C51.5192 22.0625 51.9623 22.1548 52.3515 22.3395C52.7407 22.5213 53.0547 22.777 53.2933 23.1065C53.5348 23.4361 53.6782 23.821 53.7237 24.2614H52.4836C52.4155 23.9545 52.2592 23.6903 52.0149 23.4688C51.7734 23.2472 51.4496 23.1364 51.0433 23.1364C50.6882 23.1364 50.3771 23.2301 50.1101 23.4176C49.8459 23.6023 49.6399 23.8665 49.4922 24.2102C49.3444 24.5511 49.2706 24.9545 49.2706 25.4205C49.2706 25.8977 49.343 26.3097 49.4879 26.6562C49.6328 27.0028 49.8373 27.2713 50.1015 27.4616C50.3686 27.652 50.6825 27.7472 51.0433 27.7472C51.2848 27.7472 51.5035 27.7031 51.6996 27.6151C51.8984 27.5241 52.0646 27.3949 52.1981 27.2273C52.3345 27.0597 52.4297 26.858 52.4836 26.6222H53.7237C53.6782 27.0455 53.5405 27.4233 53.3103 27.7557C53.0802 28.0881 52.772 28.3494 52.3856 28.5398C52.0021 28.7301 51.5518 28.8253 51.0348 28.8253Z" fill="white"/>
<path d="M42.6199 24.8068V28.6932H41.3457V22.1477H42.5687V23.2131H42.6497C42.8002 22.8665 43.036 22.5881 43.3571 22.3778C43.6809 22.1676 44.0886 22.0625 44.5801 22.0625C45.0261 22.0625 45.4167 22.1562 45.752 22.3438C46.0872 22.5284 46.3471 22.804 46.5318 23.1705C46.7164 23.5369 46.8088 23.9901 46.8088 24.5298V28.6932H45.5346V24.6832C45.5346 24.2088 45.411 23.8381 45.1639 23.571C44.9167 23.3011 44.5772 23.1662 44.1454 23.1662C43.85 23.1662 43.5872 23.2301 43.3571 23.358C43.1298 23.4858 42.9494 23.6733 42.8159 23.9205C42.6852 24.1648 42.6199 24.4602 42.6199 24.8068Z" fill="white"/>
<path d="M37.3638 28.8253C36.7189 28.8253 36.1636 28.6875 35.6976 28.4119C35.2346 28.1335 34.8766 27.7429 34.6238 27.2401C34.3738 26.7344 34.2488 26.142 34.2488 25.4631C34.2488 24.7926 34.3738 24.2017 34.6238 23.6903C34.8766 23.179 35.2289 22.7798 35.6806 22.4929C36.1351 22.206 36.6664 22.0625 37.2743 22.0625C37.6437 22.0625 38.0016 22.1236 38.3482 22.2457C38.6948 22.3679 39.0059 22.5597 39.2814 22.821C39.557 23.0824 39.7743 23.4219 39.9334 23.8395C40.0925 24.2543 40.1721 24.7585 40.1721 25.3523V25.804H34.9689V24.8494H38.9235C38.9235 24.5142 38.8553 24.2173 38.7189 23.9588C38.5826 23.6974 38.3908 23.4915 38.1437 23.3409C37.8993 23.1903 37.6124 23.1151 37.2829 23.1151C36.9249 23.1151 36.6124 23.2031 36.3454 23.3793C36.0812 23.5526 35.8766 23.7798 35.7317 24.0611C35.5897 24.3395 35.5187 24.642 35.5187 24.9688V25.7145C35.5187 26.152 35.5954 26.5241 35.7488 26.831C35.905 27.1378 36.1224 27.3722 36.4008 27.5341C36.6792 27.6932 37.0045 27.7727 37.3766 27.7727C37.6181 27.7727 37.8383 27.7386 38.0371 27.6705C38.236 27.5994 38.4079 27.4943 38.5528 27.3551C38.6976 27.2159 38.8084 27.044 38.8851 26.8395L40.0911 27.0568C39.9945 27.4119 39.8212 27.723 39.5712 27.9901C39.3241 28.2543 39.013 28.4602 38.638 28.608C38.2658 28.7528 37.8411 28.8253 37.3638 28.8253Z" fill="white"/>
<path d="M31.7945 28.6932V22.1477H33.0686V28.6932H31.7945ZM32.438 21.1378C32.2164 21.1378 32.026 21.0639 31.8669 20.9162C31.7107 20.7656 31.6326 20.5866 31.6326 20.3792C31.6326 20.169 31.7107 19.99 31.8669 19.8423C32.026 19.6917 32.2164 19.6165 32.438 19.6165C32.6596 19.6165 32.8485 19.6917 33.0047 19.8423C33.1638 19.99 33.2434 20.169 33.2434 20.3792C33.2434 20.5866 33.1638 20.7656 33.0047 20.9162C32.8485 21.0639 32.6596 21.1378 32.438 21.1378Z" fill="white"/>
<path d="M27.983 28.8253C27.3495 28.8253 26.804 28.6818 26.3467 28.3949C25.8921 28.1051 25.5427 27.706 25.2984 27.1974C25.054 26.6889 24.9319 26.1065 24.9319 25.4503C24.9319 24.7855 25.0569 24.1989 25.3069 23.6903C25.5569 23.179 25.9092 22.7798 26.3637 22.4929C26.8182 22.206 27.3538 22.0625 27.9702 22.0625C28.4674 22.0625 28.9106 22.1548 29.2998 22.3395C29.689 22.5213 30.0029 22.777 30.2415 23.1065C30.483 23.4361 30.6265 23.821 30.6719 24.2614H29.4319C29.3637 23.9545 29.2075 23.6903 28.9631 23.4688C28.7217 23.2472 28.3978 23.1364 27.9915 23.1364C27.6364 23.1364 27.3254 23.2301 27.0583 23.4176C26.7941 23.6023 26.5881 23.8665 26.4404 24.2102C26.2927 24.5511 26.2188 24.9545 26.2188 25.4205C26.2188 25.8977 26.2913 26.3097 26.4361 26.6562C26.581 27.0028 26.7856 27.2713 27.0498 27.4616C27.3168 27.652 27.6307 27.7472 27.9915 27.7472C28.233 27.7472 28.4518 27.7031 28.6478 27.6151C28.8467 27.5241 29.0129 27.3949 29.1464 27.2273C29.2827 27.0597 29.3779 26.858 29.4319 26.6222H30.6719C30.6265 27.0455 30.4887 27.4233 30.2586 27.7557C30.0285 28.0881 29.7202 28.3494 29.3339 28.5398C28.9504 28.7301 28.5001 28.8253 27.983 28.8253Z" fill="white"/>
<path d="M22.4776 28.6932V22.1477H23.7518V28.6932H22.4776ZM23.1211 21.1378C22.8995 21.1378 22.7091 21.0639 22.55 20.9162C22.3938 20.7656 22.3157 20.5866 22.3157 20.3792C22.3157 20.169 22.3938 19.99 22.55 19.8423C22.7091 19.6917 22.8995 19.6165 23.1211 19.6165C23.3427 19.6165 23.5316 19.6917 23.6878 19.8423C23.8469 19.99 23.9265 20.169 23.9265 20.3792C23.9265 20.5866 23.8469 20.7656 23.6878 20.9162C23.5316 21.0639 23.3427 21.1378 23.1211 21.1378Z" fill="white"/>
<path d="M21.403 22.1475V23.1703H17.7041V22.1475H21.403ZM18.7183 28.693V21.389C18.7183 20.9799 18.8078 20.6404 18.9868 20.3706C19.1657 20.0978 19.403 19.8947 19.6984 19.7612C19.9939 19.6248 20.3149 19.5566 20.6615 19.5566C20.9172 19.5566 21.1359 19.5779 21.3177 19.6206C21.4996 19.6603 21.6345 19.6973 21.7226 19.7314L21.4243 20.7626C21.3646 20.7456 21.2879 20.7257 21.1942 20.7029C21.1004 20.6774 20.9868 20.6646 20.8532 20.6646C20.5436 20.6646 20.322 20.7413 20.1885 20.8947C20.0578 21.0481 19.9925 21.2697 19.9925 21.5595V28.693H18.7183Z" fill="white"/>
<path d="M14.0546 28.8253C13.4409 28.8253 12.9054 28.6847 12.448 28.4034C11.9906 28.1222 11.6355 27.7287 11.3827 27.223C11.1298 26.7173 11.0034 26.1264 11.0034 25.4503C11.0034 24.7713 11.1298 24.1776 11.3827 23.669C11.6355 23.1605 11.9906 22.7656 12.448 22.4844C12.9054 22.2031 13.4409 22.0625 14.0546 22.0625C14.6682 22.0625 15.2037 22.2031 15.6611 22.4844C16.1185 22.7656 16.4736 23.1605 16.7264 23.669C16.9793 24.1776 17.1057 24.7713 17.1057 25.4503C17.1057 26.1264 16.9793 26.7173 16.7264 27.223C16.4736 27.7287 16.1185 28.1222 15.6611 28.4034C15.2037 28.6847 14.6682 28.8253 14.0546 28.8253ZM14.0588 27.7557C14.4565 27.7557 14.7861 27.6506 15.0475 27.4403C15.3088 27.2301 15.502 26.9503 15.627 26.6009C15.7548 26.2514 15.8188 25.8665 15.8188 25.446C15.8188 25.0284 15.7548 24.6449 15.627 24.2955C15.502 23.9432 15.3088 23.6605 15.0475 23.4474C14.7861 23.2344 14.4565 23.1278 14.0588 23.1278C13.6582 23.1278 13.3259 23.2344 13.0617 23.4474C12.8003 23.6605 12.6057 23.9432 12.4778 24.2955C12.3528 24.6449 12.2903 25.0284 12.2903 25.446C12.2903 25.8665 12.3528 26.2514 12.4778 26.6009C12.6057 26.9503 12.8003 27.2301 13.0617 27.4403C13.3259 27.6506 13.6582 27.7557 14.0588 27.7557Z" fill="white"/>
<path d="M7.16626 28.693V22.1476H8.39779V23.1873H8.46598C8.58529 22.8351 8.79552 22.5581 9.09666 22.3564C9.40064 22.1518 9.74439 22.0496 10.1279 22.0496C10.2075 22.0496 10.3012 22.0524 10.4092 22.0581C10.52 22.0638 10.6066 22.0709 10.6691 22.0794V23.2981C10.618 23.2839 10.5271 23.2683 10.3964 23.2513C10.2657 23.2314 10.135 23.2214 10.0043 23.2214C9.70319 23.2214 9.43473 23.2854 9.19893 23.4132C8.96598 23.5382 8.78132 23.7129 8.64495 23.9373C8.50859 24.1589 8.44041 24.4118 8.44041 24.6959V28.693H7.16626Z" fill="white"/>
<path d="M0 31.1477V22.1477H1.24432V23.2088H1.35085C1.42472 23.0724 1.53125 22.9148 1.67045 22.7358C1.80966 22.5568 2.00284 22.4006 2.25 22.267C2.49716 22.1307 2.82386 22.0625 3.23011 22.0625C3.75852 22.0625 4.23011 22.196 4.64489 22.4631C5.05966 22.7301 5.38494 23.1151 5.62074 23.6179C5.85938 24.1207 5.97869 24.7259 5.97869 25.4332C5.97869 26.1406 5.8608 26.7472 5.625 27.2528C5.3892 27.7557 5.06534 28.1435 4.65341 28.4162C4.24148 28.6861 3.77131 28.821 3.2429 28.821C2.84517 28.821 2.51989 28.7543 2.26705 28.6207C2.01705 28.4872 1.82102 28.331 1.67898 28.152C1.53693 27.973 1.42756 27.8139 1.35085 27.6747H1.27415V31.1477H0ZM1.24858 25.4205C1.24858 25.8807 1.31534 26.2841 1.44886 26.6307C1.58239 26.9773 1.77557 27.2486 2.02841 27.4446C2.28125 27.6378 2.59091 27.7344 2.95739 27.7344C3.33807 27.7344 3.65625 27.6335 3.91193 27.4318C4.16761 27.2273 4.3608 26.9503 4.49148 26.6009C4.625 26.2514 4.69176 25.858 4.69176 25.4205C4.69176 24.9886 4.62642 24.6009 4.49574 24.2571C4.3679 23.9134 4.17472 23.642 3.91619 23.4432C3.66051 23.2443 3.34091 23.1449 2.95739 23.1449C2.58807 23.1449 2.27557 23.2401 2.01989 23.4304C1.76705 23.6207 1.57528 23.8864 1.4446 24.2273C1.31392 24.5682 1.24858 24.9659 1.24858 25.4205Z" fill="white"/>
<path d="M57.1436 29.6931V30.6931H2.14355V29.6931H57.1436Z" fill="white"/>
</svg>
