<svg width="62" height="34" viewBox="0 0 62 34" fill="none" xmlns="http://www.w3.org/2000/svg">
<path d="M37.0809 1.00024C37.2813 1.00104 37.2813 1.00104 37.4859 1.00186C37.631 1.00211 37.7762 1.00236 37.9258 1.00262C38.1542 1.005 38.1542 1.005 38.3871 1.00743C38.6155 1.00756 38.6155 1.00756 38.8485 1.00769C39.9818 1.01356 39.9818 1.01356 40.2794 1.16145C40.2794 2.35989 40.2794 3.55833 40.2794 4.79309C40.5395 4.78373 40.7995 4.77437 41.0675 4.76472C43.2767 4.68899 45.4863 4.64411 47.6968 4.63328C47.9662 4.63174 48.2356 4.62952 48.5051 4.62663C48.8855 4.62276 49.2659 4.62145 49.6464 4.62083C49.7605 4.61924 49.8746 4.61764 49.9922 4.616C50.7682 4.61882 50.7682 4.61882 51.1821 4.84461C51.4185 5.10353 51.4388 5.23323 51.429 5.57941C51.4102 5.74794 51.3913 5.91647 51.3719 6.09011C50.8828 6.41417 50.4628 6.41628 49.8936 6.45084C49.7833 6.4584 49.6729 6.46597 49.5593 6.47377C49.1957 6.49834 48.832 6.52121 48.4683 6.54406C48.2169 6.56078 47.9655 6.57758 47.7141 6.59444C46.4345 6.67883 45.1547 6.7519 43.8738 6.81208C43.6972 6.82048 43.6972 6.82048 43.5171 6.82905C42.954 6.85558 42.3909 6.88048 41.8277 6.90277C41.6254 6.91169 41.4232 6.92064 41.2209 6.92962C41.0827 6.93427 41.0827 6.93427 40.9416 6.93901C40.4223 6.95211 40.4223 6.95211 40.0184 7.25742C39.9119 7.70604 39.8796 8.16946 39.8308 8.62739C39.8145 8.77667 39.7982 8.92596 39.7814 9.07976C39.6158 10.7011 39.5147 12.3268 39.4148 13.9533C39.4067 14.0852 39.3985 14.2172 39.3902 14.3532C39.2094 17.3194 39.0775 20.285 39.0664 23.257C39.0649 23.5344 39.0622 23.8118 39.0583 24.0892C38.9443 28.5066 38.9443 28.5066 40.6709 32.4195C41.0448 32.5711 41.0448 32.5711 41.4539 32.4195C43.1801 31.1451 43.918 28.2837 44.5941 26.3722C44.6849 26.1192 44.7759 25.8662 44.867 25.6133C45.1236 24.8997 45.3772 24.1851 45.6299 23.4701C45.6953 23.2856 45.7607 23.1012 45.8261 22.9167C46.1124 22.108 46.3957 21.2984 46.6739 20.487C47.6895 20.3197 47.6895 20.3197 48.2399 20.6167C48.326 20.7023 48.4122 20.7879 48.5009 20.8761C48.4579 21.7796 48.1404 22.6723 47.8647 23.5273C47.7344 23.9371 47.6132 24.3479 47.4949 24.7611C46.9541 26.638 46.3321 28.4682 45.4994 30.2389C45.4484 30.3489 45.3974 30.459 45.3448 30.5724C44.6866 31.9304 43.7862 33.1328 42.3348 33.6922C40.9883 34.1159 39.6469 34.1225 38.3219 33.5868C36.609 32.6663 35.9633 30.6772 35.4346 28.9338C34.877 27.0409 34.5364 25.1639 34.2764 23.2107C34.2222 23.2945 34.168 23.3782 34.1122 23.4645C33.3282 24.6561 32.4822 25.7984 31.6245 26.9382C31.4268 27.2028 31.2323 27.4694 31.0388 27.7371C30.4288 28.5708 29.8495 29.2084 28.9259 29.6958C28.7913 29.7733 28.6567 29.8509 28.518 29.9308C27.3408 30.4141 25.7025 30.4077 24.5052 30.0038C22.3737 29.1049 21.2229 27.3693 20.3726 25.3022C18.9782 21.7025 19.1635 17.5086 20.7221 13.9847C21.6553 11.9798 22.9296 10.3556 25.0108 9.46234C26.1364 9.19636 27.2085 9.18623 28.231 9.76228C29.2045 10.4647 29.8952 11.3903 30.1004 12.5752C30.3028 14.4262 29.6849 16.311 28.5343 17.7632C28.4627 17.8559 28.391 17.9485 28.3172 18.0439C27.4294 19.0506 26.1064 19.5447 24.889 20.0548C24.512 20.1886 24.512 20.1886 24.3583 20.3573C24.3135 21.7395 24.4814 23.0708 24.7825 24.4185C24.8113 24.5481 24.8402 24.6777 24.8699 24.8112C25.2801 26.8678 25.2801 26.8678 26.4463 28.5284C26.886 28.6934 27.1558 28.7481 27.5954 28.5543C29.016 27.6081 30.0892 25.9463 31.1036 24.6045C31.2878 24.3609 31.473 24.1179 31.6582 23.8749C31.7915 23.6995 31.9247 23.524 32.0579 23.3485C32.1166 23.2713 32.1753 23.1941 32.2358 23.1145C32.3624 22.9468 32.4862 22.7771 32.6079 22.6058C32.8409 22.3028 32.8409 22.3028 33.1761 21.9607C34.4245 20.6094 34.311 19.1096 34.2777 17.3566C34.2617 16.5135 34.2663 15.6704 34.2677 14.8272C34.2674 14.6635 34.267 14.4997 34.2666 14.331C34.2666 12.6862 34.4084 11.086 34.6225 9.45595C34.704 8.7683 34.7506 8.07778 34.7984 7.38712C34.6937 7.38523 34.589 7.38334 34.4811 7.38139C34.0077 7.37174 33.5344 7.3592 33.0611 7.34659C32.8963 7.34366 32.7315 7.34074 32.5618 7.33772C32.4041 7.33312 32.2463 7.32853 32.0839 7.32379C31.9383 7.32039 31.7927 7.317 31.6428 7.3135C31.2749 7.25742 31.2749 7.25742 31.0316 7.08304C30.7994 6.74664 30.8336 6.48593 30.8834 6.09011C31.1573 5.73984 31.3737 5.64508 31.8096 5.58245C31.9136 5.56683 32.0177 5.55122 32.1249 5.53514C32.2347 5.52032 32.3444 5.5055 32.4575 5.49024C32.5691 5.47358 32.6808 5.45692 32.7957 5.43976C33.4705 5.34146 34.14 5.26749 34.8228 5.26022C35.0885 5.19671 35.0885 5.19671 35.2719 4.91114C35.4765 4.47965 35.5911 4.06509 35.7037 3.60146C36.3442 1.07166 36.3442 1.07166 37.0809 1.00024Z" fill="white"/>
<path d="M53.2208 7.01208C53.3519 7.01152 53.4831 7.01096 53.6182 7.01038C53.8938 7.00963 54.1693 7.00956 54.4449 7.01013C54.8668 7.01055 55.2887 7.00746 55.7107 7.00415C55.9791 7.00386 56.2475 7.00376 56.5159 7.0039C56.6419 7.00269 56.7679 7.00149 56.8978 7.00024C57.0151 7.00106 57.1325 7.00188 57.2534 7.00272C57.3563 7.00263 57.4591 7.00255 57.5651 7.00247C57.9262 7.06484 58.1004 7.18486 58.3619 7.44426C58.4581 7.92707 58.4581 7.92707 58.4902 8.36079C58.0405 8.78836 57.6689 8.81836 57.0661 8.85946C56.8877 8.87366 56.7093 8.8879 56.531 8.90216C56.2509 8.92246 55.9708 8.94193 55.6906 8.96063C55.4193 8.97936 55.1484 9.00109 54.8774 9.02312C54.7154 9.03434 54.5534 9.04555 54.3865 9.0571C53.9922 9.10027 53.9922 9.10027 53.8514 9.37927C53.7411 9.6776 53.7046 9.90568 53.6912 10.2231C53.6861 10.3312 53.681 10.4393 53.6757 10.5507C53.6693 10.7252 53.6693 10.7252 53.6627 10.9032C53.6574 11.0251 53.6521 11.1469 53.6466 11.2725C53.6355 11.5312 53.625 11.79 53.6149 12.0487C53.5999 12.437 53.5831 12.8251 53.566 13.2132C53.5031 14.6953 53.472 16.1736 53.4873 17.657C53.9107 17.5572 54.2957 17.4047 54.6972 17.235C55.9921 16.6986 57.1509 16.4792 58.4962 17.0151C59.837 17.6474 60.5551 18.7687 61.0558 20.1447C61.8507 22.4667 61.2608 25.0058 60.4144 27.2151C60.3788 27.3086 60.3432 27.4021 60.3065 27.4985C59.6351 29.1908 58.4626 30.6322 56.8226 31.4049C55.6592 31.8635 54.6006 32.0109 53.3591 31.9941C53.2093 31.9961 53.0594 31.9982 52.9051 32.0002C51.4182 31.9935 49.7645 31.6534 48.6128 30.6193C48.5005 30.2265 48.5005 30.2265 48.6128 29.8337C48.8393 29.433 49.0625 29.1128 49.3824 28.7863C50.0994 28.8284 50.7559 29.2686 51.3818 29.5987C52.061 29.941 52.6086 30.0914 53.3696 29.8961C55.3583 28.8972 56.506 26.6444 57.2074 24.5964C57.7242 22.7598 58.3467 20.5106 57.464 18.7045C57.1688 18.4032 57.0896 18.3914 56.6863 18.3689C55.8853 18.3949 55.4613 18.8156 54.8984 19.3591C54.8321 19.423 54.7658 19.4869 54.6975 19.5527C53.9383 20.2905 53.1944 21.0307 52.5959 21.9138C52.4611 22.1087 52.4611 22.1087 52.2046 22.3706C51.9245 22.3924 51.9245 22.3924 51.5802 22.3767C51.456 22.3711 51.3318 22.3656 51.2039 22.3598C51.0738 22.3526 50.9436 22.3453 50.8095 22.3378C50.6804 22.3326 50.5512 22.3274 50.4182 22.322C49.2582 22.2638 49.2582 22.2638 48.8693 21.9778C48.3499 20.8312 48.4288 19.4821 48.4444 18.2462C48.4458 18.0435 48.4471 17.8407 48.4485 17.638C48.466 15.8052 48.5607 13.9819 48.741 12.1578C48.7541 12.0251 48.7672 11.8923 48.7806 11.7556C49.1082 8.61267 49.1082 8.61267 50.2563 7.64066C51.1216 6.99288 52.1947 7.0111 53.2208 7.01208Z" fill="white"/>
<path d="M3.96576 0.457909C4.85521 0.0734685 6.0252 -0.108134 6.98627 0.0663075C7.77006 1.23371 7.39474 3.35632 7.38861 4.7206C7.38795 4.97796 7.3872 5.23571 7.38666 5.49307C7.38522 6.11867 7.38254 6.74442 7.37982 7.37002C7.80996 6.95226 8.14676 6.57528 8.44721 6.05752C9.53888 4.32174 11.1357 2.73784 13.1591 2.15322C13.2331 2.12985 13.3075 2.10601 13.3837 2.08193C14.8433 1.79308 16.2879 1.94462 17.541 2.74111C18.6998 3.57001 19.4263 4.59023 19.8583 5.93545C19.8879 6.02144 19.9177 6.1076 19.9482 6.19619C20.7436 8.98529 19.8756 12.2617 18.5038 14.7226C17.9917 15.6064 17.3985 16.3967 16.706 17.1513C16.5834 17.2866 16.583 17.2867 16.4579 17.4247C14.242 19.745 11.1976 21.1301 8.04096 21.6474C7.74728 21.6987 7.74658 21.6991 7.51166 21.9765C7.48687 22.3221 7.47814 22.6543 7.48139 22.9999C7.4814 23.1035 7.48137 23.2076 7.48139 23.3144C7.48188 23.6537 7.48462 23.9936 7.48725 24.3329C7.48814 24.5663 7.48839 24.7997 7.4892 25.0331C7.49615 26.4311 7.52991 27.8269 7.59564 29.2235C7.63696 30.1093 7.66179 30.994 7.66791 31.8808C7.6696 31.9967 7.67105 32.1128 7.67279 32.2323C7.67323 32.5092 7.65893 32.786 7.64252 33.0624C6.9559 33.744 5.63184 33.6178 4.72553 33.6317C4.35981 33.5844 4.35915 33.5845 4.14838 33.4433C3.87588 33.0714 3.87108 32.7321 3.82221 32.2772C3.81205 32.1855 3.80142 32.0934 3.79096 31.9989C3.75899 31.7016 3.73091 31.4041 3.70307 31.1063C3.69389 31.0088 3.6842 30.911 3.67475 30.8104C3.60919 30.0971 3.5521 29.383 3.49701 28.6688C3.48847 28.5606 3.48042 28.4522 3.47162 28.3407C3.37262 27.0867 3.28445 25.8341 3.23432 24.577C3.22058 24.2775 3.20682 23.978 3.19135 23.6786C3.18217 23.501 3.17345 23.3231 3.16596 23.1454C3.1407 22.6444 3.10354 22.1834 2.91498 21.7157C2.55806 21.3978 2.19311 21.3019 1.73236 21.1942C1.47259 21.1236 1.21284 21.0529 0.953066 20.9823C0.832686 20.9537 0.71186 20.9249 0.587832 20.8954C0.287775 20.8027 0.287994 20.8027 0.0253318 20.5419C-0.00746979 20.0859 -0.00746495 20.0857 0.0253318 19.6298C0.288021 19.3689 0.287835 19.3683 0.554629 19.3622C0.71498 19.3814 0.715151 19.3817 0.878847 19.4013C0.982928 19.4127 1.08705 19.4237 1.19428 19.4354C1.55982 19.4923 1.92053 19.561 2.28314 19.6337C2.40138 19.6573 2.51972 19.6806 2.64154 19.705C2.77666 19.7321 2.77711 19.732 2.91498 19.7597C2.9144 19.6034 2.91363 19.4471 2.91303 19.286C2.90766 17.7977 2.90387 16.3086 2.90131 14.8202C2.89995 14.0556 2.89748 13.2909 2.89447 12.5263C2.89158 11.7855 2.89026 11.0444 2.88959 10.3036C2.88911 10.0238 2.8881 9.74363 2.88666 9.46377C2.87754 7.61118 2.9652 5.78746 3.1435 3.94326C3.20795 3.25986 3.26571 2.57529 3.31342 1.89053C3.37316 1.26201 3.49385 0.888723 3.96576 0.457909ZM14.0292 3.70205C13.3154 3.7358 13.3151 3.73636 11.8007 5.1874C8.88539 8.27094 7.31745 12.6456 7.33295 16.829C7.33631 17.1816 7.33922 17.534 7.33881 17.8866C7.33824 18.1219 7.33805 18.3574 7.33881 18.5927C7.33939 18.7065 7.3402 18.8172 7.34076 18.9276C7.34064 19.0369 7.34088 19.1429 7.34076 19.2489C7.34666 19.7091 7.30284 19.9436 7.64252 20.2812C8.5997 20.2453 9.51091 19.9686 10.4013 19.6298C13.0272 18.4315 14.6758 16.2506 15.7285 13.6249C16.6386 11.2091 16.7877 7.79912 15.7324 5.41201C15.3322 4.66438 14.8582 3.97644 14.0292 3.70205Z" fill="white"/>
</svg>
