<svg width="157" height="34" viewBox="0 0 157 34" fill="none" xmlns="http://www.w3.org/2000/svg">
<path d="M15.3868 2C15.5029 2.05122 15.5784 2.12261 15.6678 2.21415C15.6976 2.24459 15.7275 2.27504 15.7583 2.3064C15.7906 2.3397 15.8229 2.373 15.8551 2.40632C15.8883 2.44049 15.9216 2.47466 15.9548 2.50882C16.0243 2.58036 16.0936 2.65203 16.1629 2.72379C16.2518 2.81583 16.3412 2.90732 16.4308 2.99868C16.4995 3.06899 16.5679 3.13968 16.6362 3.21047C16.669 3.24438 16.7019 3.27815 16.735 3.31178C16.7812 3.35873 16.8267 3.40626 16.8723 3.45382C16.8984 3.48072 16.9245 3.50762 16.9513 3.53534C17.003 3.60958 17.003 3.60958 16.9977 3.68323C16.9656 3.75518 16.9315 3.79084 16.8729 3.84156C16.8527 3.85925 16.8326 3.87693 16.8119 3.89515C16.7903 3.91365 16.7687 3.93214 16.7465 3.9512C16.7018 3.99034 16.6572 4.0295 16.6126 4.06869C16.5908 4.08772 16.569 4.10674 16.5465 4.12634C16.4156 4.24132 16.2894 4.36172 16.1626 4.48144C16.1203 4.52066 16.1203 4.52066 16.0771 4.56068C15.8703 4.75411 15.6709 4.95446 15.4737 5.15838C15.4493 5.18347 15.425 5.20856 15.3999 5.23441C15.2488 5.39156 15.1051 5.55308 14.9666 5.72216C14.9488 5.74368 14.9311 5.76521 14.9128 5.7874C14.4818 6.31406 14.1046 6.86818 13.7705 7.46587C13.7578 7.48848 13.7451 7.51109 13.732 7.53439C13.369 8.18923 13.1089 8.90583 12.9624 9.64551C12.9538 9.68872 12.9451 9.73193 12.9362 9.77645C12.8598 10.1857 12.8487 10.5876 12.8513 11.0036C12.8514 11.0543 12.8514 11.0543 12.8515 11.1061C12.8536 11.6367 12.8837 12.1439 12.9947 12.6635C13.0001 12.6911 13.0054 12.7186 13.011 12.7471C13.286 14.1565 13.9571 15.5043 14.5526 16.7881C15.3115 18.4241 15.3115 18.4241 15.5807 19.1353C15.592 19.1643 15.6032 19.1934 15.6148 19.2233C16.317 21.043 16.3647 22.9219 15.7666 24.7793C15.7541 24.8181 15.7417 24.8568 15.7288 24.8967C15.6512 25.1335 15.5673 25.3658 15.4696 25.5946C15.459 25.6196 15.4483 25.6446 15.4373 25.6704C15.3632 25.8374 15.3632 25.8374 15.2898 25.8754C15.2827 25.8507 15.2756 25.8259 15.2683 25.8004C15.1421 25.3815 14.9752 25.0142 14.6193 24.7617C14.5787 24.7018 14.5787 24.7018 14.5837 24.5931C14.6111 24.4667 14.6468 24.3483 14.6877 24.226C14.9135 23.5038 14.9755 22.6526 14.7726 21.9186C14.7665 21.8958 14.7604 21.8729 14.7542 21.8494C14.6003 21.2832 14.3559 20.7403 13.9645 20.309C13.936 20.2764 13.9076 20.2439 13.8782 20.2103C13.0225 19.2576 11.693 18.8315 10.5198 18.4814C9.53223 18.1852 8.56973 17.7858 7.95199 16.8886C7.94132 16.8665 7.93066 16.8444 7.91967 16.8216C7.90097 19.1069 8.14648 21.8222 9.60058 23.6623C9.61498 23.6809 9.62939 23.6996 9.64423 23.7188C10.1767 24.4063 10.871 24.9078 11.6876 25.165C11.7081 25.1715 11.7287 25.1781 11.7498 25.1848C12.0947 25.2862 12.4278 25.3104 12.784 25.299C12.8172 25.2981 12.8504 25.2971 12.8846 25.2962C13.023 25.2922 13.1613 25.2882 13.2996 25.2812C13.9458 25.2502 13.9458 25.2502 14.1376 25.4286C14.207 25.5056 14.2643 25.5862 14.3201 25.6743C14.3435 25.7106 14.3669 25.747 14.3911 25.7844C14.6282 26.1673 14.663 26.592 14.5982 27.0359C14.5762 27.112 14.5476 27.1788 14.514 27.2503C14.4879 27.31 14.4879 27.31 14.4613 27.3709C14.2329 27.8801 13.9202 28.292 13.5442 28.6922C13.5259 28.7119 13.5075 28.7317 13.4886 28.752C13.2777 28.9781 13.0647 29.1936 12.8264 29.3889C12.7214 29.4756 12.6198 29.5658 12.5179 29.6563C12.1284 30 12.1284 30 12.025 30C11.9784 29.9509 11.9784 29.9509 11.9241 29.883C11.8018 29.7338 11.6713 29.5959 11.5371 29.4582C11.5128 29.4332 11.4885 29.4082 11.4636 29.3824C11.3868 29.3031 11.3099 29.224 11.233 29.1449C11.1315 29.0406 11.0302 28.9361 10.9289 28.8316C10.9061 28.8081 10.8832 28.7847 10.8596 28.7605C10.7542 28.6517 10.6521 28.5418 10.5551 28.4249C10.4318 28.2766 10.2994 28.1392 10.1653 28.0016C10.1267 27.9619 10.1267 27.9619 10.0874 27.9213C10.006 27.8373 9.92453 27.7533 9.84301 27.6695C9.7355 27.5588 9.62811 27.4481 9.52077 27.3373C9.49649 27.3124 9.4722 27.2874 9.44719 27.2618C9.31794 27.1283 9.19548 26.9916 9.07646 26.8483C8.97047 26.7245 8.8564 26.6091 8.74295 26.4927C8.70441 26.4529 8.70441 26.4529 8.6651 26.4123C8.58371 26.3283 8.50222 26.2444 8.42071 26.1605C8.3132 26.0498 8.2058 25.9391 8.09847 25.8283C8.07418 25.8034 8.0499 25.7785 8.02488 25.7528C7.89563 25.6193 7.77317 25.4826 7.65416 25.3393C7.54816 25.2155 7.43409 25.1001 7.32064 24.9837C7.29495 24.9572 7.26926 24.9306 7.24279 24.9033C7.16141 24.8193 7.07992 24.7354 6.9984 24.6515C6.89089 24.5409 6.78349 24.4301 6.67616 24.3193C6.65187 24.2944 6.62759 24.2695 6.60257 24.2438C6.47318 24.1102 6.35056 23.9733 6.23141 23.8299C6.12781 23.7088 6.01636 23.5958 5.9054 23.482C5.88043 23.4563 5.85546 23.4305 5.82973 23.4039C5.75065 23.3223 5.67147 23.2408 5.59225 23.1593C5.48778 23.0518 5.38341 22.9442 5.2791 22.8365C5.24374 22.8003 5.24374 22.8003 5.20766 22.7633C5.10046 22.6526 4.99645 22.5409 4.89771 22.422C4.77462 22.2739 4.64233 22.1367 4.50835 21.9993C4.48266 21.9727 4.45697 21.9462 4.4305 21.9189C4.34912 21.8349 4.26763 21.7509 4.18611 21.6671C4.0786 21.5564 3.9712 21.4457 3.86387 21.3349C3.83958 21.31 3.8153 21.2851 3.79028 21.2594C3.66103 21.1259 3.53857 20.9892 3.41956 20.8459C3.31356 20.7221 3.19949 20.6067 3.08604 20.4903C3.04751 20.4505 3.04751 20.4505 3.00819 20.4099C2.92681 20.3259 2.84532 20.242 2.7638 20.1581C2.65629 20.0475 2.54889 19.9367 2.44156 19.8259C2.41728 19.801 2.39299 19.7761 2.36797 19.7504C2.23872 19.6169 2.11627 19.4802 1.99725 19.3369C1.89126 19.2131 1.77718 19.0977 1.66374 18.9813C1.63805 18.9548 1.61236 18.9282 1.58589 18.9009C1.5045 18.8169 1.42301 18.733 1.34149 18.6491C1.23398 18.5385 1.12659 18.4277 1.01925 18.3169C0.994969 18.292 0.970685 18.2671 0.945665 18.2414C0.813638 18.1051 0.687901 17.9655 0.566333 17.8191C0.507441 17.7488 0.445665 17.6824 0.381967 17.6169C0.359362 17.5936 0.336756 17.5702 0.313466 17.5462C0.279307 17.5112 0.279307 17.5112 0.244459 17.4754C0.220812 17.4511 0.197165 17.4267 0.172801 17.4016C0.115275 17.3423 0.0576743 17.2831 0 17.224C0.114322 16.9729 0.34386 16.7966 0.544225 16.6185C0.63001 16.5385 0.710992 16.454 0.791967 16.3689C0.890667 16.2651 0.989901 16.1637 1.09704 16.0692C1.21144 15.968 1.31676 15.8593 1.42231 15.7485C1.54611 15.6185 1.67187 15.4949 1.80617 15.3765C1.91522 15.275 2.01683 15.166 2.11975 15.0579C2.22739 14.9454 2.33838 14.8399 2.45482 14.7371C2.53963 14.6585 2.61931 14.575 2.69915 14.491C2.79785 14.3872 2.89709 14.2858 3.00422 14.1913C3.11863 14.0902 3.22395 13.9815 3.32949 13.8707C3.45329 13.7406 3.57906 13.6171 3.71335 13.4987C3.8224 13.3972 3.92402 13.2881 4.02694 13.18C4.13458 13.0675 4.24557 12.962 4.362 12.8593C4.44681 12.7807 4.52649 12.6971 4.60634 12.6132C4.70504 12.5094 4.80427 12.408 4.91141 12.3135C5.02581 12.2123 5.13113 12.1037 5.23668 11.9928C5.36048 11.8628 5.48624 11.7392 5.62054 11.6208C5.71166 11.536 5.79718 11.446 5.88318 11.3557C6.00698 11.2257 6.13275 11.1021 6.26704 10.9837C6.37609 10.8822 6.47771 10.7732 6.58063 10.6651C6.68827 10.5526 6.79925 10.447 6.91569 10.3443C7.0005 10.2657 7.08018 10.1822 7.16003 10.0982C7.25873 9.99442 7.35796 9.893 7.46509 9.7985C7.5795 9.69737 7.68482 9.58869 7.79037 9.47784C7.91417 9.34783 8.03993 9.22425 8.17423 9.10584C8.28328 9.00436 8.38489 8.89531 8.48781 8.78722C8.59545 8.67471 8.70644 8.56919 8.82288 8.46649C8.90769 8.38786 8.98736 8.30432 9.06721 8.22036C9.16591 8.11658 9.26515 8.01516 9.37228 7.92066C9.48669 7.81952 9.59201 7.71084 9.69755 7.6C9.82135 7.46998 9.94712 7.34641 10.0814 7.22799C10.1905 7.12651 10.2921 7.01746 10.395 6.90937C10.5026 6.79687 10.6136 6.69135 10.7301 6.58864C10.8149 6.51001 10.8945 6.42647 10.9744 6.34251C11.0731 6.23873 11.1723 6.13732 11.2795 6.04281C11.3939 5.94168 11.4992 5.833 11.6047 5.72216C11.7285 5.59214 11.8543 5.46856 11.9886 5.35015C12.0976 5.24867 12.1993 5.13962 12.3022 5.03153C12.4098 4.91902 12.5208 4.81351 12.6372 4.7108C12.7221 4.63217 12.8017 4.54863 12.8816 4.46467C12.9803 4.36089 13.0795 4.25947 13.1866 4.16497C13.3011 4.06383 13.4064 3.95516 13.5119 3.84431C13.6357 3.71429 13.7615 3.59072 13.8958 3.47231C14.0048 3.37083 14.1064 3.26177 14.2094 3.15369C14.317 3.04118 14.428 2.93566 14.5444 2.83295C14.6455 2.73928 14.7396 2.63856 14.8347 2.53853C14.9421 2.42616 15.0534 2.32082 15.1693 2.2181C15.2458 2.14905 15.3163 2.07544 15.3868 2Z" fill="white"/>
<path d="M17.8128 4C17.9032 4.04273 17.9691 4.08723 18.0391 4.16002C18.0576 4.17906 18.0761 4.1981 18.0951 4.21771C18.115 4.23853 18.1349 4.25936 18.1554 4.28081C18.1767 4.3028 18.1979 4.32479 18.2198 4.34745C18.2901 4.42023 18.3601 4.49325 18.4301 4.56628C18.479 4.61706 18.5279 4.66784 18.5768 4.7186C18.6795 4.82514 18.782 4.93178 18.8844 5.03852C19.0152 5.17482 19.1462 5.3109 19.2773 5.44691C19.3784 5.55184 19.4795 5.65687 19.5805 5.76192C19.6287 5.81209 19.677 5.86223 19.7253 5.91236C19.793 5.98278 19.8607 6.05331 19.9284 6.12388C19.9481 6.1443 19.9678 6.16472 19.9881 6.18576C20.0847 6.28672 20.1776 6.3895 20.2673 6.49714C20.3757 6.62716 20.4902 6.74923 20.6078 6.87027C20.6294 6.89261 20.6509 6.91495 20.6732 6.93798C20.7196 6.98601 20.766 7.034 20.8125 7.08196C20.8863 7.15806 20.9599 7.23426 21.0335 7.31049C21.1898 7.4723 21.3462 7.63398 21.5027 7.79564C21.6841 7.98311 21.8655 8.17064 22.0467 8.35832C22.1189 8.43304 22.1912 8.50766 22.2635 8.58227C22.3082 8.62851 22.3529 8.67476 22.3976 8.72101C22.4273 8.75163 22.4273 8.75163 22.4577 8.78288C22.5752 8.90482 22.6855 9.03121 22.7942 9.16164C22.8848 9.26782 22.9814 9.36745 23.0784 9.46728C23.1 9.48963 23.1215 9.51197 23.1438 9.53499C23.1902 9.58302 23.2366 9.63102 23.2831 9.67897C23.3568 9.75507 23.4305 9.83128 23.5041 9.90751C23.6604 10.0693 23.8168 10.231 23.9733 10.3927C24.1547 10.5801 24.3361 10.7677 24.5173 10.9553C24.5895 11.0301 24.6618 11.1047 24.7341 11.1793C24.7788 11.2255 24.8235 11.2718 24.8681 11.318C24.8979 11.3486 24.8979 11.3486 24.9283 11.3799C25.0458 11.5018 25.1561 11.6282 25.2648 11.7587C25.3554 11.8648 25.4519 11.9645 25.549 12.0643C25.5705 12.0866 25.5921 12.109 25.6144 12.132C25.6608 12.18 25.7072 12.228 25.7537 12.276C25.8274 12.3521 25.9011 12.4283 25.9747 12.5045C26.131 12.6663 26.2874 12.828 26.4438 12.9897C26.6253 13.1771 26.8066 13.3647 26.9879 13.5523C27.0601 13.6271 27.1324 13.7017 27.2047 13.7763C27.2494 13.8225 27.2941 13.8688 27.3387 13.915C27.3586 13.9355 27.3784 13.9559 27.3989 13.9769C27.5164 14.0988 27.6267 14.2252 27.7354 14.3557C27.826 14.4618 27.9225 14.5615 28.0196 14.6613C28.0411 14.6837 28.0627 14.706 28.0849 14.729C28.1313 14.7771 28.1778 14.825 28.2243 14.873C28.298 14.9491 28.3717 15.0253 28.4453 15.1015C28.6016 15.2633 28.758 15.425 28.9144 15.5867C29.0959 15.7742 29.2772 15.9617 29.4585 16.1494C29.5307 16.2241 29.603 16.2987 29.6753 16.3733C29.72 16.4196 29.7647 16.4658 29.8093 16.512C29.8292 16.5325 29.849 16.5529 29.8694 16.5739C29.9888 16.6978 30.1018 16.8258 30.2118 16.9587C30.2862 17.0471 30.3652 17.1292 30.4454 17.2119C30.4615 17.2285 30.4775 17.2451 30.4941 17.2623C30.5443 17.3142 30.5947 17.3661 30.6451 17.4179C30.6796 17.4536 30.7141 17.4893 30.7486 17.5249C30.8323 17.6114 30.9161 17.6978 31 17.7842C30.7948 18.0377 30.5757 18.2791 30.3322 18.4938C30.2058 18.6055 30.09 18.7272 29.9733 18.8496C29.8396 18.9898 29.7053 19.125 29.56 19.2524C29.4446 19.3598 29.3372 19.4758 29.2281 19.5902C29.1185 19.7047 29.0061 19.8127 28.8874 19.9171C28.791 20.0069 28.7007 20.1025 28.6096 20.198C28.4817 20.3323 28.3525 20.4609 28.2136 20.583C28.1172 20.6728 28.0269 20.7684 27.9358 20.8639C27.8079 20.9982 27.6787 21.1268 27.5398 21.2489C27.4434 21.3387 27.3531 21.4343 27.262 21.5298C27.1341 21.6641 27.0049 21.7927 26.866 21.9148C26.7696 22.0046 26.6793 22.1002 26.5882 22.1958C26.4603 22.33 26.3311 22.4586 26.1922 22.5807C26.0958 22.6705 26.0055 22.7661 25.9144 22.8617C25.7865 22.9959 25.6573 23.1245 25.5184 23.2466C25.422 23.3365 25.3317 23.432 25.2406 23.5276C25.1127 23.6618 24.9835 23.7904 24.8446 23.9125C24.7483 24.0024 24.6579 24.0979 24.5668 24.1935C24.4389 24.3277 24.3097 24.4563 24.1708 24.5784C24.0745 24.6683 23.9841 24.7638 23.893 24.8594C23.7651 24.9936 23.6359 25.1222 23.497 25.2443C23.4007 25.3342 23.3103 25.4297 23.2193 25.5253C23.0913 25.6595 22.9621 25.7881 22.8232 25.9102C22.7269 26.0001 22.6365 26.0956 22.5455 26.1912C22.4175 26.3254 22.2883 26.454 22.1494 26.5761C22.0531 26.666 21.9627 26.7615 21.8717 26.8571C21.7437 26.9913 21.6145 27.1199 21.4756 27.242C21.3793 27.3319 21.2889 27.4274 21.1979 27.523C21.0699 27.6572 20.9407 27.7858 20.8018 27.9079C20.7055 27.9978 20.6151 28.0933 20.5241 28.1889C20.3961 28.3231 20.2669 28.4517 20.128 28.5738C20.0317 28.6637 19.9413 28.7592 19.8503 28.8548C19.7415 28.9689 19.6336 29.0819 19.5154 29.1856C19.3901 29.2958 19.2758 29.4163 19.1604 29.5373C19.0267 29.6775 18.8924 29.8127 18.7472 29.9401C18.6317 30.0476 18.5243 30.1635 18.4153 30.2779C18.3057 30.3925 18.1933 30.5004 18.0745 30.6048C17.9782 30.6947 17.8878 30.7902 17.7968 30.8858C17.6688 31.02 17.5396 31.1486 17.4007 31.2707C17.3044 31.3606 17.214 31.4561 17.123 31.5517C16.995 31.6859 16.8658 31.8145 16.7269 31.9366C16.6113 32.0445 16.5035 32.1606 16.3941 32.2754C16.2827 32.3918 16.1685 32.502 16.0478 32.6083C15.9134 32.7321 15.7889 32.867 15.6631 33C15.5603 32.954 15.5023 32.9034 15.4315 32.8139C15.3071 32.6615 15.1733 32.5214 15.0364 32.3809C15.0109 32.3546 14.9854 32.3282 14.9592 32.3011C14.8784 32.2177 14.7975 32.1344 14.7166 32.0511C14.6099 31.9412 14.5033 31.8313 14.3967 31.7213C14.3726 31.6965 14.3485 31.6718 14.3237 31.6463C14.1943 31.5127 14.0715 31.3758 13.9523 31.2323C13.8656 31.1302 13.7731 31.0346 13.6799 30.9388C13.6603 30.9185 13.6407 30.8982 13.6205 30.8773C13.5588 30.8134 13.497 30.7497 13.4352 30.686C13.3929 30.6423 13.3506 30.5986 13.3084 30.5549C13.2057 30.4487 13.1029 30.3426 13 30.2365C13.0792 30.1543 13.1402 30.14 13.2472 30.1058C13.3046 30.0869 13.3046 30.0869 13.3632 30.0677C13.3837 30.061 13.4042 30.0543 13.4254 30.0474C14.858 29.5759 16.2026 28.8359 17.3163 27.7811C17.3701 27.7302 17.4245 27.6799 17.4792 27.63C17.6227 27.4989 17.7579 27.367 17.8808 27.2149C17.9254 27.1596 17.9712 27.1054 18.0176 27.0518C18.6388 26.3282 19.0857 25.4569 19.385 24.5431C19.393 24.5193 19.401 24.4956 19.4092 24.4712C20.0272 22.6036 19.7412 20.3346 19.016 18.552C18.8387 18.1081 18.9013 17.7898 19.0642 17.3513C19.1718 17.1112 19.1718 17.1112 19.2962 17.0494C19.3917 17.016 19.4669 17.0094 19.5674 17.0081C19.6022 17.0073 19.637 17.0066 19.6729 17.0058C19.7096 17.0051 19.7463 17.0045 19.7841 17.0038C20.6298 16.978 21.3209 16.7211 21.9198 16.0861C22.3189 15.6468 22.5433 15.1215 22.7219 14.5545C22.7297 14.5299 22.7375 14.5053 22.7455 14.4799C23.0054 13.643 23.0531 12.8092 23.0468 11.9346C23.0465 11.8557 23.0462 11.7768 23.0459 11.6979C23.0452 11.5069 23.0441 11.316 23.0428 11.1251C23.012 11.1676 22.9813 11.2101 22.9505 11.2527C22.9334 11.2763 22.9163 11.3 22.8987 11.3244C22.8609 11.3768 22.8234 11.4294 22.786 11.4822C22.3863 11.9553 21.6768 12.1714 21.1096 12.3363C20.2093 12.601 19.4122 13.0365 18.9118 13.8845C18.5797 14.5017 18.4826 15.1815 18.6448 15.8713C18.692 16.0293 18.7481 16.1836 18.8109 16.3357C18.8674 16.4785 18.8839 16.5706 18.8396 16.7187C18.7859 16.8209 18.7859 16.8209 18.7193 16.9226C18.6976 16.9564 18.6759 16.9901 18.6536 17.0249C18.5838 17.1171 18.5134 17.1825 18.4225 17.2514C17.4005 15.3468 16.612 13.2109 16.2727 11.0586C16.2671 11.0228 16.2614 10.987 16.2555 10.9502C16.0458 9.58717 16.0913 8.15867 16.4652 6.83008C16.4743 6.79748 16.4834 6.76489 16.4928 6.7313C16.7736 5.74654 17.2298 4.82852 17.8128 4Z" fill="white"/>
<path d="M48.7066 2C49.7118 2 50.7169 2 51.7525 2C51.7525 2.29782 51.7525 2.59565 51.7525 2.9025C51.6408 2.95718 51.5292 3.01186 51.4141 3.06819C50.3952 3.60581 50.0035 4.8533 49.6655 5.89202C49.101 7.73194 48.8033 9.6895 48.5162 11.589C48.507 11.6494 48.507 11.6494 48.4975 11.711C48.2351 13.442 48.0953 15.1862 47.9767 16.9319C47.9592 17.1881 47.9412 17.4444 47.9233 17.7006C47.8925 18.1418 47.8621 18.5831 47.8319 19.0243C47.8113 19.3256 47.7903 19.6269 47.7689 19.9281C47.7635 20.0046 47.7581 20.0811 47.7527 20.1576C47.743 20.2962 47.7331 20.4347 47.7231 20.5733C47.7189 20.6339 47.7146 20.6944 47.7103 20.7568C47.7066 20.8086 47.7029 20.8605 47.6991 20.9139C47.6907 21.0774 47.69 21.24 47.6913 21.4037C47.7163 21.3612 47.7163 21.3612 47.7417 21.3179C48.1465 20.6313 48.5677 19.9589 49.0117 19.2971C49.1055 19.1573 49.1987 19.0172 49.2919 18.877C49.5785 18.4473 49.869 18.0212 50.1738 17.6042C50.1984 17.5706 50.2229 17.537 50.2482 17.5023C50.4677 17.2055 50.7112 16.9352 50.9628 16.6656C51.0231 16.5965 51.083 16.5272 51.1426 16.4576C51.3634 16.205 51.5883 15.9554 51.8224 15.7151C52.0109 15.5211 52.1784 15.3289 52.3325 15.1063C52.6551 14.6747 52.9575 14.4133 53.4991 14.3293C54.1173 14.2533 54.7403 14.2401 55.3625 14.2401C55.423 14.2401 55.4835 14.24 55.5459 14.24C55.7104 14.2399 55.8749 14.24 56.0394 14.2401C56.042 14.7703 56.044 15.3004 56.0452 15.8306C56.0458 16.0769 56.0466 16.3232 56.0479 16.5695C56.0582 18.5717 55.9256 20.3109 55.1933 22.1934C55.1704 22.2526 55.1475 22.3119 55.124 22.3729C54.3855 24.2672 53.1869 25.8594 51.8239 27.3539C51.7541 27.4313 51.6845 27.5091 51.6168 27.5885C51.3415 27.9098 51.0465 28.208 50.746 28.5056C50.666 28.5853 50.586 28.6649 50.5061 28.7446C50.339 28.911 50.1716 29.0771 50.0043 29.2432C49.866 29.3806 49.7278 29.518 49.5897 29.6555C49.4867 29.7581 49.3835 29.8606 49.2802 29.9629C49.0313 30.2109 48.7905 30.462 48.5624 30.7293C48.4485 30.861 48.3265 30.9834 48.2025 31.1056C48.1589 31.1486 48.1154 31.1917 48.0705 31.236C48.0384 31.2674 48.0064 31.2988 47.9733 31.3312C47.7767 31.2435 47.6727 31.1393 47.539 30.9692C47.4569 30.8656 47.4569 30.8656 47.3105 30.7319C47.1829 30.5972 47.161 30.5461 47.1272 30.3723C47.4043 30.1547 47.6835 29.9407 47.9663 29.7307C51.2515 27.2678 52.9373 23.5963 53.5575 19.5987C53.6003 19.2963 53.6235 19.001 53.6254 18.6953C53.6257 18.6538 53.626 18.6122 53.6264 18.5693C53.6269 18.4819 53.6273 18.3945 53.6275 18.3071C53.628 18.1756 53.6298 18.044 53.6316 17.9125C53.6359 17.295 53.5941 16.7041 53.2755 16.1579C52.5312 16.207 52.0131 16.8196 51.541 17.3526C50.6763 18.3561 49.9394 19.4728 49.2707 20.614C49.2474 20.6537 49.2241 20.6934 49.2 20.7343C48.2731 22.3267 47.4369 24.0687 47.183 25.9109C47.174 25.9753 47.165 26.0397 47.1558 26.1061C47.1394 26.2309 47.1248 26.3559 47.1121 26.4812C47.0919 26.6402 47.07 26.7812 47.0144 26.9315C46.8607 27.0346 46.7916 27.0625 46.6196 27.1007C46.5263 27.1305 46.4332 27.1607 46.3402 27.1913C46.2407 27.2213 46.1411 27.251 46.0414 27.2805C45.9655 27.3036 45.9655 27.3036 45.8881 27.3271C45.8395 27.3416 45.7909 27.3561 45.7409 27.3711C45.697 27.3842 45.6531 27.3973 45.608 27.4108C45.4914 27.4392 45.4914 27.4392 45.3222 27.4392C45.3166 27.0313 45.3311 26.6306 45.3676 26.2244C45.3773 26.1103 45.387 25.9961 45.3967 25.882C45.4018 25.8227 45.407 25.7634 45.4122 25.7023C45.4942 24.7438 45.5676 23.7855 45.6113 22.8244C45.6134 22.7775 45.6156 22.7305 45.6178 22.6821C45.6442 22.0904 45.6656 21.4986 45.6864 20.9066C45.8715 15.6701 46.545 10.6535 48.0243 4.56585C48.0541 4.44418 48.0839 4.3225 48.1137 4.20083C48.161 4.00741 48.2086 3.81407 48.2564 3.62076C48.2823 3.51595 48.308 3.41108 48.3337 3.30622C48.3497 3.24151 48.3658 3.1768 48.3824 3.11012C48.4028 3.02712 48.4028 3.02712 48.4238 2.94243C48.5103 2.62607 48.6101 2.31348 48.7066 2Z" fill="white"/>
<path d="M141.163 7.68235C141.317 7.78564 141.437 7.91279 141.565 8.04599C141.737 8.22304 141.908 8.39181 142.095 8.5521C142.376 8.79516 142.639 9.05615 142.901 9.31868C142.985 9.40264 143.07 9.48613 143.154 9.56962C143.51 9.9234 143.834 10.2923 144.146 10.6865C144.201 10.7538 144.256 10.821 144.311 10.8881C145.586 12.4736 146.526 14.3918 147.008 16.3659C147.02 16.4114 147.031 16.4568 147.042 16.5037C147.205 17.2009 147.266 17.8936 147.267 18.608C147.267 18.6834 147.268 18.7587 147.268 18.8341C147.269 18.9909 147.269 19.1477 147.269 19.3045C147.269 19.4622 147.27 19.6199 147.271 19.7776C147.281 20.7543 147.233 21.687 147.022 22.6446C147.005 22.7312 146.987 22.8179 146.969 22.9045C146.763 23.8834 146.211 24.9801 145.387 25.5777C145.106 25.7445 144.817 25.894 144.526 26.0431C144.364 26.1274 144.202 26.2121 144.04 26.2967C144 26.3173 143.96 26.338 143.919 26.3592C143.64 26.5047 143.365 26.6571 143.092 26.8138C142.186 27.3313 141.263 27.5462 140.221 27.3435C139.601 27.1375 139.151 26.6969 138.844 26.1312C138.701 25.8308 138.593 25.5246 138.495 25.2076C138.481 25.1654 138.468 25.1233 138.454 25.0798C138.201 24.2208 138.137 23.3449 138.146 22.4542C138.146 22.4063 138.146 22.3583 138.146 22.3089C138.151 21.582 138.18 20.875 138.336 20.1627C138.353 20.0834 138.353 20.0834 138.37 20.0025C138.767 18.1688 139.552 15.9072 141.17 14.7909C141.743 14.4344 142.45 14.0812 143.135 14.0989C143.273 14.1351 143.328 14.1821 143.412 14.2965C143.409 14.5027 143.396 14.6391 143.269 14.805C143.083 14.9553 142.888 15.022 142.665 15.1038C141.9 15.4065 141.543 15.8683 141.216 16.6172C140.481 18.4004 140.142 20.381 140.197 22.3062C140.198 22.3455 140.199 22.3847 140.2 22.4252C140.224 23.4849 140.365 24.9583 141.156 25.7469C141.523 26.0702 142.073 26.1743 142.554 26.1543C143.249 26.0845 143.786 25.8471 144.235 25.2992C145.618 23.2453 145.567 19.8282 145.126 17.4964C144.623 15.0493 143.46 12.7148 141.72 10.9121C141.677 10.8657 141.633 10.8193 141.589 10.7716C141.046 10.2057 140.302 9.63162 139.489 9.60928C139.419 9.60993 139.349 9.61059 139.277 9.61126C139.206 9.61177 139.136 9.61228 139.063 9.6128C138.982 9.61378 138.982 9.61378 138.9 9.61479C138.843 9.51389 138.787 9.41279 138.731 9.3116C138.684 9.22719 138.684 9.22719 138.636 9.14106C138.562 8.99432 138.562 8.99432 138.562 8.88151C138.91 8.70145 139.26 8.5228 139.61 8.34512C139.729 8.28449 139.847 8.22353 139.966 8.16225C140.136 8.07432 140.307 7.98756 140.478 7.90101C140.532 7.87328 140.585 7.84556 140.639 7.81699C140.689 7.79214 140.739 7.76728 140.79 7.74168C140.834 7.71938 140.877 7.69709 140.922 7.67412C141.043 7.64057 141.043 7.64057 141.163 7.68235Z" fill="white"/>
<path d="M81.7605 14.0708C81.7706 14.4972 81.7313 14.9099 81.6829 15.3333C81.6745 15.4082 81.6662 15.4831 81.6579 15.5581C81.6354 15.76 81.6126 15.9619 81.5897 16.1639C81.5658 16.3756 81.5422 16.5873 81.5185 16.799C81.4738 17.1994 81.4288 17.5998 81.3837 18.0001C81.3174 18.5887 81.2515 19.1773 81.1856 19.7659C81.1808 19.8091 81.1759 19.8522 81.1709 19.8967C81.1613 19.9827 81.1517 20.0687 81.1421 20.1547C81.1139 20.4067 81.0855 20.6587 81.0572 20.9107C81.0438 21.0294 81.0305 21.1481 81.0171 21.2669C81.0008 21.4118 80.9845 21.5567 80.9681 21.7016C80.9575 21.7969 80.9575 21.7969 80.9466 21.894C80.9403 21.9494 80.9341 22.0048 80.9277 22.0619C80.9126 22.19 80.9126 22.19 80.9144 22.3061C80.9308 22.2774 80.9471 22.2486 80.9639 22.219C81.8342 20.6951 82.7951 19.0957 84.0042 17.8159C84.1669 17.6406 84.3132 17.4548 84.461 17.267C84.8584 16.7687 85.2793 16.29 85.709 15.8194C85.7819 15.7384 85.8549 15.6574 85.9277 15.5763C85.9796 15.5195 86.0321 15.4632 86.0852 15.4075C86.2286 15.257 86.3569 15.1068 86.4764 14.9365C86.6946 14.6482 86.8798 14.4403 87.2497 14.3775C87.7155 14.3459 88.1775 14.3708 88.6421 14.4092C88.65 15.0079 88.6254 15.6006 88.5903 16.1979C88.5847 16.2956 88.5792 16.3934 88.5736 16.4911C88.5618 16.7 88.5497 16.9088 88.5376 17.1176C88.5184 17.4481 88.4996 17.7786 88.4808 18.109C88.4476 18.691 88.4141 19.273 88.3806 19.855C88.3301 20.7321 88.2798 21.6093 88.2298 22.4865C88.211 22.8148 88.1922 23.1431 88.1732 23.4713C88.1614 23.6755 88.1497 23.8797 88.138 24.0839C88.1326 24.1783 88.1272 24.2727 88.1217 24.3671C88.1141 24.4964 88.1068 24.6256 88.0994 24.7548C88.0953 24.827 88.0911 24.8992 88.0868 24.9736C88.0775 25.1942 88.0765 25.4132 88.078 25.6341C88.1221 25.6272 88.1662 25.6204 88.2116 25.6133C88.4126 25.5823 88.6137 25.5518 88.8148 25.5212C88.8842 25.5105 88.9535 25.4997 89.0249 25.4886C89.0924 25.4785 89.1598 25.4683 89.2293 25.4578C89.3219 25.4436 89.3219 25.4436 89.4164 25.4291C89.601 25.4084 89.601 25.4084 89.9958 25.4084C89.9958 25.7435 89.9958 26.0785 89.9958 26.4237C89.8423 26.4365 89.6887 26.4493 89.5305 26.4625C88.7019 26.5449 87.9234 26.7628 87.1403 27.0407C87.0651 27.067 87.0651 27.067 86.9885 27.0939C86.6686 27.2119 86.3968 27.3596 86.1158 27.5533C85.991 27.6083 85.991 27.6083 85.8717 27.5686C85.7364 27.4756 85.6094 27.3749 85.4833 27.2698C85.5401 26.9425 85.6019 26.6169 85.6733 26.2924C86.204 23.873 86.3538 21.3918 86.4563 18.9217C86.4587 18.8665 86.461 18.8112 86.4634 18.7543C86.4927 18.0389 86.5042 17.325 86.4987 16.6091C86.2188 16.876 85.9734 17.1598 85.731 17.4611C85.5956 17.6251 85.4547 17.7818 85.3106 17.9381C85.0532 18.2185 84.8147 18.5089 84.5808 18.8089C84.5082 18.9015 84.4355 18.9941 84.3628 19.0866C84.3103 19.1535 84.2579 19.2204 84.2055 19.2874C84.0698 19.4606 83.933 19.6329 83.794 19.8035C82.0784 21.912 81.0826 24.0017 80.6105 26.6736C80.5994 26.7358 80.5883 26.7979 80.5769 26.862C80.5672 26.9176 80.5574 26.9732 80.5474 27.0305C80.5196 27.157 80.5196 27.157 80.4632 27.2134C80.3381 27.2184 80.2128 27.2195 80.0875 27.2189C80.0313 27.2188 80.0313 27.2188 79.9739 27.2187C79.8538 27.2184 79.7337 27.2177 79.6136 27.217C79.5323 27.2167 79.451 27.2164 79.3698 27.2162C79.1702 27.2156 78.9706 27.2145 78.771 27.2134C78.7646 26.5089 78.781 25.8096 78.8219 25.1062C78.8274 25.008 78.8329 24.9098 78.8383 24.8115C78.8529 24.5485 78.868 24.2855 78.8831 24.0226C78.8989 23.7462 78.9144 23.4697 78.93 23.1933C78.9561 22.7304 78.9824 22.2675 79.0089 21.8046C79.0395 21.2694 79.0698 20.7342 79.0998 20.199C79.1288 19.6826 79.1581 19.1663 79.1875 18.6499C79.2 18.4306 79.2123 18.2113 79.2246 17.9919C79.2391 17.7345 79.2538 17.4771 79.2687 17.2197C79.2741 17.1251 79.2794 17.0306 79.2847 16.9361C79.2919 16.8074 79.2993 16.6787 79.3069 16.55C79.313 16.4419 79.313 16.4419 79.3193 16.3316C79.3351 16.1578 79.3351 16.1578 79.3915 15.9886C79.3366 16.0006 79.2817 16.0125 79.2251 16.0249C79.0207 16.0693 78.8162 16.1134 78.6117 16.1573C78.5233 16.1764 78.435 16.1955 78.3466 16.2148C78.2194 16.2425 78.0921 16.2698 77.9648 16.2971C77.9255 16.3057 77.8863 16.3144 77.8458 16.3233C77.6375 16.3675 77.4639 16.3835 77.248 16.3835C77.248 16.0484 77.248 15.7133 77.248 15.3681C77.4016 15.3635 77.5552 15.3588 77.7134 15.354C79.0829 15.2919 80.6106 14.0708 81.7605 14.0708Z" fill="white"/>
<path d="M41.4962 10.7466C41.726 10.7936 41.9502 10.8186 42.1847 10.831C42.3977 10.8426 42.5761 10.8601 42.784 10.9121C42.784 11.9917 42.784 13.0713 42.784 14.1837C42.4118 14.1837 42.0395 14.1837 41.6559 14.1837C41.6513 14.058 41.6466 13.9324 41.6418 13.8029C41.5987 13.0665 41.3417 12.3583 40.7887 11.8463C40.1941 11.383 39.5501 11.3947 38.8356 11.4762C38.2095 11.5868 37.6508 11.9386 37.2562 12.4351C36.8621 13.0739 36.7608 13.7675 36.9002 14.5003C37.0117 14.8955 37.1736 15.2146 37.4255 15.5374C37.4483 15.5701 37.4711 15.6027 37.4946 15.6363C37.9822 16.281 38.7962 16.6365 39.5125 16.9581C39.6759 17.0327 39.8392 17.1077 40.0025 17.1827C40.0421 17.2008 40.0817 17.2189 40.1225 17.2376C41.2723 17.7653 41.2723 17.7653 41.7123 18.1074C41.7495 18.1359 41.7866 18.1644 41.8249 18.1938C43.1116 19.2044 44.0822 20.6203 44.2947 22.2689C44.3855 23.7887 44.0051 25.1771 43.0167 26.3568C42.2495 27.1821 41.0887 27.5571 39.9852 27.6162C38.4706 27.6681 36.994 27.3772 35.5993 26.7763C35.5624 26.7605 35.5255 26.7446 35.4875 26.7282C35.3035 26.6441 35.228 26.5966 35.1128 26.4238C35.1 26.2915 35.1 26.2915 35.1018 26.1334C35.1022 26.074 35.1025 26.0146 35.1029 25.9534C35.1039 25.8889 35.1048 25.8244 35.1058 25.7579C35.1062 25.6909 35.1066 25.6238 35.1071 25.5547C35.1089 25.268 35.112 24.9814 35.1151 24.6947C35.1232 23.8851 35.1141 23.092 35.0192 22.2874C35.0128 22.2191 35.0065 22.1509 35 22.0805C35.0564 22.0241 35.0564 22.0241 35.1767 22.0177C35.2284 22.018 35.2801 22.0183 35.3334 22.0186C35.3892 22.0188 35.445 22.019 35.5025 22.0192C35.5612 22.0196 35.6199 22.0201 35.6804 22.0206C35.7688 22.021 35.7688 22.021 35.859 22.0214C36.0051 22.022 36.1512 22.023 36.2973 22.0241C36.2981 22.0974 36.2981 22.0974 36.2989 22.1721C36.3015 22.3574 36.3049 22.5426 36.309 22.7278C36.3106 22.8072 36.3118 22.8866 36.3126 22.9661C36.324 24.0246 36.6105 24.8963 37.3554 25.6802C37.9917 26.2998 38.7054 26.4967 39.5723 26.4981C40.4832 26.4848 41.2657 26.1689 41.9289 25.5413C42.3938 25.0344 42.5819 24.3238 42.5703 23.6471C42.4918 22.6152 42.1196 21.8492 41.3457 21.159C40.5323 20.4673 39.5084 20.0079 38.5695 19.5105C37.0769 18.7178 35.7509 17.7933 35.2256 16.1015C34.8953 14.9715 35.0402 13.7011 35.5396 12.6426C36.0761 11.6693 36.9312 11.0363 37.9862 10.7186C39.1616 10.3933 40.3148 10.4997 41.4962 10.7466Z" fill="white"/>
<path d="M114.685 10.7466C114.894 10.7947 115.097 10.8188 115.312 10.831C115.516 10.843 115.686 10.8621 115.886 10.9121C115.886 11.9917 115.886 13.0713 115.886 14.1836C115.533 14.1836 115.179 14.1836 114.815 14.1836C114.81 14.058 114.805 13.9324 114.801 13.8029C114.756 13.0384 114.474 12.3166 113.908 11.7846C113.356 11.3637 112.706 11.3883 112.051 11.4762C111.425 11.6208 110.9 11.9694 110.528 12.4915C110.117 13.1553 110.073 13.8055 110.219 14.5653C110.434 15.3789 111.014 16.0005 111.712 16.4399C112.256 16.7445 112.823 17.006 113.389 17.2653C114.288 17.6786 115.013 18.1713 115.717 18.8654C115.758 18.9051 115.798 18.9448 115.84 18.9857C116.869 20.0691 117.39 21.5242 117.38 22.9984C117.365 23.541 117.289 24.0447 117.127 24.5624C117.107 24.6281 117.086 24.6938 117.065 24.7616C116.706 25.785 116.016 26.686 115.033 27.1676C113.192 27.975 111.146 27.6213 109.325 26.9387C109.037 26.8248 108.756 26.7089 108.497 26.5366C108.478 26.4243 108.478 26.4243 108.48 26.2846C108.48 26.2321 108.48 26.1797 108.481 26.1256C108.482 26.0684 108.483 26.0112 108.485 25.9523C108.485 25.8928 108.486 25.8333 108.486 25.772C108.488 25.5803 108.491 25.3886 108.494 25.1969C108.506 24.3293 108.497 23.4796 108.395 22.617C108.38 22.4199 108.384 22.2218 108.384 22.0241C108.775 22.0241 109.166 22.0241 109.569 22.0241C109.571 22.1113 109.573 22.1986 109.575 22.2885C109.614 23.6281 109.776 24.8006 110.746 25.7987C111.389 26.4034 112.111 26.5101 112.958 26.4938C113.75 26.4635 114.47 26.1343 115.044 25.5865C115.632 24.9311 115.711 24.1775 115.67 23.3329C115.62 22.665 115.333 22.0021 114.871 21.5164C114.81 21.4501 114.81 21.4501 114.748 21.3825C114.112 20.7893 113.38 20.3791 112.625 19.9582C112.44 19.8546 112.254 19.7509 112.069 19.6471C111.945 19.5778 111.821 19.5085 111.697 19.4393C110.259 18.6344 109.086 17.7217 108.551 16.0922C108.329 15.223 108.369 14.2537 108.61 13.394C108.628 13.3275 108.647 13.261 108.666 13.1926C108.983 12.1941 109.645 11.4947 110.56 11.009C111.853 10.3611 113.307 10.4259 114.685 10.7466Z" fill="white"/>
<path d="M101.277 14.0708C101.247 14.4412 101.208 14.81 101.163 15.1789C100.968 16.7969 100.826 18.4172 100.7 20.0419C100.678 20.3284 100.655 20.6149 100.632 20.9014C100.472 22.7744 100.472 22.7744 100.406 24.6525C100.405 24.7462 100.405 24.7462 100.404 24.8419C100.408 25.1674 100.448 25.4016 100.6 25.6905C101.021 25.6337 101.408 25.5444 101.808 25.3974C101.954 25.352 101.954 25.352 102.18 25.352C102.227 25.4423 102.274 25.5328 102.321 25.6235C102.347 25.6739 102.373 25.7243 102.4 25.7762C102.462 25.9161 102.462 25.9161 102.462 26.0853C102.418 26.0949 102.375 26.1045 102.331 26.1144C101.213 26.3673 100.141 26.6628 99.1393 27.2304C98.8617 27.3825 98.6635 27.4608 98.3439 27.4391C98.2875 27.3826 98.2875 27.3826 98.2796 27.1826C98.2828 26.9387 98.3156 26.7059 98.3575 26.466C98.3724 26.3769 98.3873 26.2877 98.4021 26.1986C98.4099 26.1525 98.4177 26.1064 98.4257 26.0589C98.6935 24.4601 98.7553 22.9092 98.7387 21.2908C98.7065 21.3426 98.7065 21.3426 98.6736 21.3954C98.2509 22.0736 97.8275 22.7512 97.3968 23.4244C97.2293 23.6862 97.0633 23.9488 96.8998 24.2131C96.5346 24.801 96.1664 25.3539 95.6928 25.8597C95.6453 25.911 95.5978 25.9623 95.5489 26.0152C94.8732 26.7193 93.9386 27.3216 92.9404 27.3941C92.4324 27.4022 91.9928 27.3472 91.6106 26.9863C90.9103 26.1381 90.939 24.9438 91.023 23.9079C91.3043 21.2569 92.7646 18.6832 94.5083 16.7219C94.5378 16.6876 94.5673 16.6534 94.5977 16.6181C95.4857 15.5895 96.6983 14.2432 98.1368 14.1098C98.4088 14.1044 98.6596 14.1138 98.9221 14.1871C99.5539 14.3494 100.326 14.1694 100.965 14.0935C101.164 14.0708 101.164 14.0708 101.277 14.0708ZM95.6089 17.0685C94.0878 18.9803 92.6817 21.6463 92.9289 24.1675C93.0063 24.574 93.0956 24.9292 93.4366 25.1828C93.7492 25.3912 94.0766 25.3739 94.4378 25.3027C95.8385 24.907 96.6468 23.3115 97.3099 22.1369C98.087 20.7304 98.8736 19.1021 99.1195 17.501C99.1263 17.4576 99.1331 17.4142 99.1401 17.3694C99.2278 16.7821 99.2666 16.1466 98.9315 15.6237C98.702 15.3477 98.5239 15.2201 98.1641 15.1778C97.118 15.2807 96.2399 16.3027 95.6089 17.0685Z" fill="white"/>
<path d="M64.2887 14.6313C64.9483 15.2676 65.2712 16.3128 65.3014 17.2055C65.3092 17.7223 65.2921 18.2267 65.2159 18.7384C65.2092 18.7833 65.2026 18.8282 65.1958 18.8745C65.1744 19.0041 65.1486 19.1318 65.1207 19.2601C65.1079 19.3284 65.1079 19.3284 65.0949 19.3981C65.049 19.5874 65.0137 19.7237 64.8505 19.8392C64.7153 19.897 64.5823 19.9377 64.4403 19.9758C64.3616 19.9992 64.3616 19.9992 64.2814 20.0231C64.1106 20.0726 63.9391 20.1182 63.7669 20.1626C63.7111 20.1772 63.6552 20.1918 63.5976 20.2069C62.85 20.3982 62.0932 20.545 61.3344 20.6844C61.2962 20.6914 61.2581 20.6985 61.2187 20.7057C59.8066 20.9647 59.8066 20.9647 59.198 20.9523C59.1674 22.4722 59.2377 24.1146 60.3262 25.2956C60.786 25.7617 61.3423 25.9827 61.9956 25.991C62.038 25.9907 62.0804 25.9904 62.1241 25.9901C62.1687 25.9898 62.2132 25.9895 62.2592 25.9892C62.9749 25.9749 63.5666 25.6965 64.0902 25.2105C64.6771 24.566 64.989 23.8042 65.0396 22.9371C65.0433 22.8785 65.0433 22.8785 65.047 22.8187C65.0529 22.723 65.0586 22.6273 65.0643 22.5317C65.1924 22.5396 65.3205 22.5479 65.4485 22.5564C65.5555 22.5632 65.5555 22.5632 65.6647 22.5702C65.854 22.5881 65.854 22.5881 66.0232 22.6445C66.0326 22.9956 66.0077 23.3076 65.928 23.6492C65.9178 23.6934 65.9076 23.7376 65.8971 23.7831C65.591 25.0519 64.7779 26.1759 63.6647 26.8644C62.606 27.4493 61.1942 27.5547 60.0228 27.2788C59.0252 26.9592 58.3284 26.3807 57.8401 25.454C57.4452 24.682 57.2194 23.8195 57.2144 22.951C57.2141 22.9111 57.2139 22.8712 57.2136 22.8301C57.2131 22.7012 57.2131 22.5724 57.2133 22.4435C57.2133 22.3993 57.2134 22.3551 57.2134 22.3095C57.2197 19.8898 57.6672 16.9529 59.3849 15.1002C60.5647 13.9869 62.9445 13.5957 64.2887 14.6313ZM60.8197 15.5069C60.0517 16.4803 59.6255 17.6346 59.399 18.8441C59.3851 18.9182 59.3851 18.9182 59.3709 18.9938C59.311 19.3476 59.3012 19.6914 59.3109 20.0498C59.8391 20.0179 60.357 19.9432 60.8785 19.8569C61.0139 19.8347 61.1494 19.8135 61.285 19.7923C62.0725 19.6653 62.6735 19.4722 63.1606 18.7983C63.7338 17.8862 63.637 16.8797 63.4285 15.8758C63.3269 15.4717 63.2253 15.197 62.8644 14.9733C62.1573 14.6358 61.3191 14.9607 60.8197 15.5069Z" fill="white"/>
<path d="M72.1907 14.064C72.9652 14.0426 73.7505 14.1701 74.3644 14.6701C75.0019 15.2858 75.3201 16.3048 75.3473 17.1749C75.3483 17.2965 75.3485 17.4182 75.3479 17.5398C75.3477 17.6038 75.3475 17.6679 75.3473 17.7339C75.3405 18.2726 75.2916 18.7934 75.1611 19.3166C75.1473 19.3769 75.1473 19.3769 75.1332 19.4384C75.0979 19.5622 75.062 19.6597 74.9919 19.7678C74.8306 19.8507 74.7126 19.894 74.5406 19.9371C74.4422 19.9673 74.3439 19.9976 74.2456 20.0281C73.0824 20.3644 71.9045 20.6129 70.7085 20.8008C70.6515 20.8098 70.5945 20.8188 70.5358 20.828C70.1046 20.8924 69.6735 20.9261 69.2384 20.9524C69.257 22.5521 69.3123 24.1617 70.4642 25.406C71.0648 25.9467 71.7842 26.022 72.5546 25.9833C73.3017 25.9187 73.883 25.5128 74.3615 24.9579C74.7997 24.3512 75.0504 23.7011 75.0835 22.9548C75.0868 22.8933 75.0868 22.8933 75.0901 22.8305C75.0954 22.7309 75.1001 22.6313 75.1047 22.5317C75.2328 22.5397 75.3609 22.548 75.489 22.5564C75.5959 22.5633 75.5959 22.5633 75.7051 22.5703C75.8944 22.5881 75.8944 22.5881 76.0636 22.6445C76.1355 23.8007 75.6334 24.9976 74.8791 25.8597C74.0716 26.7645 73.115 27.2896 71.8895 27.3827C70.7378 27.4415 69.6392 27.3248 68.7061 26.5824C67.7409 25.6405 67.2773 24.1879 67.2493 22.8708C67.2488 22.7331 67.2491 22.5954 67.2501 22.4577C67.2506 22.384 67.251 22.3103 67.2514 22.2343C67.2702 20.1881 67.6556 18.2263 68.5616 16.3835C68.5912 16.322 68.6208 16.2606 68.6513 16.1973C69.1226 15.2742 69.8733 14.6059 70.8599 14.2839C71.3029 14.155 71.7318 14.0877 72.1907 14.064ZM70.9306 15.481C70.8885 15.5213 70.8885 15.5213 70.8456 15.5625C69.8515 16.6001 69.3507 18.4427 69.3442 19.8454C69.3477 19.9466 69.3477 19.9466 69.3513 20.0499C69.8992 20.0195 70.4354 19.9489 70.9764 19.8601C71.1107 19.8383 71.2451 19.8178 71.3796 19.7974C71.9856 19.7009 72.5478 19.5848 72.9613 19.091C72.989 19.0579 73.0167 19.0248 73.0452 18.9907C73.5732 18.3291 73.7118 17.5944 73.6247 16.7625C73.5219 15.8939 73.5219 15.8939 73.1446 15.1179C72.3999 14.6007 71.5226 14.8679 70.9306 15.481Z" fill="white"/>
<path d="M123.406 14.064C124.198 14.0424 124.994 14.1945 125.588 14.7477C126.372 15.5909 126.533 16.828 126.499 17.9323C126.485 18.1794 126.453 18.4232 126.417 18.6679C126.41 18.713 126.403 18.7581 126.396 18.8046C126.375 18.9385 126.349 19.0709 126.321 19.2038C126.313 19.2537 126.305 19.3037 126.296 19.3552C126.217 19.72 126.217 19.72 126.049 19.8438C125.912 19.9024 125.778 19.9423 125.634 19.9793C125.581 19.9947 125.528 20.0101 125.474 20.0259C125.306 20.074 125.137 20.1185 124.968 20.1627C124.863 20.1918 124.758 20.2209 124.654 20.2501C123.994 20.4287 123.327 20.5616 122.655 20.6844C122.617 20.6915 122.578 20.6985 122.539 20.7058C121.11 20.9661 121.11 20.9661 120.568 20.9523C120.541 22.4666 120.603 24.1714 121.696 25.352C122.179 25.8141 122.75 25.9954 123.409 25.9901C123.472 25.9896 123.472 25.9896 123.537 25.9892C124.211 25.9743 124.767 25.7202 125.26 25.2568C126 24.4721 126.209 23.5743 126.265 22.5317C126.382 22.5397 126.5 22.548 126.617 22.5564C126.716 22.5633 126.716 22.5633 126.816 22.5703C126.959 22.5843 127.086 22.604 127.224 22.6445C127.081 24.1948 126.553 25.4894 125.362 26.5365C124.359 27.2987 123.094 27.5128 121.86 27.3689C121.631 27.334 121.411 27.2793 121.188 27.2134C121.139 27.199 121.09 27.1846 121.039 27.1698C120.306 26.9171 119.731 26.3669 119.383 25.6905C119.356 25.6404 119.329 25.5904 119.3 25.5389C118.767 24.5356 118.629 23.5149 118.636 22.3942C118.636 22.3466 118.636 22.299 118.637 22.2499C118.648 19.9159 119.026 16.9231 120.721 15.1526C121.472 14.4351 122.378 14.1178 123.406 14.064ZM122.204 15.4245C121.384 16.4238 120.962 17.6637 120.737 18.9217C120.73 18.963 120.722 19.0042 120.715 19.0467C120.664 19.379 120.677 19.7148 120.681 20.0498C121.2 20.0182 121.709 19.9464 122.221 19.8601C122.352 19.8383 122.483 19.8178 122.614 19.7973C123.262 19.6913 123.883 19.5381 124.291 18.9781C124.607 18.4293 124.82 17.9217 124.812 17.2824C124.812 17.2354 124.812 17.1884 124.811 17.14C124.801 16.511 124.784 15.6736 124.382 15.1546C124.084 14.8869 123.75 14.8364 123.364 14.8468C122.896 14.8909 122.534 15.0938 122.204 15.4245Z" fill="white"/>
<path d="M133.164 14.064C133.957 14.0424 134.751 14.1949 135.346 14.7477C136.112 15.5554 136.275 16.7269 136.261 17.7927C136.252 18.0875 136.218 18.3764 136.175 18.6679C136.168 18.713 136.162 18.7581 136.155 18.8046C136.133 18.9385 136.107 19.0709 136.08 19.2038C136.071 19.2537 136.063 19.3037 136.054 19.3552C135.975 19.72 135.975 19.72 135.808 19.8438C135.671 19.9024 135.537 19.9423 135.392 19.9793C135.339 19.9947 135.287 20.0101 135.232 20.0259C135.064 20.074 134.895 20.1185 134.726 20.1627C134.621 20.1918 134.517 20.2209 134.412 20.2501C133.752 20.4287 133.085 20.5616 132.413 20.6844C132.375 20.6915 132.336 20.6985 132.297 20.7058C130.869 20.9661 130.869 20.9661 130.326 20.9523C130.299 22.4666 130.361 24.1714 131.454 25.352C131.937 25.8141 132.508 25.9954 133.168 25.9901C133.231 25.9896 133.231 25.9896 133.295 25.9892C133.97 25.9743 134.526 25.7202 135.019 25.2568C135.758 24.4721 135.967 23.5743 136.023 22.5317C136.141 22.5397 136.258 22.548 136.376 22.5564C136.474 22.5633 136.474 22.5633 136.574 22.5703C136.718 22.5843 136.844 22.604 136.982 22.6445C136.84 24.1948 136.311 25.4894 135.121 26.5365C134.117 27.2987 132.853 27.5128 131.619 27.3689C131.389 27.334 131.169 27.2793 130.947 27.2134C130.897 27.199 130.848 27.1846 130.797 27.1698C129.942 26.8748 129.397 26.1975 128.987 25.4225C128.52 24.4423 128.387 23.4692 128.394 22.3942C128.395 22.3466 128.395 22.299 128.395 22.2499C128.406 19.9159 128.785 16.9231 130.48 15.1526C131.231 14.4351 132.137 14.1178 133.164 14.064ZM131.962 15.4245C130.951 16.6571 130.344 18.4577 130.439 20.0498C130.958 20.0182 131.467 19.9464 131.979 19.8601C132.11 19.8383 132.241 19.8178 132.372 19.7973C133.021 19.6913 133.641 19.5381 134.049 18.9781C134.369 18.4229 134.579 17.911 134.574 17.2648C134.574 17.2157 134.574 17.1666 134.574 17.116C134.562 16.4417 134.522 15.5688 134.028 15.0614C133.319 14.6392 132.52 14.867 131.962 15.4245Z" fill="white"/>
<path d="M155.089 14.4657C155.089 15.3964 155.089 16.3271 155.089 17.286C154.828 17.286 154.567 17.286 154.299 17.286C154.251 17.0473 154.234 16.8401 154.225 16.5985C154.209 16.2743 154.152 16.0042 154.013 15.7095C153.962 15.5963 153.93 15.4895 153.904 15.3682C153.867 15.3682 153.83 15.3682 153.791 15.3682C153.727 15.3019 153.727 15.3019 153.661 15.2342C153.446 15.0241 153.31 14.9815 153.012 14.9522C152.608 14.9651 152.295 15.1832 152.024 15.4698C151.65 15.9619 151.505 16.4228 151.56 17.028C151.699 17.9164 152.248 18.71 152.945 19.2602C153.26 19.4833 153.584 19.6935 153.907 19.9043C154.917 20.5637 155.799 21.2944 156.097 22.5212C156.288 23.5662 156.115 24.5173 155.54 25.4085C154.865 26.3751 153.995 27.079 152.832 27.3439C151.359 27.5703 149.949 27.2333 148.658 26.5366C148.621 26.518 148.584 26.4994 148.545 26.4802C148.582 25.59 148.662 24.7053 148.746 23.8185C148.76 23.6767 148.773 23.5348 148.786 23.3929C148.819 23.0495 148.851 22.706 148.884 22.3625C149.163 22.3998 149.442 22.437 149.73 22.4754C149.734 22.736 149.731 22.9873 149.703 23.2465C149.615 24.0957 149.562 24.9612 150.082 25.6835C150.566 26.2529 151.195 26.5364 151.933 26.6036C152.641 26.6264 153.301 26.377 153.836 25.9245C154.287 25.4844 154.404 24.9505 154.412 24.3368C154.362 23.414 153.938 22.8211 153.272 22.2236C153.076 22.0563 152.866 21.9145 152.65 21.7738C152.308 21.547 151.987 21.2881 151.662 21.0367C151.613 20.9991 151.564 20.9616 151.514 20.9229C151.47 20.8892 151.427 20.8555 151.382 20.8208C151.252 20.7233 151.252 20.7233 151.104 20.6382C150.422 20.2236 150.067 19.3181 149.868 18.5822C149.661 17.6787 149.788 16.6334 150.238 15.8194C150.745 15.0145 151.401 14.5609 152.325 14.2965C152.392 14.2757 152.392 14.2757 152.46 14.2546C153.254 14.051 154.347 14.095 155.089 14.4657Z" fill="white"/>
</svg>
