<svg width="122" height="30" viewBox="0 0 122 30" fill="none" xmlns="http://www.w3.org/2000/svg">
<path d="M5.26667 25.2933C2.17333 25.2933 0.12 24.0667 0.12 20.3867V16.76H3.88V20.36C3.88 21.64 4.46667 22.0133 5.24 22.0133C6.01333 22.0133 6.57333 21.64 6.57333 20.36V17.0267C6.57333 13.5067 0.0933334 14.8133 0.0933334 8.65333V5.08C0.0933334 1.4 2.17333 0.173332 5.24 0.173332C8.33333 0.173332 10.36 1.4 10.36 5.08V8.70667H6.6V5.10667C6.6 3.82667 6.01333 3.45333 5.26667 3.45333C4.52 3.45333 3.93333 3.82667 3.93333 5.10667V8.44C3.93333 11.96 10.44 10.6533 10.44 16.8133V20.3867C10.44 24.0667 8.36 25.2933 5.26667 25.2933ZM23.2113 25H19.5579L17.2913 16.76H17.2379L16.0912 20.44V25H12.4913V0.466665H16.0912V14.6533H16.4379L18.9179 7.4H22.5979L20.1713 14.8933L23.2113 25ZM24.46 5.32V0.466665H28.06V5.32H24.46ZM24.46 25V7.4H28.06V25H24.46ZM29.9913 25V0.466665H33.5912V25H29.9913ZM35.5225 25V0.466665H39.1225V25H35.5225ZM45.5071 25.24C42.4671 25.24 41.0538 24.1467 41.0538 21.2133V19.2133H44.3338V21.24C44.3338 22.28 44.7338 22.7333 45.5071 22.7333C46.3071 22.7333 46.7338 22.28 46.7338 21.24V19.2933C46.7338 16.6533 41.1071 18.1733 41.1071 12.7867V11.2667C41.1071 8.52 42.5738 7.13333 45.7204 7.13333C48.5738 7.13333 50.0938 8.22667 50.0938 11.16V13.1867H46.8404V11.08C46.8404 10.0667 46.4938 9.61333 45.7204 9.61333C44.9204 9.61333 44.5471 10.0667 44.5471 11.08V13C44.5471 15.8533 50.2537 14.1467 50.2537 19.56V21.1067C50.2537 24.3067 48.3604 25.24 45.5071 25.24ZM61.6417 25.3467C58.5483 25.3467 56.3883 24.12 56.3883 20.4133V5.10667C56.3883 1.37333 58.5483 0.173332 61.6417 0.173332C64.7617 0.173332 66.895 1.37333 66.895 5.10667V11.0267H62.975V5.13333C62.975 3.85333 62.3883 3.48 61.6417 3.48C60.9217 3.48 60.3083 3.85333 60.3083 5.13333V20.3867C60.3083 21.64 60.9217 22.04 61.6417 22.04C62.3883 22.04 62.975 21.64 62.975 20.3867V14.44H66.895V20.4133C66.895 24.12 64.7617 25.3467 61.6417 25.3467ZM73.6929 7.13333C76.6796 7.13333 78.3863 8.06667 78.3863 10.84V25H75.2129L75.0263 22.52H74.9196C74.4129 24.3067 73.4262 25.2667 71.7196 25.2667C70.0663 25.2667 68.8663 24.36 68.8663 22.2533V17.6667C68.8663 15.5067 69.9329 14.28 72.2529 14.28H74.7863V10.92C74.7863 9.90667 74.4662 9.48 73.6929 9.48C72.9196 9.48 72.5463 9.90667 72.5463 10.92V13H69.1596V10.84C69.1596 7.98667 70.7062 7.13333 73.6929 7.13333ZM73.5863 22.6267C74.2796 22.6267 74.7863 22.0933 74.7863 21.1067V16.28H73.6929C72.7596 16.28 72.4662 16.7333 72.4662 17.6933V21.2667C72.4662 22.1733 72.9462 22.6267 73.5863 22.6267ZM87.0771 7.13333C88.6504 7.13333 89.8504 8.04 89.8504 10.1467V20.7333C89.8504 24.6267 87.7971 25.2667 86.2771 25.2667C85.4771 25.2667 84.6504 25.1067 83.9037 24.76V29.0533H80.3038V7.4H83.4771L83.6904 9.88H83.7704C84.2504 8.09333 85.5038 7.13333 87.0771 7.13333ZM86.2504 20.92V11.1333C86.2504 10.2267 85.7971 9.77333 85.1304 9.77333C84.4371 9.77333 83.9037 10.3067 83.9037 11.2933V22.0933C84.1704 22.28 84.5171 22.4133 85.0504 22.4133C85.8238 22.4133 86.2504 22.0133 86.2504 20.92ZM91.7725 5.32V0.466665H95.3725V5.32H91.7725ZM91.7725 25V7.4H95.3725V25H91.7725ZM103.784 22.3867C104.104 22.3867 104.424 22.3867 104.69 22.3333V24.7867C103.97 25.1333 103.437 25.2667 102.45 25.2667C100.424 25.2667 98.5304 24.6533 98.5304 20.7867V10.3867H96.9304V7.4H98.5304V2.97333H102.13V7.4H104.61V10.3867H102.13V20.0933C102.13 21.6667 102.637 22.3867 103.784 22.3867ZM111.068 7.13333C114.055 7.13333 115.761 8.06667 115.761 10.84V25H112.588L112.401 22.52H112.295C111.788 24.3067 110.801 25.2667 109.095 25.2667C107.441 25.2667 106.241 24.36 106.241 22.2533V17.6667C106.241 15.5067 107.308 14.28 109.628 14.28H112.161V10.92C112.161 9.90667 111.841 9.48 111.068 9.48C110.295 9.48 109.921 9.90667 109.921 10.92V13H106.535V10.84C106.535 7.98667 108.081 7.13333 111.068 7.13333ZM110.961 22.6267C111.655 22.6267 112.161 22.0933 112.161 21.1067V16.28H111.068C110.135 16.28 109.841 16.7333 109.841 17.6933V21.2667C109.841 22.1733 110.321 22.6267 110.961 22.6267ZM117.679 25V0.466665H121.279V25H117.679Z" fill="white"/>
</svg>
