<svg width="96" height="25" viewBox="0 0 96 25" fill="none" xmlns="http://www.w3.org/2000/svg">
<path d="M13.952 6.24H9.152V24H4.992V6.24H0.192V2.656H13.952V6.24ZM24.1533 19.552L27.7373 20.128C27.5879 20.512 27.3853 20.896 27.1293 21.28C26.8946 21.6427 26.5213 22.1013 26.0093 22.656C25.4973 23.1893 24.8039 23.6267 23.9293 23.968C23.0546 24.288 22.0519 24.448 20.9213 24.448C18.7453 24.448 16.9746 23.7973 15.6093 22.496C14.1586 21.1307 13.4333 19.328 13.4333 17.088C13.4333 14.8693 14.1373 13.056 15.5453 11.648C16.8679 10.3467 18.6066 9.696 20.7613 9.696C23.1079 9.696 24.9106 10.4533 26.1693 11.968C27.2786 13.2907 27.8333 15.104 27.8333 17.408V17.728H17.4653C17.4653 18.6667 17.6893 19.4453 18.1373 20.064C18.7773 20.9387 19.7053 21.376 20.9213 21.376C22.3719 21.376 23.4493 20.768 24.1533 19.552ZM17.5933 15.232H24.1533C24.0039 14.336 23.6093 13.6533 22.9693 13.184C22.3506 12.6933 21.6466 12.448 20.8573 12.448C20.0893 12.448 19.3853 12.6933 18.7453 13.184C18.1266 13.6747 17.7426 14.3573 17.5933 15.232ZM41.288 10.528V14.368C40.4133 13.5573 39.3467 13.152 38.088 13.152C36.8507 13.152 35.8907 13.536 35.208 14.304C34.5253 15.0507 34.184 15.968 34.184 17.056C34.184 18.1867 34.5573 19.1253 35.304 19.872C36.072 20.6187 37.0427 20.992 38.216 20.992C39.368 20.992 40.392 20.5867 41.288 19.776V23.584C40.136 24.16 38.9413 24.448 37.704 24.448C35.5493 24.448 33.768 23.776 32.36 22.432C30.888 21.0453 30.152 19.2747 30.152 17.12C30.152 14.7733 30.952 12.896 32.552 11.488C33.896 10.2933 35.56 9.696 37.544 9.696C38.888 9.696 40.136 9.97333 41.288 10.528ZM44.231 24V0.671999H48.135V11.936C49.2017 10.4427 50.631 9.696 52.423 9.696C54.2363 9.696 55.6017 10.2613 56.519 11.392C57.2443 12.288 57.607 13.5893 57.607 15.296V24H53.703V16.448C53.703 15.1467 53.4577 14.24 52.967 13.728C52.519 13.2587 51.911 13.024 51.143 13.024C50.0763 13.024 49.2763 13.4293 48.743 14.24C48.3377 14.88 48.135 15.776 48.135 16.928V24H44.231ZM61.3248 10.144H65.2288V24H61.3248V10.144ZM61.6128 5.952C61.1648 5.48267 60.9408 4.928 60.9408 4.288C60.9408 3.648 61.1648 3.104 61.6128 2.656C62.0821 2.18667 62.6368 1.952 63.2768 1.952C63.9168 1.952 64.4608 2.18667 64.9088 2.656C65.3781 3.104 65.6128 3.648 65.6128 4.288C65.6128 4.928 65.3781 5.48267 64.9088 5.952C64.4608 6.4 63.9168 6.624 63.2768 6.624C62.6368 6.624 62.0821 6.4 61.6128 5.952ZM78.9658 19.552L82.5498 20.128C82.4004 20.512 82.1978 20.896 81.9418 21.28C81.7071 21.6427 81.3338 22.1013 80.8218 22.656C80.3098 23.1893 79.6164 23.6267 78.7418 23.968C77.8671 24.288 76.8644 24.448 75.7338 24.448C73.5578 24.448 71.7871 23.7973 70.4218 22.496C68.9711 21.1307 68.2458 19.328 68.2458 17.088C68.2458 14.8693 68.9498 13.056 70.3578 11.648C71.6804 10.3467 73.4191 9.696 75.5738 9.696C77.9204 9.696 79.7231 10.4533 80.9818 11.968C82.0911 13.2907 82.6458 15.104 82.6458 17.408V17.728H72.2778C72.2778 18.6667 72.5018 19.4453 72.9498 20.064C73.5898 20.9387 74.5178 21.376 75.7338 21.376C77.1844 21.376 78.2618 20.768 78.9658 19.552ZM72.4058 15.232H78.9658C78.8164 14.336 78.4218 13.6533 77.7818 13.184C77.1631 12.6933 76.4591 12.448 75.6698 12.448C74.9018 12.448 74.1978 12.6933 73.5578 13.184C72.9391 13.6747 72.5551 14.3573 72.4058 15.232ZM95.1405 11.168L93.2205 13.44C92.5592 12.8213 91.8018 12.512 90.9485 12.512C90.4792 12.512 90.1058 12.6187 89.8285 12.832C89.5725 13.024 89.4445 13.2907 89.4445 13.632C89.4445 14.1867 89.8605 14.6027 90.6925 14.88L91.6205 15.168C93.4338 15.744 94.6072 16.4053 95.1405 17.152C95.6098 17.792 95.8445 18.56 95.8445 19.456C95.8445 20.864 95.3325 22.0373 94.3085 22.976C93.2418 23.9573 91.8552 24.448 90.1485 24.448C87.9938 24.448 86.2018 23.68 84.7725 22.144L86.8205 19.776C87.7378 20.8427 88.7618 21.376 89.8925 21.376C90.4472 21.376 90.9058 21.248 91.2685 20.992C91.6312 20.7147 91.8125 20.3413 91.8125 19.872C91.8125 19.232 91.4072 18.7627 90.5965 18.464L89.7005 18.144C88.3138 17.6533 87.3218 17.0987 86.7245 16.48C86.0205 15.7333 85.6685 14.848 85.6685 13.824C85.6685 12.544 86.1485 11.4987 87.1085 10.688C87.9405 10.0267 89.1458 9.696 90.7245 9.696C92.3885 9.696 93.8605 10.1867 95.1405 11.168Z" fill="white"/>
</svg>
